<ttFont>
<head>
    <!-- Most of this table will be recalculated by the compiler -->
    <tableVersion value="1.0"/>
    <fontRevision value="1.002"/>
    <checkSumAdjustment value="0x1fe8ee1e"/>
    <magicNumber value="0x5f0f3cf5"/>
    <flags value="00000000 00000011"/>
    <unitsPerEm value="1000"/>
    <created value="Sun Jan 10 02:33:47 2016"/>
    <modified value="Sun Jan 10 02:33:50 2016"/>
    <xMin value="-132"/>
    <yMin value="-358"/>
    <xMax value="1003"/>
    <yMax value="1133"/>
    <macStyle value="00000000 00000010"/>
    <lowestRecPPEM value="6"/>
    <fontDirectionHint value="2"/>
    <indexToLocFormat value="0"/>
    <glyphDataFormat value="0"/>
  </head>
    <TTGlyph name=".notdef" xMin="0" yMin="-200" xMax="500" yMax="800">
      <contour>
        <pt x="0" y="-200" on="1"/>
        <pt x="0" y="800" on="1"/>
        <pt x="500" y="800" on="1"/>
        <pt x="500" y="-200" on="1"/>
      </contour>
      <contour>
        <pt x="71" y="750" on="1"/>
        <pt x="250" y="360" on="1"/>
        <pt x="429" y="750" on="1"/>
      </contour>
      <contour>
        <pt x="450" y="676" on="1"/>
        <pt x="278" y="300" on="1"/>
        <pt x="450" y="-76" on="1"/>
      </contour>
      <contour>
        <pt x="50" y="-76" on="1"/>
        <pt x="222" y="300" on="1"/>
        <pt x="50" y="676" on="1"/>
      </contour>
      <contour>
        <pt x="250" y="240" on="1"/>
        <pt x="71" y="-150" on="1"/>
        <pt x="429" y="-150" on="1"/>
      </contour>
    </TTGlyph>
    <TTGlyph name="A" xMin="5" yMin="-1" xMax="470" yMax="624">
      <contour>
        <pt x="445" y="-1" on="1"/>
        <pt x="438" y="54" on="0"/>
        <pt x="423" y="166" on="0"/>
        <pt x="416" y="222" on="1"/>
        <pt x="149" y="222" on="1"/>
        <pt x="120" y="167" on="0"/>
        <pt x="61" y="55" on="0"/>
        <pt x="33" y="0" on="1"/>
        <pt x="5" y="0" on="1"/>
        <pt x="85" y="154" on="0"/>
        <pt x="253" y="470" on="0"/>
        <pt x="339" y="624" on="1"/>
        <pt x="383" y="624" on="1"/>
        <pt x="407" y="469" on="0"/>
        <pt x="452" y="155" on="0"/>
        <pt x="470" y="1" on="1"/>
      </contour>
      <contour>
        <pt x="353" y="600" on="1"/>
        <pt x="304" y="512" on="0"/>
        <pt x="208" y="333" on="0"/>
        <pt x="161" y="244" on="1"/>
        <pt x="413" y="244" on="1"/>
        <pt x="400" y="333" on="0"/>
        <pt x="374" y="512" on="0"/>
        <pt x="361" y="600" on="1"/>
      </contour>
    </TTGlyph>
    <TTGlyph name="A.sc" xMin="6" yMin="-1" xMax="408" yMax="525">
      <contour>
        <pt x="383" y="-1" on="1"/>
        <pt x="377" y="45" on="0"/>
        <pt x="365" y="138" on="0"/>
        <pt x="358" y="184" on="1"/>
        <pt x="131" y="184" on="1"/>
        <pt x="106" y="138" on="0"/>
        <pt x="57" y="46" on="0"/>
        <pt x="33" y="0" on="1"/>
        <pt x="6" y="0" on="1"/>
        <pt x="74" y="130" on="0"/>
        <pt x="218" y="395" on="0"/>
        <pt x="292" y="525" on="1"/>
        <pt x="334" y="525" on="1"/>
        <pt x="354" y="394" on="0"/>
        <pt x="393" y="131" on="0"/>
        <pt x="408" y="1" on="1"/>
      </contour>
      <contour>
        <pt x="306" y="501" on="1"/>
        <pt x="265" y="428" on="0"/>
        <pt x="183" y="280" on="0"/>
        <pt x="143" y="206" on="1"/>
        <pt x="355" y="206" on="1"/>
        <pt x="345" y="279" on="0"/>
        <pt x="323" y="428" on="0"/>
        <pt x="312" y="501" on="1"/>
      </contour>
    </TTGlyph>
    <TTGlyph name="AE" xMin="-11" yMin="0" xMax="847" yMax="620">
      <contour>
        <pt x="496" y="596" on="1"/>
        <pt x="421" y="506" on="0"/>
        <pt x="274" y="324" on="0"/>
        <pt x="203" y="234" on="1"/>
        <pt x="433" y="234" on="1"/>
        <pt x="503" y="596" on="1"/>
      </contour>
      <contour>
        <pt x="388" y="0" on="1"/>
        <pt x="429" y="212" on="1"/>
        <pt x="185" y="212" on="1"/>
        <pt x="143" y="159" on="0"/>
        <pt x="59" y="52" on="0"/>
        <pt x="18" y="0" on="1"/>
        <pt x="-11" y="0" on="1"/>
        <pt x="107" y="152" on="0"/>
        <pt x="359" y="466" on="0"/>
        <pt x="486" y="620" on="1"/>
        <pt x="847" y="620" on="1"/>
        <pt x="843" y="596" on="1"/>
        <pt x="530" y="596" on="1"/>
        <pt x="478" y="327" on="1"/>
        <pt x="745" y="327" on="1"/>
        <pt x="741" y="305" on="1"/>
        <pt x="474" y="305" on="1"/>
        <pt x="420" y="24" on="1"/>
        <pt x="731" y="24" on="1"/>
        <pt x="726" y="0" on="1"/>
      </contour>
    </TTGlyph>
    <TTGlyph name="AE.sc" xMin="-10" yMin="0" xMax="727" yMax="521">
      <contour>
        <pt x="425" y="497" on="1"/>
        <pt x="359" y="419" on="0"/>
        <pt x="231" y="263" on="0"/>
        <pt x="168" y="185" on="1"/>
        <pt x="370" y="185" on="1"/>
        <pt x="431" y="497" on="1"/>
      </contour>
      <contour>
        <pt x="334" y="0" on="1"/>
        <pt x="366" y="163" on="1"/>
        <pt x="150" y="163" on="1"/>
        <pt x="117" y="123" on="0"/>
        <pt x="52" y="40" on="0"/>
        <pt x="19" y="0" on="1"/>
        <pt x="-10" y="0" on="1"/>
        <pt x="91" y="128" on="0"/>
        <pt x="307" y="392" on="0"/>
        <pt x="416" y="521" on="1"/>
        <pt x="727" y="521" on="1"/>
        <pt x="723" y="497" on="1"/>
        <pt x="457" y="497" on="1"/>
        <pt x="414" y="276" on="1"/>
        <pt x="641" y="276" on="1"/>
        <pt x="637" y="254" on="1"/>
        <pt x="410" y="254" on="1"/>
        <pt x="366" y="24" on="1"/>
        <pt x="630" y="24" on="1"/>
        <pt x="625" y="0" on="1"/>
      </contour>
    </TTGlyph>
    <TTGlyph name="AEacute" xMin="-11" yMin="0" xMax="847" yMax="884">
      <contour>
        <pt x="554" y="712" on="1"/>
        <pt x="601" y="746" on="0"/>
        <pt x="704" y="844" on="0"/>
        <pt x="739" y="884" on="1"/>
        <pt x="765" y="860" on="1"/>
        <pt x="724" y="821" on="0"/>
        <pt x="613" y="734" on="0"/>
        <pt x="563" y="700" on="1"/>
      </contour>
      <contour>
        <pt x="496" y="596" on="1"/>
        <pt x="421" y="506" on="0"/>
        <pt x="274" y="324" on="0"/>
        <pt x="203" y="234" on="1"/>
        <pt x="433" y="234" on="1"/>
        <pt x="503" y="596" on="1"/>
      </contour>
      <contour>
        <pt x="388" y="0" on="1"/>
        <pt x="429" y="212" on="1"/>
        <pt x="185" y="212" on="1"/>
        <pt x="143" y="159" on="0"/>
        <pt x="59" y="52" on="0"/>
        <pt x="18" y="0" on="1"/>
        <pt x="-11" y="0" on="1"/>
        <pt x="107" y="152" on="0"/>
        <pt x="359" y="466" on="0"/>
        <pt x="486" y="620" on="1"/>
        <pt x="847" y="620" on="1"/>
        <pt x="843" y="596" on="1"/>
        <pt x="530" y="596" on="1"/>
        <pt x="478" y="327" on="1"/>
        <pt x="745" y="327" on="1"/>
        <pt x="741" y="305" on="1"/>
        <pt x="474" y="305" on="1"/>
        <pt x="420" y="24" on="1"/>
        <pt x="731" y="24" on="1"/>
        <pt x="726" y="0" on="1"/>
      </contour>
    </TTGlyph>
    <TTGlyph name="AEacute.sc" xMin="-10" yMin="0" xMax="727" yMax="785">
      <contour>
        <pt x="459" y="613" on="1"/>
        <pt x="506" y="647" on="0"/>
        <pt x="609" y="745" on="0"/>
        <pt x="644" y="785" on="1"/>
        <pt x="670" y="761" on="1"/>
        <pt x="629" y="722" on="0"/>
        <pt x="518" y="635" on="0"/>
        <pt x="468" y="601" on="1"/>
      </contour>
      <contour>
        <pt x="425" y="497" on="1"/>
        <pt x="359" y="419" on="0"/>
        <pt x="231" y="263" on="0"/>
        <pt x="168" y="185" on="1"/>
        <pt x="370" y="185" on="1"/>
        <pt x="431" y="497" on="1"/>
      </contour>
      <contour>
        <pt x="334" y="0" on="1"/>
        <pt x="366" y="163" on="1"/>
        <pt x="150" y="163" on="1"/>
        <pt x="117" y="123" on="0"/>
        <pt x="52" y="40" on="0"/>
        <pt x="19" y="0" on="1"/>
        <pt x="-10" y="0" on="1"/>
        <pt x="91" y="128" on="0"/>
        <pt x="307" y="392" on="0"/>
        <pt x="416" y="521" on="1"/>
        <pt x="727" y="521" on="1"/>
        <pt x="723" y="497" on="1"/>
        <pt x="457" y="497" on="1"/>
        <pt x="414" y="276" on="1"/>
        <pt x="641" y="276" on="1"/>
        <pt x="637" y="254" on="1"/>
        <pt x="410" y="254" on="1"/>
        <pt x="366" y="24" on="1"/>
        <pt x="630" y="24" on="1"/>
        <pt x="625" y="0" on="1"/>
      </contour>
    </TTGlyph>
    <TTGlyph name="Aacute" xMin="5" yMin="-1" xMax="505" yMax="888">
      <contour>
        <pt x="294" y="716" on="1"/>
        <pt x="341" y="750" on="0"/>
        <pt x="444" y="848" on="0"/>
        <pt x="479" y="888" on="1"/>
        <pt x="505" y="864" on="1"/>
        <pt x="464" y="825" on="0"/>
        <pt x="353" y="738" on="0"/>
        <pt x="303" y="704" on="1"/>
      </contour>
      <contour>
        <pt x="445" y="-1" on="1"/>
        <pt x="438" y="54" on="0"/>
        <pt x="423" y="166" on="0"/>
        <pt x="416" y="222" on="1"/>
        <pt x="149" y="222" on="1"/>
        <pt x="120" y="167" on="0"/>
        <pt x="61" y="55" on="0"/>
        <pt x="33" y="0" on="1"/>
        <pt x="5" y="0" on="1"/>
        <pt x="85" y="154" on="0"/>
        <pt x="253" y="470" on="0"/>
        <pt x="339" y="624" on="1"/>
        <pt x="383" y="624" on="1"/>
        <pt x="407" y="469" on="0"/>
        <pt x="452" y="155" on="0"/>
        <pt x="470" y="1" on="1"/>
      </contour>
      <contour>
        <pt x="353" y="600" on="1"/>
        <pt x="304" y="512" on="0"/>
        <pt x="208" y="333" on="0"/>
        <pt x="161" y="244" on="1"/>
        <pt x="413" y="244" on="1"/>
        <pt x="400" y="333" on="0"/>
        <pt x="374" y="512" on="0"/>
        <pt x="361" y="600" on="1"/>
      </contour>
    </TTGlyph>
    <TTGlyph name="Aacute.sc" xMin="6" yMin="-1" xMax="458" yMax="789">
      <contour>
        <pt x="247" y="617" on="1"/>
        <pt x="294" y="651" on="0"/>
        <pt x="397" y="749" on="0"/>
        <pt x="432" y="789" on="1"/>
        <pt x="458" y="765" on="1"/>
        <pt x="417" y="726" on="0"/>
        <pt x="306" y="639" on="0"/>
        <pt x="256" y="605" on="1"/>
      </contour>
      <contour>
        <pt x="383" y="-1" on="1"/>
        <pt x="377" y="45" on="0"/>
        <pt x="365" y="138" on="0"/>
        <pt x="358" y="184" on="1"/>
        <pt x="131" y="184" on="1"/>
        <pt x="106" y="138" on="0"/>
        <pt x="57" y="46" on="0"/>
        <pt x="33" y="0" on="1"/>
        <pt x="6" y="0" on="1"/>
        <pt x="74" y="130" on="0"/>
        <pt x="218" y="395" on="0"/>
        <pt x="292" y="525" on="1"/>
        <pt x="334" y="525" on="1"/>
        <pt x="354" y="394" on="0"/>
        <pt x="393" y="131" on="0"/>
        <pt x="408" y="1" on="1"/>
      </contour>
      <contour>
        <pt x="306" y="501" on="1"/>
        <pt x="265" y="428" on="0"/>
        <pt x="183" y="280" on="0"/>
        <pt x="143" y="206" on="1"/>
        <pt x="355" y="206" on="1"/>
        <pt x="345" y="279" on="0"/>
        <pt x="323" y="428" on="0"/>
        <pt x="312" y="501" on="1"/>
      </contour>
    </TTGlyph>
    <TTGlyph name="Abreve" xMin="5" yMin="-1" xMax="561" yMax="867">
      <contour>
        <pt x="545" y="866" on="1"/>
        <pt x="561" y="854" on="1"/>
        <pt x="515" y="788" on="0"/>
        <pt x="428" y="714" on="0"/>
        <pt x="382" y="714" on="1"/>
        <pt x="339" y="714" on="0"/>
        <pt x="276" y="784" on="0"/>
        <pt x="251" y="859" on="1"/>
        <pt x="273" y="867" on="1"/>
        <pt x="298" y="796" on="0"/>
        <pt x="349" y="737" on="0"/>
        <pt x="386" y="737" on="1"/>
        <pt x="427" y="737" on="0"/>
        <pt x="501" y="805" on="0"/>
      </contour>
      <contour>
        <pt x="445" y="-1" on="1"/>
        <pt x="438" y="54" on="0"/>
        <pt x="423" y="166" on="0"/>
        <pt x="416" y="222" on="1"/>
        <pt x="149" y="222" on="1"/>
        <pt x="120" y="167" on="0"/>
        <pt x="61" y="55" on="0"/>
        <pt x="33" y="0" on="1"/>
        <pt x="5" y="0" on="1"/>
        <pt x="85" y="154" on="0"/>
        <pt x="253" y="470" on="0"/>
        <pt x="339" y="624" on="1"/>
        <pt x="383" y="624" on="1"/>
        <pt x="407" y="469" on="0"/>
        <pt x="452" y="155" on="0"/>
        <pt x="470" y="1" on="1"/>
      </contour>
      <contour>
        <pt x="353" y="600" on="1"/>
        <pt x="304" y="512" on="0"/>
        <pt x="208" y="333" on="0"/>
        <pt x="161" y="244" on="1"/>
        <pt x="413" y="244" on="1"/>
        <pt x="400" y="333" on="0"/>
        <pt x="374" y="512" on="0"/>
        <pt x="361" y="600" on="1"/>
      </contour>
    </TTGlyph>
    <TTGlyph name="Abreve.sc" xMin="6" yMin="-1" xMax="514" yMax="768">
      <contour>
        <pt x="498" y="767" on="1"/>
        <pt x="514" y="755" on="1"/>
        <pt x="468" y="689" on="0"/>
        <pt x="381" y="615" on="0"/>
        <pt x="335" y="615" on="1"/>
        <pt x="292" y="615" on="0"/>
        <pt x="229" y="685" on="0"/>
        <pt x="204" y="760" on="1"/>
        <pt x="226" y="768" on="1"/>
        <pt x="251" y="697" on="0"/>
        <pt x="302" y="638" on="0"/>
        <pt x="339" y="638" on="1"/>
        <pt x="380" y="638" on="0"/>
        <pt x="454" y="706" on="0"/>
      </contour>
      <contour>
        <pt x="383" y="-1" on="1"/>
        <pt x="377" y="45" on="0"/>
        <pt x="365" y="138" on="0"/>
        <pt x="358" y="184" on="1"/>
        <pt x="131" y="184" on="1"/>
        <pt x="106" y="138" on="0"/>
        <pt x="57" y="46" on="0"/>
        <pt x="33" y="0" on="1"/>
        <pt x="6" y="0" on="1"/>
        <pt x="74" y="130" on="0"/>
        <pt x="218" y="395" on="0"/>
        <pt x="292" y="525" on="1"/>
        <pt x="334" y="525" on="1"/>
        <pt x="354" y="394" on="0"/>
        <pt x="393" y="131" on="0"/>
        <pt x="408" y="1" on="1"/>
      </contour>
      <contour>
        <pt x="306" y="501" on="1"/>
        <pt x="265" y="428" on="0"/>
        <pt x="183" y="280" on="0"/>
        <pt x="143" y="206" on="1"/>
        <pt x="355" y="206" on="1"/>
        <pt x="345" y="279" on="0"/>
        <pt x="323" y="428" on="0"/>
        <pt x="312" y="501" on="1"/>
      </contour>
    </TTGlyph>
    <TTGlyph name="Acircumflex" xMin="5" yMin="-1" xMax="525" yMax="875">
      <contour>
        <pt x="506" y="707" on="1"/>
        <pt x="408" y="843" on="1"/>
        <pt x="248" y="711" on="1"/>
        <pt x="234" y="728" on="1"/>
        <pt x="412" y="875" on="1"/>
        <pt x="413" y="875" on="1"/>
        <pt x="525" y="722" on="1"/>
      </contour>
      <contour>
        <pt x="445" y="-1" on="1"/>
        <pt x="438" y="54" on="0"/>
        <pt x="423" y="166" on="0"/>
        <pt x="416" y="222" on="1"/>
        <pt x="149" y="222" on="1"/>
        <pt x="120" y="167" on="0"/>
        <pt x="61" y="55" on="0"/>
        <pt x="33" y="0" on="1"/>
        <pt x="5" y="0" on="1"/>
        <pt x="85" y="154" on="0"/>
        <pt x="253" y="470" on="0"/>
        <pt x="339" y="624" on="1"/>
        <pt x="383" y="624" on="1"/>
        <pt x="407" y="469" on="0"/>
        <pt x="452" y="155" on="0"/>
        <pt x="470" y="1" on="1"/>
      </contour>
      <contour>
        <pt x="353" y="600" on="1"/>
        <pt x="304" y="512" on="0"/>
        <pt x="208" y="333" on="0"/>
        <pt x="161" y="244" on="1"/>
        <pt x="413" y="244" on="1"/>
        <pt x="400" y="333" on="0"/>
        <pt x="374" y="512" on="0"/>
        <pt x="361" y="600" on="1"/>
      </contour>
    </TTGlyph>
    <TTGlyph name="Acircumflex.sc" xMin="6" yMin="-1" xMax="478" yMax="776">
      <contour>
        <pt x="459" y="608" on="1"/>
        <pt x="361" y="744" on="1"/>
        <pt x="201" y="612" on="1"/>
        <pt x="187" y="629" on="1"/>
        <pt x="365" y="776" on="1"/>
        <pt x="366" y="776" on="1"/>
        <pt x="478" y="623" on="1"/>
      </contour>
      <contour>
        <pt x="383" y="-1" on="1"/>
        <pt x="377" y="45" on="0"/>
        <pt x="365" y="138" on="0"/>
        <pt x="358" y="184" on="1"/>
        <pt x="131" y="184" on="1"/>
        <pt x="106" y="138" on="0"/>
        <pt x="57" y="46" on="0"/>
        <pt x="33" y="0" on="1"/>
        <pt x="6" y="0" on="1"/>
        <pt x="74" y="130" on="0"/>
        <pt x="218" y="395" on="0"/>
        <pt x="292" y="525" on="1"/>
        <pt x="334" y="525" on="1"/>
        <pt x="354" y="394" on="0"/>
        <pt x="393" y="131" on="0"/>
        <pt x="408" y="1" on="1"/>
      </contour>
      <contour>
        <pt x="306" y="501" on="1"/>
        <pt x="265" y="428" on="0"/>
        <pt x="183" y="280" on="0"/>
        <pt x="143" y="206" on="1"/>
        <pt x="355" y="206" on="1"/>
        <pt x="345" y="279" on="0"/>
        <pt x="323" y="428" on="0"/>
        <pt x="312" y="501" on="1"/>
      </contour>
    </TTGlyph>
    <TTGlyph name="Adieresis" xMin="5" yMin="-1" xMax="515" yMax="843">
      <contour>
        <pt x="479" y="714" on="1"/>
        <pt x="457" y="713" on="1"/>
        <pt x="487" y="842" on="1"/>
        <pt x="515" y="843" on="1"/>
      </contour>
      <contour>
        <pt x="287" y="711" on="1"/>
        <pt x="265" y="710" on="1"/>
        <pt x="295" y="839" on="1"/>
        <pt x="323" y="840" on="1"/>
      </contour>
      <contour>
        <pt x="445" y="-1" on="1"/>
        <pt x="438" y="54" on="0"/>
        <pt x="423" y="166" on="0"/>
        <pt x="416" y="222" on="1"/>
        <pt x="149" y="222" on="1"/>
        <pt x="120" y="167" on="0"/>
        <pt x="61" y="55" on="0"/>
        <pt x="33" y="0" on="1"/>
        <pt x="5" y="0" on="1"/>
        <pt x="85" y="154" on="0"/>
        <pt x="253" y="470" on="0"/>
        <pt x="339" y="624" on="1"/>
        <pt x="383" y="624" on="1"/>
        <pt x="407" y="469" on="0"/>
        <pt x="452" y="155" on="0"/>
        <pt x="470" y="1" on="1"/>
      </contour>
      <contour>
        <pt x="353" y="600" on="1"/>
        <pt x="304" y="512" on="0"/>
        <pt x="208" y="333" on="0"/>
        <pt x="161" y="244" on="1"/>
        <pt x="413" y="244" on="1"/>
        <pt x="400" y="333" on="0"/>
        <pt x="374" y="512" on="0"/>
        <pt x="361" y="600" on="1"/>
      </contour>
    </TTGlyph>
    <TTGlyph name="Adieresis.sc" xMin="6" yMin="-1" xMax="469" yMax="744">
      <contour>
        <pt x="433" y="615" on="1"/>
        <pt x="411" y="614" on="1"/>
        <pt x="441" y="743" on="1"/>
        <pt x="469" y="744" on="1"/>
      </contour>
      <contour>
        <pt x="241" y="612" on="1"/>
        <pt x="219" y="611" on="1"/>
        <pt x="249" y="740" on="1"/>
        <pt x="277" y="741" on="1"/>
      </contour>
      <contour>
        <pt x="383" y="-1" on="1"/>
        <pt x="377" y="45" on="0"/>
        <pt x="365" y="138" on="0"/>
        <pt x="358" y="184" on="1"/>
        <pt x="131" y="184" on="1"/>
        <pt x="106" y="138" on="0"/>
        <pt x="57" y="46" on="0"/>
        <pt x="33" y="0" on="1"/>
        <pt x="6" y="0" on="1"/>
        <pt x="74" y="130" on="0"/>
        <pt x="218" y="395" on="0"/>
        <pt x="292" y="525" on="1"/>
        <pt x="334" y="525" on="1"/>
        <pt x="354" y="394" on="0"/>
        <pt x="393" y="131" on="0"/>
        <pt x="408" y="1" on="1"/>
      </contour>
      <contour>
        <pt x="306" y="501" on="1"/>
        <pt x="265" y="428" on="0"/>
        <pt x="183" y="280" on="0"/>
        <pt x="143" y="206" on="1"/>
        <pt x="355" y="206" on="1"/>
        <pt x="345" y="279" on="0"/>
        <pt x="323" y="428" on="0"/>
        <pt x="312" y="501" on="1"/>
      </contour>
    </TTGlyph>
    <TTGlyph name="Agrave" xMin="5" yMin="-1" xMax="470" yMax="895">
      <contour>
        <pt x="449" y="706" on="1"/>
        <pt x="438" y="694" on="1"/>
        <pt x="401" y="728" on="0"/>
        <pt x="315" y="829" on="0"/>
        <pt x="285" y="875" on="1"/>
        <pt x="315" y="895" on="1"/>
        <pt x="339" y="851" on="0"/>
        <pt x="415" y="742" on="0"/>
      </contour>
      <contour>
        <pt x="445" y="-1" on="1"/>
        <pt x="438" y="54" on="0"/>
        <pt x="423" y="166" on="0"/>
        <pt x="416" y="222" on="1"/>
        <pt x="149" y="222" on="1"/>
        <pt x="120" y="167" on="0"/>
        <pt x="61" y="55" on="0"/>
        <pt x="33" y="0" on="1"/>
        <pt x="5" y="0" on="1"/>
        <pt x="85" y="154" on="0"/>
        <pt x="253" y="470" on="0"/>
        <pt x="339" y="624" on="1"/>
        <pt x="383" y="624" on="1"/>
        <pt x="407" y="469" on="0"/>
        <pt x="452" y="155" on="0"/>
        <pt x="470" y="1" on="1"/>
      </contour>
      <contour>
        <pt x="353" y="600" on="1"/>
        <pt x="304" y="512" on="0"/>
        <pt x="208" y="333" on="0"/>
        <pt x="161" y="244" on="1"/>
        <pt x="413" y="244" on="1"/>
        <pt x="400" y="333" on="0"/>
        <pt x="374" y="512" on="0"/>
        <pt x="361" y="600" on="1"/>
      </contour>
    </TTGlyph>
    <TTGlyph name="Agrave.sc" xMin="6" yMin="-1" xMax="408" yMax="796">
      <contour>
        <pt x="402" y="607" on="1"/>
        <pt x="391" y="595" on="1"/>
        <pt x="354" y="629" on="0"/>
        <pt x="268" y="730" on="0"/>
        <pt x="238" y="776" on="1"/>
        <pt x="268" y="796" on="1"/>
        <pt x="292" y="752" on="0"/>
        <pt x="368" y="643" on="0"/>
      </contour>
      <contour>
        <pt x="383" y="-1" on="1"/>
        <pt x="377" y="45" on="0"/>
        <pt x="365" y="138" on="0"/>
        <pt x="358" y="184" on="1"/>
        <pt x="131" y="184" on="1"/>
        <pt x="106" y="138" on="0"/>
        <pt x="57" y="46" on="0"/>
        <pt x="33" y="0" on="1"/>
        <pt x="6" y="0" on="1"/>
        <pt x="74" y="130" on="0"/>
        <pt x="218" y="395" on="0"/>
        <pt x="292" y="525" on="1"/>
        <pt x="334" y="525" on="1"/>
        <pt x="354" y="394" on="0"/>
        <pt x="393" y="131" on="0"/>
        <pt x="408" y="1" on="1"/>
      </contour>
      <contour>
        <pt x="306" y="501" on="1"/>
        <pt x="265" y="428" on="0"/>
        <pt x="183" y="280" on="0"/>
        <pt x="143" y="206" on="1"/>
        <pt x="355" y="206" on="1"/>
        <pt x="345" y="279" on="0"/>
        <pt x="323" y="428" on="0"/>
        <pt x="312" y="501" on="1"/>
      </contour>
    </TTGlyph>
    <TTGlyph name="Amacron" xMin="5" yMin="-1" xMax="535" yMax="791">
      <contour>
        <pt x="535" y="791" on="1"/>
        <pt x="531" y="769" on="1"/>
        <pt x="248" y="769" on="1"/>
        <pt x="252" y="791" on="1"/>
      </contour>
      <contour>
        <pt x="445" y="-1" on="1"/>
        <pt x="438" y="54" on="0"/>
        <pt x="423" y="166" on="0"/>
        <pt x="416" y="222" on="1"/>
        <pt x="149" y="222" on="1"/>
        <pt x="120" y="167" on="0"/>
        <pt x="61" y="55" on="0"/>
        <pt x="33" y="0" on="1"/>
        <pt x="5" y="0" on="1"/>
        <pt x="85" y="154" on="0"/>
        <pt x="253" y="470" on="0"/>
        <pt x="339" y="624" on="1"/>
        <pt x="383" y="624" on="1"/>
        <pt x="407" y="469" on="0"/>
        <pt x="452" y="155" on="0"/>
        <pt x="470" y="1" on="1"/>
      </contour>
      <contour>
        <pt x="353" y="600" on="1"/>
        <pt x="304" y="512" on="0"/>
        <pt x="208" y="333" on="0"/>
        <pt x="161" y="244" on="1"/>
        <pt x="413" y="244" on="1"/>
        <pt x="400" y="333" on="0"/>
        <pt x="374" y="512" on="0"/>
        <pt x="361" y="600" on="1"/>
      </contour>
    </TTGlyph>
    <TTGlyph name="Amacron.sc" xMin="6" yMin="-1" xMax="488" yMax="692">
      <contour>
        <pt x="488" y="692" on="1"/>
        <pt x="484" y="670" on="1"/>
        <pt x="201" y="670" on="1"/>
        <pt x="205" y="692" on="1"/>
      </contour>
      <contour>
        <pt x="383" y="-1" on="1"/>
        <pt x="377" y="45" on="0"/>
        <pt x="365" y="138" on="0"/>
        <pt x="358" y="184" on="1"/>
        <pt x="131" y="184" on="1"/>
        <pt x="106" y="138" on="0"/>
        <pt x="57" y="46" on="0"/>
        <pt x="33" y="0" on="1"/>
        <pt x="6" y="0" on="1"/>
        <pt x="74" y="130" on="0"/>
        <pt x="218" y="395" on="0"/>
        <pt x="292" y="525" on="1"/>
        <pt x="334" y="525" on="1"/>
        <pt x="354" y="394" on="0"/>
        <pt x="393" y="131" on="0"/>
        <pt x="408" y="1" on="1"/>
      </contour>
      <contour>
        <pt x="306" y="501" on="1"/>
        <pt x="265" y="428" on="0"/>
        <pt x="183" y="280" on="0"/>
        <pt x="143" y="206" on="1"/>
        <pt x="355" y="206" on="1"/>
        <pt x="345" y="279" on="0"/>
        <pt x="323" y="428" on="0"/>
        <pt x="312" y="501" on="1"/>
      </contour>
    </TTGlyph>
    <TTGlyph name="Aogonek" xMin="5" yMin="-205" xMax="470" yMax="624">
      <contour>
        <pt x="327" y="-205" on="1"/>
        <pt x="295" y="-205" on="0"/>
        <pt x="262" y="-172" on="0"/>
        <pt x="262" y="-150" on="1"/>
        <pt x="262" y="-116" on="0"/>
        <pt x="349" y="-36" on="0"/>
        <pt x="444" y="8" on="1"/>
        <pt x="437" y="61" on="0"/>
        <pt x="423" y="168" on="0"/>
        <pt x="416" y="222" on="1"/>
        <pt x="149" y="222" on="1"/>
        <pt x="120" y="167" on="0"/>
        <pt x="61" y="55" on="0"/>
        <pt x="33" y="0" on="1"/>
        <pt x="5" y="0" on="1"/>
        <pt x="85" y="154" on="0"/>
        <pt x="253" y="470" on="0"/>
        <pt x="339" y="624" on="1"/>
        <pt x="383" y="624" on="1"/>
        <pt x="407" y="469" on="0"/>
        <pt x="452" y="155" on="0"/>
        <pt x="470" y="1" on="1"/>
        <pt x="374" y="-43" on="0"/>
        <pt x="288" y="-116" on="0"/>
        <pt x="288" y="-145" on="1"/>
        <pt x="288" y="-161" on="0"/>
        <pt x="310" y="-182" on="0"/>
        <pt x="333" y="-182" on="1"/>
        <pt x="350" y="-182" on="0"/>
        <pt x="401" y="-167" on="0"/>
        <pt x="435" y="-151" on="1"/>
        <pt x="441" y="-167" on="1"/>
        <pt x="406" y="-187" on="0"/>
        <pt x="349" y="-205" on="0"/>
      </contour>
      <contour>
        <pt x="353" y="600" on="1"/>
        <pt x="304" y="512" on="0"/>
        <pt x="208" y="333" on="0"/>
        <pt x="161" y="244" on="1"/>
        <pt x="413" y="244" on="1"/>
        <pt x="400" y="333" on="0"/>
        <pt x="374" y="512" on="0"/>
        <pt x="361" y="600" on="1"/>
      </contour>
    </TTGlyph>
    <TTGlyph name="Aogonek.sc" xMin="6" yMin="-205" xMax="408" yMax="525">
      <contour>
        <pt x="265" y="-205" on="1"/>
        <pt x="233" y="-205" on="0"/>
        <pt x="200" y="-172" on="0"/>
        <pt x="200" y="-150" on="1"/>
        <pt x="200" y="-116" on="0"/>
        <pt x="287" y="-36" on="0"/>
        <pt x="382" y="8" on="1"/>
        <pt x="376" y="51" on="0"/>
        <pt x="365" y="140" on="0"/>
        <pt x="358" y="184" on="1"/>
        <pt x="131" y="184" on="1"/>
        <pt x="106" y="138" on="0"/>
        <pt x="57" y="46" on="0"/>
        <pt x="33" y="0" on="1"/>
        <pt x="6" y="0" on="1"/>
        <pt x="74" y="130" on="0"/>
        <pt x="218" y="395" on="0"/>
        <pt x="292" y="525" on="1"/>
        <pt x="334" y="525" on="1"/>
        <pt x="354" y="394" on="0"/>
        <pt x="393" y="131" on="0"/>
        <pt x="408" y="1" on="1"/>
        <pt x="312" y="-43" on="0"/>
        <pt x="226" y="-116" on="0"/>
        <pt x="226" y="-145" on="1"/>
        <pt x="226" y="-161" on="0"/>
        <pt x="248" y="-182" on="0"/>
        <pt x="271" y="-182" on="1"/>
        <pt x="288" y="-182" on="0"/>
        <pt x="339" y="-167" on="0"/>
        <pt x="373" y="-151" on="1"/>
        <pt x="379" y="-167" on="1"/>
        <pt x="344" y="-187" on="0"/>
        <pt x="287" y="-205" on="0"/>
      </contour>
      <contour>
        <pt x="306" y="501" on="1"/>
        <pt x="265" y="428" on="0"/>
        <pt x="183" y="280" on="0"/>
        <pt x="143" y="206" on="1"/>
        <pt x="355" y="206" on="1"/>
        <pt x="345" y="279" on="0"/>
        <pt x="323" y="428" on="0"/>
        <pt x="312" y="501" on="1"/>
      </contour>
    </TTGlyph>
    <TTGlyph name="Aring" xMin="5" yMin="-1" xMax="513" yMax="895">
      <contour>
        <pt x="398" y="895" on="1"/>
        <pt x="447" y="895" on="0"/>
        <pt x="513" y="841" on="0"/>
        <pt x="513" y="798" on="1"/>
        <pt x="513" y="752" on="0"/>
        <pt x="441" y="688" on="0"/>
        <pt x="387" y="688" on="1"/>
        <pt x="338" y="688" on="0"/>
        <pt x="272" y="742" on="0"/>
        <pt x="272" y="785" on="1"/>
        <pt x="272" y="831" on="0"/>
        <pt x="344" y="895" on="0"/>
      </contour>
      <contour>
        <pt x="395" y="875" on="1"/>
        <pt x="352" y="875" on="0"/>
        <pt x="295" y="824" on="0"/>
        <pt x="295" y="788" on="1"/>
        <pt x="295" y="754" on="0"/>
        <pt x="349" y="708" on="0"/>
        <pt x="390" y="708" on="1"/>
        <pt x="433" y="708" on="0"/>
        <pt x="490" y="759" on="0"/>
        <pt x="490" y="795" on="1"/>
        <pt x="490" y="829" on="0"/>
        <pt x="436" y="875" on="0"/>
      </contour>
      <contour>
        <pt x="445" y="-1" on="1"/>
        <pt x="438" y="54" on="0"/>
        <pt x="423" y="166" on="0"/>
        <pt x="416" y="222" on="1"/>
        <pt x="149" y="222" on="1"/>
        <pt x="120" y="167" on="0"/>
        <pt x="61" y="55" on="0"/>
        <pt x="33" y="0" on="1"/>
        <pt x="5" y="0" on="1"/>
        <pt x="85" y="154" on="0"/>
        <pt x="253" y="470" on="0"/>
        <pt x="339" y="624" on="1"/>
        <pt x="383" y="624" on="1"/>
        <pt x="407" y="469" on="0"/>
        <pt x="452" y="155" on="0"/>
        <pt x="470" y="1" on="1"/>
      </contour>
      <contour>
        <pt x="353" y="600" on="1"/>
        <pt x="304" y="512" on="0"/>
        <pt x="208" y="333" on="0"/>
        <pt x="161" y="244" on="1"/>
        <pt x="413" y="244" on="1"/>
        <pt x="400" y="333" on="0"/>
        <pt x="374" y="512" on="0"/>
        <pt x="361" y="600" on="1"/>
      </contour>
    </TTGlyph>
    <TTGlyph name="Aring.sc" xMin="6" yMin="-1" xMax="466" yMax="796">
      <contour>
        <pt x="351" y="796" on="1"/>
        <pt x="400" y="796" on="0"/>
        <pt x="466" y="742" on="0"/>
        <pt x="466" y="699" on="1"/>
        <pt x="466" y="653" on="0"/>
        <pt x="394" y="589" on="0"/>
        <pt x="340" y="589" on="1"/>
        <pt x="291" y="589" on="0"/>
        <pt x="225" y="643" on="0"/>
        <pt x="225" y="686" on="1"/>
        <pt x="225" y="732" on="0"/>
        <pt x="297" y="796" on="0"/>
      </contour>
      <contour>
        <pt x="348" y="776" on="1"/>
        <pt x="305" y="776" on="0"/>
        <pt x="248" y="725" on="0"/>
        <pt x="248" y="689" on="1"/>
        <pt x="248" y="655" on="0"/>
        <pt x="302" y="609" on="0"/>
        <pt x="343" y="609" on="1"/>
        <pt x="386" y="609" on="0"/>
        <pt x="443" y="660" on="0"/>
        <pt x="443" y="696" on="1"/>
        <pt x="443" y="730" on="0"/>
        <pt x="389" y="776" on="0"/>
      </contour>
      <contour>
        <pt x="383" y="-1" on="1"/>
        <pt x="377" y="45" on="0"/>
        <pt x="365" y="138" on="0"/>
        <pt x="358" y="184" on="1"/>
        <pt x="131" y="184" on="1"/>
        <pt x="106" y="138" on="0"/>
        <pt x="57" y="46" on="0"/>
        <pt x="33" y="0" on="1"/>
        <pt x="6" y="0" on="1"/>
        <pt x="74" y="130" on="0"/>
        <pt x="218" y="395" on="0"/>
        <pt x="292" y="525" on="1"/>
        <pt x="334" y="525" on="1"/>
        <pt x="354" y="394" on="0"/>
        <pt x="393" y="131" on="0"/>
        <pt x="408" y="1" on="1"/>
      </contour>
      <contour>
        <pt x="306" y="501" on="1"/>
        <pt x="265" y="428" on="0"/>
        <pt x="183" y="280" on="0"/>
        <pt x="143" y="206" on="1"/>
        <pt x="355" y="206" on="1"/>
        <pt x="345" y="279" on="0"/>
        <pt x="323" y="428" on="0"/>
        <pt x="312" y="501" on="1"/>
      </contour>
    </TTGlyph>
    <TTGlyph name="Aringacute" xMin="5" yMin="-1" xMax="553" yMax="1133">
      <contour>
        <pt x="342" y="961" on="1"/>
        <pt x="389" y="995" on="0"/>
        <pt x="492" y="1093" on="0"/>
        <pt x="527" y="1133" on="1"/>
        <pt x="553" y="1109" on="1"/>
        <pt x="512" y="1070" on="0"/>
        <pt x="401" y="983" on="0"/>
        <pt x="351" y="949" on="1"/>
      </contour>
      <contour>
        <pt x="398" y="895" on="1"/>
        <pt x="447" y="895" on="0"/>
        <pt x="513" y="841" on="0"/>
        <pt x="513" y="798" on="1"/>
        <pt x="513" y="752" on="0"/>
        <pt x="441" y="688" on="0"/>
        <pt x="387" y="688" on="1"/>
        <pt x="338" y="688" on="0"/>
        <pt x="272" y="742" on="0"/>
        <pt x="272" y="785" on="1"/>
        <pt x="272" y="831" on="0"/>
        <pt x="344" y="895" on="0"/>
      </contour>
      <contour>
        <pt x="395" y="875" on="1"/>
        <pt x="352" y="875" on="0"/>
        <pt x="295" y="824" on="0"/>
        <pt x="295" y="788" on="1"/>
        <pt x="295" y="754" on="0"/>
        <pt x="349" y="708" on="0"/>
        <pt x="390" y="708" on="1"/>
        <pt x="433" y="708" on="0"/>
        <pt x="490" y="759" on="0"/>
        <pt x="490" y="795" on="1"/>
        <pt x="490" y="829" on="0"/>
        <pt x="436" y="875" on="0"/>
      </contour>
      <contour>
        <pt x="445" y="-1" on="1"/>
        <pt x="438" y="54" on="0"/>
        <pt x="423" y="166" on="0"/>
        <pt x="416" y="222" on="1"/>
        <pt x="149" y="222" on="1"/>
        <pt x="120" y="167" on="0"/>
        <pt x="61" y="55" on="0"/>
        <pt x="33" y="0" on="1"/>
        <pt x="5" y="0" on="1"/>
        <pt x="85" y="154" on="0"/>
        <pt x="253" y="470" on="0"/>
        <pt x="339" y="624" on="1"/>
        <pt x="383" y="624" on="1"/>
        <pt x="407" y="469" on="0"/>
        <pt x="452" y="155" on="0"/>
        <pt x="470" y="1" on="1"/>
      </contour>
      <contour>
        <pt x="353" y="600" on="1"/>
        <pt x="304" y="512" on="0"/>
        <pt x="208" y="333" on="0"/>
        <pt x="161" y="244" on="1"/>
        <pt x="413" y="244" on="1"/>
        <pt x="400" y="333" on="0"/>
        <pt x="374" y="512" on="0"/>
        <pt x="361" y="600" on="1"/>
      </contour>
    </TTGlyph>
    <TTGlyph name="Aringacute.sc" xMin="6" yMin="-1" xMax="506" yMax="1034">
      <contour>
        <pt x="295" y="862" on="1"/>
        <pt x="342" y="896" on="0"/>
        <pt x="445" y="994" on="0"/>
        <pt x="480" y="1034" on="1"/>
        <pt x="506" y="1010" on="1"/>
        <pt x="465" y="971" on="0"/>
        <pt x="354" y="884" on="0"/>
        <pt x="304" y="850" on="1"/>
      </contour>
      <contour>
        <pt x="351" y="796" on="1"/>
        <pt x="400" y="796" on="0"/>
        <pt x="466" y="742" on="0"/>
        <pt x="466" y="699" on="1"/>
        <pt x="466" y="653" on="0"/>
        <pt x="394" y="589" on="0"/>
        <pt x="340" y="589" on="1"/>
        <pt x="291" y="589" on="0"/>
        <pt x="225" y="643" on="0"/>
        <pt x="225" y="686" on="1"/>
        <pt x="225" y="732" on="0"/>
        <pt x="297" y="796" on="0"/>
      </contour>
      <contour>
        <pt x="348" y="776" on="1"/>
        <pt x="305" y="776" on="0"/>
        <pt x="248" y="725" on="0"/>
        <pt x="248" y="689" on="1"/>
        <pt x="248" y="655" on="0"/>
        <pt x="302" y="609" on="0"/>
        <pt x="343" y="609" on="1"/>
        <pt x="386" y="609" on="0"/>
        <pt x="443" y="660" on="0"/>
        <pt x="443" y="696" on="1"/>
        <pt x="443" y="730" on="0"/>
        <pt x="389" y="776" on="0"/>
      </contour>
      <contour>
        <pt x="383" y="-1" on="1"/>
        <pt x="377" y="45" on="0"/>
        <pt x="365" y="138" on="0"/>
        <pt x="358" y="184" on="1"/>
        <pt x="131" y="184" on="1"/>
        <pt x="106" y="138" on="0"/>
        <pt x="57" y="46" on="0"/>
        <pt x="33" y="0" on="1"/>
        <pt x="6" y="0" on="1"/>
        <pt x="74" y="130" on="0"/>
        <pt x="218" y="395" on="0"/>
        <pt x="292" y="525" on="1"/>
        <pt x="334" y="525" on="1"/>
        <pt x="354" y="394" on="0"/>
        <pt x="393" y="131" on="0"/>
        <pt x="408" y="1" on="1"/>
      </contour>
      <contour>
        <pt x="306" y="501" on="1"/>
        <pt x="265" y="428" on="0"/>
        <pt x="183" y="280" on="0"/>
        <pt x="143" y="206" on="1"/>
        <pt x="355" y="206" on="1"/>
        <pt x="345" y="279" on="0"/>
        <pt x="323" y="428" on="0"/>
        <pt x="312" y="501" on="1"/>
      </contour>
    </TTGlyph>
    <TTGlyph name="Atilde" xMin="5" yMin="-1" xMax="579" yMax="861">
      <contour>
        <pt x="455" y="737" on="1"/>
        <pt x="480" y="737" on="0"/>
        <pt x="533" y="811" on="0"/>
        <pt x="561" y="861" on="1"/>
        <pt x="579" y="851" on="1"/>
        <pt x="542" y="784" on="0"/>
        <pt x="482" y="716" on="0"/>
        <pt x="450" y="716" on="1"/>
        <pt x="426" y="716" on="0"/>
        <pt x="397" y="754" on="0"/>
        <pt x="375" y="800" on="0"/>
        <pt x="351" y="838" on="0"/>
        <pt x="332" y="838" on="1"/>
        <pt x="307" y="838" on="0"/>
        <pt x="253" y="772" on="0"/>
        <pt x="225" y="722" on="1"/>
        <pt x="208" y="732" on="1"/>
        <pt x="245" y="799" on="0"/>
        <pt x="305" y="860" on="0"/>
        <pt x="337" y="860" on="1"/>
        <pt x="361" y="860" on="0"/>
        <pt x="390" y="821" on="0"/>
        <pt x="412" y="776" on="0"/>
        <pt x="436" y="737" on="0"/>
      </contour>
      <contour>
        <pt x="445" y="-1" on="1"/>
        <pt x="438" y="54" on="0"/>
        <pt x="423" y="166" on="0"/>
        <pt x="416" y="222" on="1"/>
        <pt x="149" y="222" on="1"/>
        <pt x="120" y="167" on="0"/>
        <pt x="61" y="55" on="0"/>
        <pt x="33" y="0" on="1"/>
        <pt x="5" y="0" on="1"/>
        <pt x="85" y="154" on="0"/>
        <pt x="253" y="470" on="0"/>
        <pt x="339" y="624" on="1"/>
        <pt x="383" y="624" on="1"/>
        <pt x="407" y="469" on="0"/>
        <pt x="452" y="155" on="0"/>
        <pt x="470" y="1" on="1"/>
      </contour>
      <contour>
        <pt x="353" y="600" on="1"/>
        <pt x="304" y="512" on="0"/>
        <pt x="208" y="333" on="0"/>
        <pt x="161" y="244" on="1"/>
        <pt x="413" y="244" on="1"/>
        <pt x="400" y="333" on="0"/>
        <pt x="374" y="512" on="0"/>
        <pt x="361" y="600" on="1"/>
      </contour>
    </TTGlyph>
    <TTGlyph name="Atilde.sc" xMin="6" yMin="-1" xMax="532" yMax="762">
      <contour>
        <pt x="408" y="638" on="1"/>
        <pt x="433" y="638" on="0"/>
        <pt x="486" y="712" on="0"/>
        <pt x="514" y="762" on="1"/>
        <pt x="532" y="752" on="1"/>
        <pt x="495" y="685" on="0"/>
        <pt x="435" y="617" on="0"/>
        <pt x="403" y="617" on="1"/>
        <pt x="379" y="617" on="0"/>
        <pt x="350" y="655" on="0"/>
        <pt x="328" y="701" on="0"/>
        <pt x="304" y="739" on="0"/>
        <pt x="285" y="739" on="1"/>
        <pt x="260" y="739" on="0"/>
        <pt x="206" y="673" on="0"/>
        <pt x="178" y="623" on="1"/>
        <pt x="161" y="633" on="1"/>
        <pt x="198" y="700" on="0"/>
        <pt x="258" y="761" on="0"/>
        <pt x="290" y="761" on="1"/>
        <pt x="314" y="761" on="0"/>
        <pt x="343" y="722" on="0"/>
        <pt x="365" y="677" on="0"/>
        <pt x="389" y="638" on="0"/>
      </contour>
      <contour>
        <pt x="383" y="-1" on="1"/>
        <pt x="377" y="45" on="0"/>
        <pt x="365" y="138" on="0"/>
        <pt x="358" y="184" on="1"/>
        <pt x="131" y="184" on="1"/>
        <pt x="106" y="138" on="0"/>
        <pt x="57" y="46" on="0"/>
        <pt x="33" y="0" on="1"/>
        <pt x="6" y="0" on="1"/>
        <pt x="74" y="130" on="0"/>
        <pt x="218" y="395" on="0"/>
        <pt x="292" y="525" on="1"/>
        <pt x="334" y="525" on="1"/>
        <pt x="354" y="394" on="0"/>
        <pt x="393" y="131" on="0"/>
        <pt x="408" y="1" on="1"/>
      </contour>
      <contour>
        <pt x="306" y="501" on="1"/>
        <pt x="265" y="428" on="0"/>
        <pt x="183" y="280" on="0"/>
        <pt x="143" y="206" on="1"/>
        <pt x="355" y="206" on="1"/>
        <pt x="345" y="279" on="0"/>
        <pt x="323" y="428" on="0"/>
        <pt x="312" y="501" on="1"/>
      </contour>
    </TTGlyph>
    <TTGlyph name="B" xMin="61" yMin="-6" xMax="492" yMax="627">
      <contour>
        <pt x="162" y="-6" on="1"/>
        <pt x="139" y="-6" on="0"/>
        <pt x="88" y="-3" on="0"/>
        <pt x="61" y="0" on="1"/>
        <pt x="181" y="620" on="1"/>
        <pt x="208" y="624" on="0"/>
        <pt x="258" y="627" on="0"/>
        <pt x="280" y="627" on="1"/>
        <pt x="389" y="627" on="0"/>
        <pt x="492" y="553" on="0"/>
        <pt x="492" y="499" on="1"/>
        <pt x="492" y="432" on="0"/>
        <pt x="375" y="331" on="0"/>
        <pt x="277" y="318" on="1"/>
        <pt x="355" y="313" on="0"/>
        <pt x="461" y="237" on="0"/>
        <pt x="461" y="180" on="1"/>
        <pt x="461" y="147" on="0"/>
        <pt x="429" y="80" on="0"/>
        <pt x="359" y="27" on="0"/>
        <pt x="244" y="-6" on="0"/>
      </contour>
      <contour>
        <pt x="278" y="605" on="1"/>
        <pt x="261" y="605" on="0"/>
        <pt x="224" y="603" on="0"/>
        <pt x="204" y="601" on="1"/>
        <pt x="151" y="325" on="1"/>
        <pt x="235" y="327" on="0"/>
        <pt x="355" y="357" on="0"/>
        <pt x="430" y="403" on="0"/>
        <pt x="466" y="462" on="0"/>
        <pt x="466" y="494" on="1"/>
        <pt x="466" y="540" on="0"/>
        <pt x="375" y="605" on="0"/>
      </contour>
      <contour>
        <pt x="172" y="18" on="1"/>
        <pt x="241" y="18" on="0"/>
        <pt x="342" y="45" on="0"/>
        <pt x="405" y="89" on="0"/>
        <pt x="435" y="145" on="0"/>
        <pt x="435" y="174" on="1"/>
        <pt x="435" y="227" on="0"/>
        <pt x="318" y="304" on="0"/>
        <pt x="186" y="304" on="1"/>
        <pt x="177" y="304" on="0"/>
        <pt x="157" y="304" on="0"/>
        <pt x="147" y="303" on="1"/>
        <pt x="92" y="22" on="1"/>
        <pt x="114" y="20" on="0"/>
        <pt x="153" y="18" on="0"/>
      </contour>
    </TTGlyph>
    <TTGlyph name="B.sc" xMin="53" yMin="-5" xMax="426" yMax="527">
      <contour>
        <pt x="145" y="-5" on="1"/>
        <pt x="124" y="-5" on="0"/>
        <pt x="78" y="-3" on="0"/>
        <pt x="53" y="0" on="1"/>
        <pt x="154" y="521" on="1"/>
        <pt x="177" y="524" on="0"/>
        <pt x="220" y="527" on="0"/>
        <pt x="239" y="527" on="1"/>
        <pt x="335" y="527" on="0"/>
        <pt x="426" y="463" on="0"/>
        <pt x="426" y="416" on="1"/>
        <pt x="426" y="359" on="0"/>
        <pt x="330" y="280" on="0"/>
        <pt x="249" y="268" on="1"/>
        <pt x="313" y="261" on="0"/>
        <pt x="399" y="197" on="0"/>
        <pt x="399" y="150" on="1"/>
        <pt x="399" y="121" on="0"/>
        <pt x="372" y="64" on="0"/>
        <pt x="312" y="21" on="0"/>
        <pt x="214" y="-5" on="0"/>
      </contour>
      <contour>
        <pt x="240" y="505" on="1"/>
        <pt x="226" y="505" on="0"/>
        <pt x="194" y="503" on="0"/>
        <pt x="177" y="501" on="1"/>
        <pt x="133" y="274" on="1"/>
        <pt x="274" y="277" on="0"/>
        <pt x="400" y="356" on="0"/>
        <pt x="400" y="411" on="1"/>
        <pt x="400" y="450" on="0"/>
        <pt x="322" y="505" on="0"/>
      </contour>
      <contour>
        <pt x="157" y="18" on="1"/>
        <pt x="271" y="18" on="0"/>
        <pt x="373" y="96" on="0"/>
        <pt x="373" y="145" on="1"/>
        <pt x="373" y="189" on="0"/>
        <pt x="274" y="254" on="0"/>
        <pt x="164" y="254" on="1"/>
        <pt x="156" y="254" on="0"/>
        <pt x="138" y="254" on="0"/>
        <pt x="129" y="253" on="1"/>
        <pt x="84" y="22" on="1"/>
        <pt x="103" y="20" on="0"/>
        <pt x="141" y="18" on="0"/>
      </contour>
    </TTGlyph>
    <TTGlyph name="C" xMin="75" yMin="-13" xMax="524" yMax="633">
      <contour>
        <pt x="390" y="633" on="1"/>
        <pt x="465" y="633" on="0"/>
        <pt x="524" y="541" on="0"/>
        <pt x="524" y="457" on="1"/>
        <pt x="524" y="448" on="0"/>
        <pt x="524" y="430" on="0"/>
        <pt x="523" y="421" on="1"/>
        <pt x="497" y="421" on="1"/>
        <pt x="497" y="448" on="1"/>
        <pt x="497" y="523" on="0"/>
        <pt x="456" y="610" on="0"/>
        <pt x="387" y="610" on="1"/>
        <pt x="326" y="610" on="0"/>
        <pt x="221" y="543" on="0"/>
        <pt x="145" y="434" on="0"/>
        <pt x="102" y="294" on="0"/>
        <pt x="102" y="222" on="1"/>
        <pt x="102" y="116" on="0"/>
        <pt x="203" y="10" on="0"/>
        <pt x="290" y="10" on="1"/>
        <pt x="329" y="10" on="0"/>
        <pt x="418" y="31" on="0"/>
        <pt x="468" y="50" on="1"/>
        <pt x="466" y="22" on="1"/>
        <pt x="417" y="5" on="0"/>
        <pt x="328" y="-13" on="0"/>
        <pt x="290" y="-13" on="1"/>
        <pt x="189" y="-13" on="0"/>
        <pt x="75" y="105" on="0"/>
        <pt x="75" y="216" on="1"/>
        <pt x="75" y="296" on="0"/>
        <pt x="123" y="447" on="0"/>
        <pt x="207" y="563" on="0"/>
        <pt x="323" y="633" on="0"/>
      </contour>
    </TTGlyph>
    <TTGlyph name="C.sc" xMin="59" yMin="-10" xMax="447" yMax="532">
      <contour>
        <pt x="330" y="532" on="1"/>
        <pt x="395" y="532" on="0"/>
        <pt x="447" y="454" on="0"/>
        <pt x="447" y="382" on="1"/>
        <pt x="447" y="375" on="0"/>
        <pt x="447" y="359" on="0"/>
        <pt x="446" y="352" on="1"/>
        <pt x="420" y="352" on="1"/>
        <pt x="420" y="376" on="1"/>
        <pt x="420" y="439" on="0"/>
        <pt x="384" y="509" on="0"/>
        <pt x="327" y="509" on="1"/>
        <pt x="275" y="509" on="0"/>
        <pt x="186" y="453" on="0"/>
        <pt x="122" y="364" on="0"/>
        <pt x="86" y="248" on="0"/>
        <pt x="86" y="188" on="1"/>
        <pt x="86" y="101" on="0"/>
        <pt x="170" y="13" on="0"/>
        <pt x="244" y="13" on="1"/>
        <pt x="277" y="13" on="0"/>
        <pt x="355" y="30" on="0"/>
        <pt x="398" y="47" on="1"/>
        <pt x="396" y="19" on="1"/>
        <pt x="353" y="4" on="0"/>
        <pt x="277" y="-10" on="0"/>
        <pt x="244" y="-10" on="1"/>
        <pt x="157" y="-10" on="0"/>
        <pt x="59" y="89" on="0"/>
        <pt x="59" y="182" on="1"/>
        <pt x="59" y="249" on="0"/>
        <pt x="101" y="376" on="0"/>
        <pt x="173" y="473" on="0"/>
        <pt x="273" y="532" on="0"/>
      </contour>
    </TTGlyph>
    <TTGlyph name="Cacute" xMin="75" yMin="-13" xMax="533" yMax="892">
      <contour>
        <pt x="322" y="720" on="1"/>
        <pt x="369" y="754" on="0"/>
        <pt x="472" y="852" on="0"/>
        <pt x="507" y="892" on="1"/>
        <pt x="533" y="868" on="1"/>
        <pt x="492" y="829" on="0"/>
        <pt x="381" y="742" on="0"/>
        <pt x="331" y="708" on="1"/>
      </contour>
      <contour>
        <pt x="390" y="633" on="1"/>
        <pt x="465" y="633" on="0"/>
        <pt x="524" y="541" on="0"/>
        <pt x="524" y="457" on="1"/>
        <pt x="524" y="448" on="0"/>
        <pt x="524" y="430" on="0"/>
        <pt x="523" y="421" on="1"/>
        <pt x="497" y="421" on="1"/>
        <pt x="497" y="448" on="1"/>
        <pt x="497" y="523" on="0"/>
        <pt x="456" y="610" on="0"/>
        <pt x="387" y="610" on="1"/>
        <pt x="326" y="610" on="0"/>
        <pt x="221" y="543" on="0"/>
        <pt x="145" y="434" on="0"/>
        <pt x="102" y="294" on="0"/>
        <pt x="102" y="222" on="1"/>
        <pt x="102" y="116" on="0"/>
        <pt x="203" y="10" on="0"/>
        <pt x="290" y="10" on="1"/>
        <pt x="329" y="10" on="0"/>
        <pt x="418" y="31" on="0"/>
        <pt x="468" y="50" on="1"/>
        <pt x="466" y="22" on="1"/>
        <pt x="417" y="5" on="0"/>
        <pt x="328" y="-13" on="0"/>
        <pt x="290" y="-13" on="1"/>
        <pt x="189" y="-13" on="0"/>
        <pt x="75" y="105" on="0"/>
        <pt x="75" y="216" on="1"/>
        <pt x="75" y="296" on="0"/>
        <pt x="123" y="447" on="0"/>
        <pt x="207" y="563" on="0"/>
        <pt x="323" y="633" on="0"/>
      </contour>
    </TTGlyph>
    <TTGlyph name="Cacute.sc" xMin="59" yMin="-10" xMax="478" yMax="796">
      <contour>
        <pt x="267" y="624" on="1"/>
        <pt x="314" y="658" on="0"/>
        <pt x="417" y="756" on="0"/>
        <pt x="452" y="796" on="1"/>
        <pt x="478" y="772" on="1"/>
        <pt x="437" y="733" on="0"/>
        <pt x="326" y="646" on="0"/>
        <pt x="276" y="612" on="1"/>
      </contour>
      <contour>
        <pt x="330" y="532" on="1"/>
        <pt x="395" y="532" on="0"/>
        <pt x="447" y="454" on="0"/>
        <pt x="447" y="382" on="1"/>
        <pt x="447" y="375" on="0"/>
        <pt x="447" y="359" on="0"/>
        <pt x="446" y="352" on="1"/>
        <pt x="420" y="352" on="1"/>
        <pt x="420" y="376" on="1"/>
        <pt x="420" y="439" on="0"/>
        <pt x="384" y="509" on="0"/>
        <pt x="327" y="509" on="1"/>
        <pt x="275" y="509" on="0"/>
        <pt x="186" y="453" on="0"/>
        <pt x="122" y="364" on="0"/>
        <pt x="86" y="248" on="0"/>
        <pt x="86" y="188" on="1"/>
        <pt x="86" y="101" on="0"/>
        <pt x="170" y="13" on="0"/>
        <pt x="244" y="13" on="1"/>
        <pt x="277" y="13" on="0"/>
        <pt x="355" y="30" on="0"/>
        <pt x="398" y="47" on="1"/>
        <pt x="396" y="19" on="1"/>
        <pt x="353" y="4" on="0"/>
        <pt x="277" y="-10" on="0"/>
        <pt x="244" y="-10" on="1"/>
        <pt x="157" y="-10" on="0"/>
        <pt x="59" y="89" on="0"/>
        <pt x="59" y="182" on="1"/>
        <pt x="59" y="249" on="0"/>
        <pt x="101" y="376" on="0"/>
        <pt x="173" y="473" on="0"/>
        <pt x="273" y="532" on="0"/>
      </contour>
    </TTGlyph>
    <TTGlyph name="Ccaron" xMin="75" yMin="-13" xMax="580" yMax="876">
      <contour>
        <pt x="402" y="708" on="1"/>
        <pt x="401" y="708" on="1"/>
        <pt x="289" y="861" on="1"/>
        <pt x="308" y="876" on="1"/>
        <pt x="406" y="740" on="1"/>
        <pt x="566" y="872" on="1"/>
        <pt x="580" y="855" on="1"/>
      </contour>
      <contour>
        <pt x="390" y="633" on="1"/>
        <pt x="465" y="633" on="0"/>
        <pt x="524" y="541" on="0"/>
        <pt x="524" y="457" on="1"/>
        <pt x="524" y="448" on="0"/>
        <pt x="524" y="430" on="0"/>
        <pt x="523" y="421" on="1"/>
        <pt x="497" y="421" on="1"/>
        <pt x="497" y="448" on="1"/>
        <pt x="497" y="523" on="0"/>
        <pt x="456" y="610" on="0"/>
        <pt x="387" y="610" on="1"/>
        <pt x="326" y="610" on="0"/>
        <pt x="221" y="543" on="0"/>
        <pt x="145" y="434" on="0"/>
        <pt x="102" y="294" on="0"/>
        <pt x="102" y="222" on="1"/>
        <pt x="102" y="116" on="0"/>
        <pt x="203" y="10" on="0"/>
        <pt x="290" y="10" on="1"/>
        <pt x="329" y="10" on="0"/>
        <pt x="418" y="31" on="0"/>
        <pt x="468" y="50" on="1"/>
        <pt x="466" y="22" on="1"/>
        <pt x="417" y="5" on="0"/>
        <pt x="328" y="-13" on="0"/>
        <pt x="290" y="-13" on="1"/>
        <pt x="189" y="-13" on="0"/>
        <pt x="75" y="105" on="0"/>
        <pt x="75" y="216" on="1"/>
        <pt x="75" y="296" on="0"/>
        <pt x="123" y="447" on="0"/>
        <pt x="207" y="563" on="0"/>
        <pt x="323" y="633" on="0"/>
      </contour>
    </TTGlyph>
    <TTGlyph name="Ccaron.sc" xMin="59" yMin="-10" xMax="525" yMax="780">
      <contour>
        <pt x="347" y="612" on="1"/>
        <pt x="346" y="612" on="1"/>
        <pt x="234" y="765" on="1"/>
        <pt x="253" y="780" on="1"/>
        <pt x="351" y="644" on="1"/>
        <pt x="511" y="776" on="1"/>
        <pt x="525" y="759" on="1"/>
      </contour>
      <contour>
        <pt x="330" y="532" on="1"/>
        <pt x="395" y="532" on="0"/>
        <pt x="447" y="454" on="0"/>
        <pt x="447" y="382" on="1"/>
        <pt x="447" y="375" on="0"/>
        <pt x="447" y="359" on="0"/>
        <pt x="446" y="352" on="1"/>
        <pt x="420" y="352" on="1"/>
        <pt x="420" y="376" on="1"/>
        <pt x="420" y="439" on="0"/>
        <pt x="384" y="509" on="0"/>
        <pt x="327" y="509" on="1"/>
        <pt x="275" y="509" on="0"/>
        <pt x="186" y="453" on="0"/>
        <pt x="122" y="364" on="0"/>
        <pt x="86" y="248" on="0"/>
        <pt x="86" y="188" on="1"/>
        <pt x="86" y="101" on="0"/>
        <pt x="170" y="13" on="0"/>
        <pt x="244" y="13" on="1"/>
        <pt x="277" y="13" on="0"/>
        <pt x="355" y="30" on="0"/>
        <pt x="398" y="47" on="1"/>
        <pt x="396" y="19" on="1"/>
        <pt x="353" y="4" on="0"/>
        <pt x="277" y="-10" on="0"/>
        <pt x="244" y="-10" on="1"/>
        <pt x="157" y="-10" on="0"/>
        <pt x="59" y="89" on="0"/>
        <pt x="59" y="182" on="1"/>
        <pt x="59" y="249" on="0"/>
        <pt x="101" y="376" on="0"/>
        <pt x="173" y="473" on="0"/>
        <pt x="273" y="532" on="0"/>
      </contour>
    </TTGlyph>
    <TTGlyph name="Ccedilla" xMin="75" yMin="-168" xMax="524" yMax="633">
      <contour>
        <pt x="314" y="-133" on="1"/>
        <pt x="314" y="-141" on="0"/>
        <pt x="314" y="-159" on="0"/>
        <pt x="313" y="-168" on="1"/>
        <pt x="287" y="-168" on="1"/>
        <pt x="288" y="-159" on="0"/>
        <pt x="288" y="-142" on="0"/>
        <pt x="288" y="-135" on="1"/>
        <pt x="288" y="-72" on="0"/>
        <pt x="259" y="-15" on="0"/>
        <pt x="237" y="-15" on="1"/>
        <pt x="212" y="-15" on="0"/>
        <pt x="165" y="-79" on="0"/>
        <pt x="142" y="-137" on="1"/>
        <pt x="125" y="-130" on="1"/>
        <pt x="144" y="-78" on="0"/>
        <pt x="187" y="-14" on="0"/>
        <pt x="209" y="-2" on="1"/>
        <pt x="146" y="19" on="0"/>
        <pt x="75" y="129" on="0"/>
        <pt x="75" y="216" on="1"/>
        <pt x="75" y="296" on="0"/>
        <pt x="123" y="447" on="0"/>
        <pt x="207" y="563" on="0"/>
        <pt x="323" y="633" on="0"/>
        <pt x="390" y="633" on="1"/>
        <pt x="465" y="633" on="0"/>
        <pt x="524" y="541" on="0"/>
        <pt x="524" y="457" on="1"/>
        <pt x="524" y="448" on="0"/>
        <pt x="524" y="430" on="0"/>
        <pt x="523" y="421" on="1"/>
        <pt x="497" y="421" on="1"/>
        <pt x="497" y="448" on="1"/>
        <pt x="497" y="523" on="0"/>
        <pt x="456" y="610" on="0"/>
        <pt x="387" y="610" on="1"/>
        <pt x="326" y="610" on="0"/>
        <pt x="221" y="543" on="0"/>
        <pt x="145" y="434" on="0"/>
        <pt x="102" y="294" on="0"/>
        <pt x="102" y="222" on="1"/>
        <pt x="102" y="116" on="0"/>
        <pt x="203" y="10" on="0"/>
        <pt x="290" y="10" on="1"/>
        <pt x="329" y="10" on="0"/>
        <pt x="418" y="31" on="0"/>
        <pt x="468" y="50" on="1"/>
        <pt x="466" y="22" on="1"/>
        <pt x="417" y="5" on="0"/>
        <pt x="328" y="-13" on="0"/>
        <pt x="290" y="-13" on="1"/>
        <pt x="289" y="-13" on="0"/>
        <pt x="285" y="-13" on="0"/>
        <pt x="283" y="-13" on="1"/>
        <pt x="297" y="-29" on="0"/>
        <pt x="314" y="-88" on="0"/>
      </contour>
    </TTGlyph>
    <TTGlyph name="Ccedilla.sc" xMin="59" yMin="-168" xMax="447" yMax="532">
      <contour>
        <pt x="279" y="-133" on="1"/>
        <pt x="279" y="-141" on="0"/>
        <pt x="279" y="-159" on="0"/>
        <pt x="278" y="-168" on="1"/>
        <pt x="252" y="-168" on="1"/>
        <pt x="253" y="-159" on="0"/>
        <pt x="253" y="-142" on="0"/>
        <pt x="253" y="-135" on="1"/>
        <pt x="253" y="-72" on="0"/>
        <pt x="224" y="-15" on="0"/>
        <pt x="202" y="-15" on="1"/>
        <pt x="177" y="-15" on="0"/>
        <pt x="130" y="-79" on="0"/>
        <pt x="107" y="-137" on="1"/>
        <pt x="90" y="-130" on="1"/>
        <pt x="109" y="-77" on="0"/>
        <pt x="153" y="-13" on="0"/>
        <pt x="176" y="-1" on="1"/>
        <pt x="120" y="16" on="0"/>
        <pt x="59" y="109" on="0"/>
        <pt x="59" y="182" on="1"/>
        <pt x="59" y="249" on="0"/>
        <pt x="101" y="376" on="0"/>
        <pt x="173" y="473" on="0"/>
        <pt x="273" y="532" on="0"/>
        <pt x="330" y="532" on="1"/>
        <pt x="395" y="532" on="0"/>
        <pt x="447" y="454" on="0"/>
        <pt x="447" y="382" on="1"/>
        <pt x="447" y="375" on="0"/>
        <pt x="447" y="359" on="0"/>
        <pt x="446" y="352" on="1"/>
        <pt x="420" y="352" on="1"/>
        <pt x="420" y="376" on="1"/>
        <pt x="420" y="439" on="0"/>
        <pt x="384" y="509" on="0"/>
        <pt x="327" y="509" on="1"/>
        <pt x="275" y="509" on="0"/>
        <pt x="186" y="453" on="0"/>
        <pt x="122" y="364" on="0"/>
        <pt x="86" y="248" on="0"/>
        <pt x="86" y="188" on="1"/>
        <pt x="86" y="101" on="0"/>
        <pt x="170" y="13" on="0"/>
        <pt x="244" y="13" on="1"/>
        <pt x="277" y="13" on="0"/>
        <pt x="355" y="30" on="0"/>
        <pt x="398" y="47" on="1"/>
        <pt x="396" y="19" on="1"/>
        <pt x="353" y="4" on="0"/>
        <pt x="277" y="-10" on="0"/>
        <pt x="246" y="-10" on="1"/>
        <pt x="261" y="-26" on="0"/>
        <pt x="279" y="-87" on="0"/>
      </contour>
    </TTGlyph>
    <TTGlyph name="Cdotaccent" xMin="75" yMin="-13" xMax="524" yMax="845">
      <contour>
        <pt x="411" y="716" on="1"/>
        <pt x="389" y="715" on="1"/>
        <pt x="419" y="844" on="1"/>
        <pt x="447" y="845" on="1"/>
      </contour>
      <contour>
        <pt x="390" y="633" on="1"/>
        <pt x="465" y="633" on="0"/>
        <pt x="524" y="541" on="0"/>
        <pt x="524" y="457" on="1"/>
        <pt x="524" y="448" on="0"/>
        <pt x="524" y="430" on="0"/>
        <pt x="523" y="421" on="1"/>
        <pt x="497" y="421" on="1"/>
        <pt x="497" y="448" on="1"/>
        <pt x="497" y="523" on="0"/>
        <pt x="456" y="610" on="0"/>
        <pt x="387" y="610" on="1"/>
        <pt x="326" y="610" on="0"/>
        <pt x="221" y="543" on="0"/>
        <pt x="145" y="434" on="0"/>
        <pt x="102" y="294" on="0"/>
        <pt x="102" y="222" on="1"/>
        <pt x="102" y="116" on="0"/>
        <pt x="203" y="10" on="0"/>
        <pt x="290" y="10" on="1"/>
        <pt x="329" y="10" on="0"/>
        <pt x="418" y="31" on="0"/>
        <pt x="468" y="50" on="1"/>
        <pt x="466" y="22" on="1"/>
        <pt x="417" y="5" on="0"/>
        <pt x="328" y="-13" on="0"/>
        <pt x="290" y="-13" on="1"/>
        <pt x="189" y="-13" on="0"/>
        <pt x="75" y="105" on="0"/>
        <pt x="75" y="216" on="1"/>
        <pt x="75" y="296" on="0"/>
        <pt x="123" y="447" on="0"/>
        <pt x="207" y="563" on="0"/>
        <pt x="323" y="633" on="0"/>
      </contour>
    </TTGlyph>
    <TTGlyph name="Cdotaccent.sc" xMin="59" yMin="-10" xMax="447" yMax="749">
      <contour>
        <pt x="356" y="620" on="1"/>
        <pt x="334" y="619" on="1"/>
        <pt x="364" y="748" on="1"/>
        <pt x="392" y="749" on="1"/>
      </contour>
      <contour>
        <pt x="330" y="532" on="1"/>
        <pt x="395" y="532" on="0"/>
        <pt x="447" y="454" on="0"/>
        <pt x="447" y="382" on="1"/>
        <pt x="447" y="375" on="0"/>
        <pt x="447" y="359" on="0"/>
        <pt x="446" y="352" on="1"/>
        <pt x="420" y="352" on="1"/>
        <pt x="420" y="376" on="1"/>
        <pt x="420" y="439" on="0"/>
        <pt x="384" y="509" on="0"/>
        <pt x="327" y="509" on="1"/>
        <pt x="275" y="509" on="0"/>
        <pt x="186" y="453" on="0"/>
        <pt x="122" y="364" on="0"/>
        <pt x="86" y="248" on="0"/>
        <pt x="86" y="188" on="1"/>
        <pt x="86" y="101" on="0"/>
        <pt x="170" y="13" on="0"/>
        <pt x="244" y="13" on="1"/>
        <pt x="277" y="13" on="0"/>
        <pt x="355" y="30" on="0"/>
        <pt x="398" y="47" on="1"/>
        <pt x="396" y="19" on="1"/>
        <pt x="353" y="4" on="0"/>
        <pt x="277" y="-10" on="0"/>
        <pt x="244" y="-10" on="1"/>
        <pt x="157" y="-10" on="0"/>
        <pt x="59" y="89" on="0"/>
        <pt x="59" y="182" on="1"/>
        <pt x="59" y="249" on="0"/>
        <pt x="101" y="376" on="0"/>
        <pt x="173" y="473" on="0"/>
        <pt x="273" y="532" on="0"/>
      </contour>
    </TTGlyph>
    <TTGlyph name="D" xMin="61" yMin="-6" xMax="553" yMax="628">
      <contour>
        <pt x="553" y="380" on="1"/>
        <pt x="553" y="302" on="0"/>
        <pt x="504" y="162" on="0"/>
        <pt x="404" y="56" on="0"/>
        <pt x="252" y="-6" on="0"/>
        <pt x="149" y="-6" on="1"/>
        <pt x="128" y="-6" on="0"/>
        <pt x="84" y="-3" on="0"/>
        <pt x="61" y="0" on="1"/>
        <pt x="181" y="620" on="1"/>
        <pt x="207" y="624" on="0"/>
        <pt x="257" y="628" on="0"/>
        <pt x="279" y="628" on="1"/>
        <pt x="406" y="628" on="0"/>
        <pt x="553" y="504" on="0"/>
      </contour>
      <contour>
        <pt x="152" y="18" on="1"/>
        <pt x="249" y="18" on="0"/>
        <pt x="391" y="76" on="0"/>
        <pt x="482" y="174" on="0"/>
        <pt x="526" y="305" on="0"/>
        <pt x="526" y="377" on="1"/>
        <pt x="526" y="495" on="0"/>
        <pt x="390" y="604" on="0"/>
        <pt x="276" y="604" on="1"/>
        <pt x="259" y="604" on="0"/>
        <pt x="222" y="602" on="0"/>
        <pt x="203" y="600" on="1"/>
        <pt x="91" y="21" on="1"/>
        <pt x="107" y="20" on="0"/>
        <pt x="138" y="18" on="0"/>
      </contour>
    </TTGlyph>
    <TTGlyph name="D.sc" xMin="52" yMin="-5" xMax="476" yMax="528">
      <contour>
        <pt x="476" y="319" on="1"/>
        <pt x="476" y="253" on="0"/>
        <pt x="433" y="134" on="0"/>
        <pt x="348" y="46" on="0"/>
        <pt x="216" y="-5" on="0"/>
        <pt x="128" y="-5" on="1"/>
        <pt x="110" y="-5" on="0"/>
        <pt x="72" y="-2" on="0"/>
        <pt x="52" y="0" on="1"/>
        <pt x="154" y="521" on="1"/>
        <pt x="176" y="524" on="0"/>
        <pt x="219" y="528" on="0"/>
        <pt x="239" y="528" on="1"/>
        <pt x="349" y="528" on="0"/>
        <pt x="476" y="423" on="0"/>
      </contour>
      <contour>
        <pt x="134" y="19" on="1"/>
        <pt x="215" y="19" on="0"/>
        <pt x="335" y="67" on="0"/>
        <pt x="412" y="148" on="0"/>
        <pt x="449" y="256" on="0"/>
        <pt x="449" y="316" on="1"/>
        <pt x="449" y="413" on="0"/>
        <pt x="334" y="504" on="0"/>
        <pt x="236" y="504" on="1"/>
        <pt x="222" y="504" on="0"/>
        <pt x="193" y="502" on="0"/>
        <pt x="177" y="500" on="1"/>
        <pt x="83" y="21" on="1"/>
        <pt x="96" y="20" on="0"/>
        <pt x="122" y="19" on="0"/>
      </contour>
    </TTGlyph>
    <TTGlyph name="Dcaron" xMin="61" yMin="-6" xMax="553" yMax="876">
      <contour>
        <pt x="370" y="708" on="1"/>
        <pt x="369" y="708" on="1"/>
        <pt x="257" y="861" on="1"/>
        <pt x="276" y="876" on="1"/>
        <pt x="374" y="740" on="1"/>
        <pt x="534" y="872" on="1"/>
        <pt x="548" y="855" on="1"/>
      </contour>
      <contour>
        <pt x="553" y="380" on="1"/>
        <pt x="553" y="302" on="0"/>
        <pt x="504" y="162" on="0"/>
        <pt x="404" y="56" on="0"/>
        <pt x="252" y="-6" on="0"/>
        <pt x="149" y="-6" on="1"/>
        <pt x="128" y="-6" on="0"/>
        <pt x="84" y="-3" on="0"/>
        <pt x="61" y="0" on="1"/>
        <pt x="181" y="620" on="1"/>
        <pt x="207" y="624" on="0"/>
        <pt x="257" y="628" on="0"/>
        <pt x="279" y="628" on="1"/>
        <pt x="406" y="628" on="0"/>
        <pt x="553" y="504" on="0"/>
      </contour>
      <contour>
        <pt x="152" y="18" on="1"/>
        <pt x="249" y="18" on="0"/>
        <pt x="391" y="76" on="0"/>
        <pt x="482" y="174" on="0"/>
        <pt x="526" y="305" on="0"/>
        <pt x="526" y="377" on="1"/>
        <pt x="526" y="495" on="0"/>
        <pt x="390" y="604" on="0"/>
        <pt x="276" y="604" on="1"/>
        <pt x="259" y="604" on="0"/>
        <pt x="222" y="602" on="0"/>
        <pt x="203" y="600" on="1"/>
        <pt x="91" y="21" on="1"/>
        <pt x="107" y="20" on="0"/>
        <pt x="138" y="18" on="0"/>
      </contour>
    </TTGlyph>
    <TTGlyph name="Dcaron.sc" xMin="52" yMin="-5" xMax="504" yMax="776">
      <contour>
        <pt x="326" y="608" on="1"/>
        <pt x="325" y="608" on="1"/>
        <pt x="213" y="761" on="1"/>
        <pt x="232" y="776" on="1"/>
        <pt x="330" y="640" on="1"/>
        <pt x="490" y="772" on="1"/>
        <pt x="504" y="755" on="1"/>
      </contour>
      <contour>
        <pt x="476" y="319" on="1"/>
        <pt x="476" y="253" on="0"/>
        <pt x="433" y="134" on="0"/>
        <pt x="348" y="46" on="0"/>
        <pt x="216" y="-5" on="0"/>
        <pt x="128" y="-5" on="1"/>
        <pt x="110" y="-5" on="0"/>
        <pt x="72" y="-2" on="0"/>
        <pt x="52" y="0" on="1"/>
        <pt x="154" y="521" on="1"/>
        <pt x="176" y="524" on="0"/>
        <pt x="219" y="528" on="0"/>
        <pt x="239" y="528" on="1"/>
        <pt x="349" y="528" on="0"/>
        <pt x="476" y="423" on="0"/>
      </contour>
      <contour>
        <pt x="134" y="19" on="1"/>
        <pt x="215" y="19" on="0"/>
        <pt x="335" y="67" on="0"/>
        <pt x="412" y="148" on="0"/>
        <pt x="449" y="256" on="0"/>
        <pt x="449" y="316" on="1"/>
        <pt x="449" y="413" on="0"/>
        <pt x="334" y="504" on="0"/>
        <pt x="236" y="504" on="1"/>
        <pt x="222" y="504" on="0"/>
        <pt x="193" y="502" on="0"/>
        <pt x="177" y="500" on="1"/>
        <pt x="83" y="21" on="1"/>
        <pt x="96" y="20" on="0"/>
        <pt x="122" y="19" on="0"/>
      </contour>
    </TTGlyph>
    <TTGlyph name="Dcroat" xMin="37" yMin="-6" xMax="553" yMax="628">
      <contour>
        <pt x="149" y="-6" on="1"/>
        <pt x="128" y="-6" on="0"/>
        <pt x="84" y="-3" on="0"/>
        <pt x="61" y="0" on="1"/>
        <pt x="120" y="306" on="1"/>
        <pt x="37" y="306" on="1"/>
        <pt x="41" y="327" on="1"/>
        <pt x="124" y="327" on="1"/>
        <pt x="181" y="620" on="1"/>
        <pt x="207" y="624" on="0"/>
        <pt x="257" y="628" on="0"/>
        <pt x="279" y="628" on="1"/>
        <pt x="406" y="628" on="0"/>
        <pt x="553" y="504" on="0"/>
        <pt x="553" y="380" on="1"/>
        <pt x="553" y="302" on="0"/>
        <pt x="504" y="162" on="0"/>
        <pt x="404" y="56" on="0"/>
        <pt x="252" y="-6" on="0"/>
      </contour>
      <contour>
        <pt x="152" y="18" on="1"/>
        <pt x="249" y="18" on="0"/>
        <pt x="391" y="76" on="0"/>
        <pt x="482" y="174" on="0"/>
        <pt x="526" y="305" on="0"/>
        <pt x="526" y="377" on="1"/>
        <pt x="526" y="495" on="0"/>
        <pt x="390" y="604" on="0"/>
        <pt x="276" y="604" on="1"/>
        <pt x="259" y="604" on="0"/>
        <pt x="222" y="602" on="0"/>
        <pt x="203" y="600" on="1"/>
        <pt x="150" y="327" on="1"/>
        <pt x="327" y="327" on="1"/>
        <pt x="322" y="306" on="1"/>
        <pt x="146" y="306" on="1"/>
        <pt x="91" y="21" on="1"/>
        <pt x="107" y="20" on="0"/>
        <pt x="138" y="18" on="0"/>
      </contour>
    </TTGlyph>
    <TTGlyph name="Dcroat.sc" xMin="30" yMin="-5" xMax="476" yMax="528">
      <contour>
        <pt x="128" y="-5" on="1"/>
        <pt x="110" y="-5" on="0"/>
        <pt x="72" y="-2" on="0"/>
        <pt x="52" y="0" on="1"/>
        <pt x="102" y="257" on="1"/>
        <pt x="30" y="257" on="1"/>
        <pt x="34" y="278" on="1"/>
        <pt x="106" y="278" on="1"/>
        <pt x="154" y="521" on="1"/>
        <pt x="176" y="524" on="0"/>
        <pt x="219" y="528" on="0"/>
        <pt x="239" y="528" on="1"/>
        <pt x="349" y="528" on="0"/>
        <pt x="476" y="423" on="0"/>
        <pt x="476" y="319" on="1"/>
        <pt x="476" y="253" on="0"/>
        <pt x="433" y="134" on="0"/>
        <pt x="348" y="46" on="0"/>
        <pt x="216" y="-5" on="0"/>
      </contour>
      <contour>
        <pt x="134" y="19" on="1"/>
        <pt x="215" y="19" on="0"/>
        <pt x="335" y="67" on="0"/>
        <pt x="412" y="148" on="0"/>
        <pt x="449" y="256" on="0"/>
        <pt x="449" y="316" on="1"/>
        <pt x="449" y="413" on="0"/>
        <pt x="334" y="504" on="0"/>
        <pt x="236" y="504" on="1"/>
        <pt x="222" y="504" on="0"/>
        <pt x="193" y="502" on="0"/>
        <pt x="177" y="500" on="1"/>
        <pt x="133" y="278" on="1"/>
        <pt x="280" y="278" on="1"/>
        <pt x="275" y="257" on="1"/>
        <pt x="129" y="257" on="1"/>
        <pt x="83" y="21" on="1"/>
        <pt x="96" y="20" on="0"/>
        <pt x="122" y="19" on="0"/>
      </contour>
    </TTGlyph>
    <TTGlyph name="E" xMin="61" yMin="0" xMax="520" yMax="620">
      <contour>
        <pt x="404" y="24" on="1"/>
        <pt x="399" y="0" on="1"/>
        <pt x="61" y="0" on="1"/>
        <pt x="181" y="620" on="1"/>
        <pt x="520" y="620" on="1"/>
        <pt x="516" y="596" on="1"/>
        <pt x="203" y="596" on="1"/>
        <pt x="151" y="327" on="1"/>
        <pt x="418" y="327" on="1"/>
        <pt x="414" y="305" on="1"/>
        <pt x="147" y="305" on="1"/>
        <pt x="93" y="24" on="1"/>
      </contour>
    </TTGlyph>
    <TTGlyph name="E.sc" xMin="52" yMin="0" xMax="446" yMax="521">
      <contour>
        <pt x="349" y="24" on="1"/>
        <pt x="344" y="0" on="1"/>
        <pt x="52" y="0" on="1"/>
        <pt x="154" y="521" on="1"/>
        <pt x="446" y="521" on="1"/>
        <pt x="442" y="497" on="1"/>
        <pt x="176" y="497" on="1"/>
        <pt x="133" y="276" on="1"/>
        <pt x="360" y="276" on="1"/>
        <pt x="356" y="254" on="1"/>
        <pt x="129" y="254" on="1"/>
        <pt x="84" y="24" on="1"/>
      </contour>
    </TTGlyph>
    <TTGlyph name="Eacute" xMin="61" yMin="0" xMax="520" yMax="884">
      <contour>
        <pt x="279" y="712" on="1"/>
        <pt x="326" y="746" on="0"/>
        <pt x="429" y="844" on="0"/>
        <pt x="464" y="884" on="1"/>
        <pt x="490" y="860" on="1"/>
        <pt x="449" y="821" on="0"/>
        <pt x="338" y="734" on="0"/>
        <pt x="288" y="700" on="1"/>
      </contour>
      <contour>
        <pt x="404" y="24" on="1"/>
        <pt x="399" y="0" on="1"/>
        <pt x="61" y="0" on="1"/>
        <pt x="181" y="620" on="1"/>
        <pt x="520" y="620" on="1"/>
        <pt x="516" y="596" on="1"/>
        <pt x="203" y="596" on="1"/>
        <pt x="151" y="327" on="1"/>
        <pt x="418" y="327" on="1"/>
        <pt x="414" y="305" on="1"/>
        <pt x="147" y="305" on="1"/>
        <pt x="93" y="24" on="1"/>
      </contour>
    </TTGlyph>
    <TTGlyph name="Eacute.sc" xMin="52" yMin="0" xMax="446" yMax="785">
      <contour>
        <pt x="234" y="613" on="1"/>
        <pt x="281" y="647" on="0"/>
        <pt x="384" y="745" on="0"/>
        <pt x="419" y="785" on="1"/>
        <pt x="445" y="761" on="1"/>
        <pt x="404" y="722" on="0"/>
        <pt x="293" y="635" on="0"/>
        <pt x="243" y="601" on="1"/>
      </contour>
      <contour>
        <pt x="349" y="24" on="1"/>
        <pt x="344" y="0" on="1"/>
        <pt x="52" y="0" on="1"/>
        <pt x="154" y="521" on="1"/>
        <pt x="446" y="521" on="1"/>
        <pt x="442" y="497" on="1"/>
        <pt x="176" y="497" on="1"/>
        <pt x="133" y="276" on="1"/>
        <pt x="360" y="276" on="1"/>
        <pt x="356" y="254" on="1"/>
        <pt x="129" y="254" on="1"/>
        <pt x="84" y="24" on="1"/>
      </contour>
    </TTGlyph>
    <TTGlyph name="Ebreve" xMin="61" yMin="0" xMax="546" yMax="863">
      <contour>
        <pt x="530" y="862" on="1"/>
        <pt x="546" y="850" on="1"/>
        <pt x="500" y="784" on="0"/>
        <pt x="413" y="710" on="0"/>
        <pt x="367" y="710" on="1"/>
        <pt x="324" y="710" on="0"/>
        <pt x="261" y="780" on="0"/>
        <pt x="236" y="855" on="1"/>
        <pt x="258" y="863" on="1"/>
        <pt x="283" y="792" on="0"/>
        <pt x="334" y="733" on="0"/>
        <pt x="371" y="733" on="1"/>
        <pt x="412" y="733" on="0"/>
        <pt x="486" y="801" on="0"/>
      </contour>
      <contour>
        <pt x="404" y="24" on="1"/>
        <pt x="399" y="0" on="1"/>
        <pt x="61" y="0" on="1"/>
        <pt x="181" y="620" on="1"/>
        <pt x="520" y="620" on="1"/>
        <pt x="516" y="596" on="1"/>
        <pt x="203" y="596" on="1"/>
        <pt x="151" y="327" on="1"/>
        <pt x="418" y="327" on="1"/>
        <pt x="414" y="305" on="1"/>
        <pt x="147" y="305" on="1"/>
        <pt x="93" y="24" on="1"/>
      </contour>
    </TTGlyph>
    <TTGlyph name="Ebreve.sc" xMin="52" yMin="0" xMax="501" yMax="764">
      <contour>
        <pt x="485" y="763" on="1"/>
        <pt x="501" y="751" on="1"/>
        <pt x="455" y="685" on="0"/>
        <pt x="368" y="611" on="0"/>
        <pt x="322" y="611" on="1"/>
        <pt x="279" y="611" on="0"/>
        <pt x="216" y="681" on="0"/>
        <pt x="191" y="756" on="1"/>
        <pt x="213" y="764" on="1"/>
        <pt x="238" y="693" on="0"/>
        <pt x="289" y="634" on="0"/>
        <pt x="326" y="634" on="1"/>
        <pt x="367" y="634" on="0"/>
        <pt x="441" y="702" on="0"/>
      </contour>
      <contour>
        <pt x="349" y="24" on="1"/>
        <pt x="344" y="0" on="1"/>
        <pt x="52" y="0" on="1"/>
        <pt x="154" y="521" on="1"/>
        <pt x="446" y="521" on="1"/>
        <pt x="442" y="497" on="1"/>
        <pt x="176" y="497" on="1"/>
        <pt x="133" y="276" on="1"/>
        <pt x="360" y="276" on="1"/>
        <pt x="356" y="254" on="1"/>
        <pt x="129" y="254" on="1"/>
        <pt x="84" y="24" on="1"/>
      </contour>
    </TTGlyph>
    <TTGlyph name="Ecaron" xMin="61" yMin="0" xMax="536" yMax="868">
      <contour>
        <pt x="358" y="700" on="1"/>
        <pt x="357" y="700" on="1"/>
        <pt x="245" y="853" on="1"/>
        <pt x="264" y="868" on="1"/>
        <pt x="362" y="732" on="1"/>
        <pt x="522" y="864" on="1"/>
        <pt x="536" y="847" on="1"/>
      </contour>
      <contour>
        <pt x="404" y="24" on="1"/>
        <pt x="399" y="0" on="1"/>
        <pt x="61" y="0" on="1"/>
        <pt x="181" y="620" on="1"/>
        <pt x="520" y="620" on="1"/>
        <pt x="516" y="596" on="1"/>
        <pt x="203" y="596" on="1"/>
        <pt x="151" y="327" on="1"/>
        <pt x="418" y="327" on="1"/>
        <pt x="414" y="305" on="1"/>
        <pt x="147" y="305" on="1"/>
        <pt x="93" y="24" on="1"/>
      </contour>
    </TTGlyph>
    <TTGlyph name="Ecaron.sc" xMin="52" yMin="0" xMax="491" yMax="769">
      <contour>
        <pt x="313" y="601" on="1"/>
        <pt x="312" y="601" on="1"/>
        <pt x="200" y="754" on="1"/>
        <pt x="219" y="769" on="1"/>
        <pt x="317" y="633" on="1"/>
        <pt x="477" y="765" on="1"/>
        <pt x="491" y="748" on="1"/>
      </contour>
      <contour>
        <pt x="349" y="24" on="1"/>
        <pt x="344" y="0" on="1"/>
        <pt x="52" y="0" on="1"/>
        <pt x="154" y="521" on="1"/>
        <pt x="446" y="521" on="1"/>
        <pt x="442" y="497" on="1"/>
        <pt x="176" y="497" on="1"/>
        <pt x="133" y="276" on="1"/>
        <pt x="360" y="276" on="1"/>
        <pt x="356" y="254" on="1"/>
        <pt x="129" y="254" on="1"/>
        <pt x="84" y="24" on="1"/>
      </contour>
    </TTGlyph>
    <TTGlyph name="Ecircumflex" xMin="61" yMin="0" xMax="520" yMax="871">
      <contour>
        <pt x="491" y="703" on="1"/>
        <pt x="393" y="839" on="1"/>
        <pt x="233" y="707" on="1"/>
        <pt x="219" y="724" on="1"/>
        <pt x="397" y="871" on="1"/>
        <pt x="398" y="871" on="1"/>
        <pt x="510" y="718" on="1"/>
      </contour>
      <contour>
        <pt x="404" y="24" on="1"/>
        <pt x="399" y="0" on="1"/>
        <pt x="61" y="0" on="1"/>
        <pt x="181" y="620" on="1"/>
        <pt x="520" y="620" on="1"/>
        <pt x="516" y="596" on="1"/>
        <pt x="203" y="596" on="1"/>
        <pt x="151" y="327" on="1"/>
        <pt x="418" y="327" on="1"/>
        <pt x="414" y="305" on="1"/>
        <pt x="147" y="305" on="1"/>
        <pt x="93" y="24" on="1"/>
      </contour>
    </TTGlyph>
    <TTGlyph name="Ecircumflex.sc" xMin="52" yMin="0" xMax="465" yMax="772">
      <contour>
        <pt x="446" y="604" on="1"/>
        <pt x="348" y="740" on="1"/>
        <pt x="188" y="608" on="1"/>
        <pt x="174" y="625" on="1"/>
        <pt x="352" y="772" on="1"/>
        <pt x="353" y="772" on="1"/>
        <pt x="465" y="619" on="1"/>
      </contour>
      <contour>
        <pt x="349" y="24" on="1"/>
        <pt x="344" y="0" on="1"/>
        <pt x="52" y="0" on="1"/>
        <pt x="154" y="521" on="1"/>
        <pt x="446" y="521" on="1"/>
        <pt x="442" y="497" on="1"/>
        <pt x="176" y="497" on="1"/>
        <pt x="133" y="276" on="1"/>
        <pt x="360" y="276" on="1"/>
        <pt x="356" y="254" on="1"/>
        <pt x="129" y="254" on="1"/>
        <pt x="84" y="24" on="1"/>
      </contour>
    </TTGlyph>
    <TTGlyph name="Edieresis" xMin="61" yMin="0" xMax="520" yMax="839">
      <contour>
        <pt x="464" y="710" on="1"/>
        <pt x="442" y="709" on="1"/>
        <pt x="472" y="838" on="1"/>
        <pt x="500" y="839" on="1"/>
      </contour>
      <contour>
        <pt x="272" y="707" on="1"/>
        <pt x="250" y="706" on="1"/>
        <pt x="280" y="835" on="1"/>
        <pt x="308" y="836" on="1"/>
      </contour>
      <contour>
        <pt x="404" y="24" on="1"/>
        <pt x="399" y="0" on="1"/>
        <pt x="61" y="0" on="1"/>
        <pt x="181" y="620" on="1"/>
        <pt x="520" y="620" on="1"/>
        <pt x="516" y="596" on="1"/>
        <pt x="203" y="596" on="1"/>
        <pt x="151" y="327" on="1"/>
        <pt x="418" y="327" on="1"/>
        <pt x="414" y="305" on="1"/>
        <pt x="147" y="305" on="1"/>
        <pt x="93" y="24" on="1"/>
      </contour>
    </TTGlyph>
    <TTGlyph name="Edieresis.sc" xMin="52" yMin="0" xMax="455" yMax="740">
      <contour>
        <pt x="419" y="611" on="1"/>
        <pt x="397" y="610" on="1"/>
        <pt x="427" y="739" on="1"/>
        <pt x="455" y="740" on="1"/>
      </contour>
      <contour>
        <pt x="227" y="608" on="1"/>
        <pt x="205" y="607" on="1"/>
        <pt x="235" y="736" on="1"/>
        <pt x="263" y="737" on="1"/>
      </contour>
      <contour>
        <pt x="349" y="24" on="1"/>
        <pt x="344" y="0" on="1"/>
        <pt x="52" y="0" on="1"/>
        <pt x="154" y="521" on="1"/>
        <pt x="446" y="521" on="1"/>
        <pt x="442" y="497" on="1"/>
        <pt x="176" y="497" on="1"/>
        <pt x="133" y="276" on="1"/>
        <pt x="360" y="276" on="1"/>
        <pt x="356" y="254" on="1"/>
        <pt x="129" y="254" on="1"/>
        <pt x="84" y="24" on="1"/>
      </contour>
    </TTGlyph>
    <TTGlyph name="Edotaccent" xMin="61" yMin="0" xMax="520" yMax="837">
      <contour>
        <pt x="368" y="708" on="1"/>
        <pt x="346" y="707" on="1"/>
        <pt x="376" y="836" on="1"/>
        <pt x="404" y="837" on="1"/>
      </contour>
      <contour>
        <pt x="404" y="24" on="1"/>
        <pt x="399" y="0" on="1"/>
        <pt x="61" y="0" on="1"/>
        <pt x="181" y="620" on="1"/>
        <pt x="520" y="620" on="1"/>
        <pt x="516" y="596" on="1"/>
        <pt x="203" y="596" on="1"/>
        <pt x="151" y="327" on="1"/>
        <pt x="418" y="327" on="1"/>
        <pt x="414" y="305" on="1"/>
        <pt x="147" y="305" on="1"/>
        <pt x="93" y="24" on="1"/>
      </contour>
    </TTGlyph>
    <TTGlyph name="Edotaccent.sc" xMin="52" yMin="0" xMax="446" yMax="738">
      <contour>
        <pt x="323" y="609" on="1"/>
        <pt x="301" y="608" on="1"/>
        <pt x="331" y="737" on="1"/>
        <pt x="359" y="738" on="1"/>
      </contour>
      <contour>
        <pt x="349" y="24" on="1"/>
        <pt x="344" y="0" on="1"/>
        <pt x="52" y="0" on="1"/>
        <pt x="154" y="521" on="1"/>
        <pt x="446" y="521" on="1"/>
        <pt x="442" y="497" on="1"/>
        <pt x="176" y="497" on="1"/>
        <pt x="133" y="276" on="1"/>
        <pt x="360" y="276" on="1"/>
        <pt x="356" y="254" on="1"/>
        <pt x="129" y="254" on="1"/>
        <pt x="84" y="24" on="1"/>
      </contour>
    </TTGlyph>
    <TTGlyph name="Egrave" xMin="61" yMin="0" xMax="520" yMax="891">
      <contour>
        <pt x="434" y="702" on="1"/>
        <pt x="423" y="690" on="1"/>
        <pt x="386" y="724" on="0"/>
        <pt x="300" y="825" on="0"/>
        <pt x="270" y="871" on="1"/>
        <pt x="300" y="891" on="1"/>
        <pt x="324" y="847" on="0"/>
        <pt x="400" y="738" on="0"/>
      </contour>
      <contour>
        <pt x="404" y="24" on="1"/>
        <pt x="399" y="0" on="1"/>
        <pt x="61" y="0" on="1"/>
        <pt x="181" y="620" on="1"/>
        <pt x="520" y="620" on="1"/>
        <pt x="516" y="596" on="1"/>
        <pt x="203" y="596" on="1"/>
        <pt x="151" y="327" on="1"/>
        <pt x="418" y="327" on="1"/>
        <pt x="414" y="305" on="1"/>
        <pt x="147" y="305" on="1"/>
        <pt x="93" y="24" on="1"/>
      </contour>
    </TTGlyph>
    <TTGlyph name="Egrave.sc" xMin="52" yMin="0" xMax="446" yMax="792">
      <contour>
        <pt x="389" y="603" on="1"/>
        <pt x="378" y="591" on="1"/>
        <pt x="341" y="625" on="0"/>
        <pt x="255" y="726" on="0"/>
        <pt x="225" y="772" on="1"/>
        <pt x="255" y="792" on="1"/>
        <pt x="279" y="748" on="0"/>
        <pt x="355" y="639" on="0"/>
      </contour>
      <contour>
        <pt x="349" y="24" on="1"/>
        <pt x="344" y="0" on="1"/>
        <pt x="52" y="0" on="1"/>
        <pt x="154" y="521" on="1"/>
        <pt x="446" y="521" on="1"/>
        <pt x="442" y="497" on="1"/>
        <pt x="176" y="497" on="1"/>
        <pt x="133" y="276" on="1"/>
        <pt x="360" y="276" on="1"/>
        <pt x="356" y="254" on="1"/>
        <pt x="129" y="254" on="1"/>
        <pt x="84" y="24" on="1"/>
      </contour>
    </TTGlyph>
    <TTGlyph name="Emacron" xMin="61" yMin="0" xMax="520" yMax="787">
      <contour>
        <pt x="520" y="787" on="1"/>
        <pt x="516" y="765" on="1"/>
        <pt x="233" y="765" on="1"/>
        <pt x="237" y="787" on="1"/>
      </contour>
      <contour>
        <pt x="404" y="24" on="1"/>
        <pt x="399" y="0" on="1"/>
        <pt x="61" y="0" on="1"/>
        <pt x="181" y="620" on="1"/>
        <pt x="520" y="620" on="1"/>
        <pt x="516" y="596" on="1"/>
        <pt x="203" y="596" on="1"/>
        <pt x="151" y="327" on="1"/>
        <pt x="418" y="327" on="1"/>
        <pt x="414" y="305" on="1"/>
        <pt x="147" y="305" on="1"/>
        <pt x="93" y="24" on="1"/>
      </contour>
    </TTGlyph>
    <TTGlyph name="Emacron.sc" xMin="52" yMin="0" xMax="474" yMax="688">
      <contour>
        <pt x="474" y="688" on="1"/>
        <pt x="470" y="666" on="1"/>
        <pt x="187" y="666" on="1"/>
        <pt x="191" y="688" on="1"/>
      </contour>
      <contour>
        <pt x="349" y="24" on="1"/>
        <pt x="344" y="0" on="1"/>
        <pt x="52" y="0" on="1"/>
        <pt x="154" y="521" on="1"/>
        <pt x="446" y="521" on="1"/>
        <pt x="442" y="497" on="1"/>
        <pt x="176" y="497" on="1"/>
        <pt x="133" y="276" on="1"/>
        <pt x="360" y="276" on="1"/>
        <pt x="356" y="254" on="1"/>
        <pt x="129" y="254" on="1"/>
        <pt x="84" y="24" on="1"/>
      </contour>
    </TTGlyph>
    <TTGlyph name="Eogonek" xMin="61" yMin="-206" xMax="520" yMax="620">
      <contour>
        <pt x="370" y="-168" on="1"/>
        <pt x="335" y="-188" on="0"/>
        <pt x="278" y="-206" on="0"/>
        <pt x="256" y="-206" on="1"/>
        <pt x="224" y="-206" on="0"/>
        <pt x="191" y="-173" on="0"/>
        <pt x="191" y="-151" on="1"/>
        <pt x="191" y="-118" on="0"/>
        <pt x="271" y="-42" on="0"/>
        <pt x="358" y="0" on="1"/>
        <pt x="61" y="0" on="1"/>
        <pt x="181" y="620" on="1"/>
        <pt x="520" y="620" on="1"/>
        <pt x="516" y="596" on="1"/>
        <pt x="203" y="596" on="1"/>
        <pt x="151" y="327" on="1"/>
        <pt x="418" y="327" on="1"/>
        <pt x="414" y="305" on="1"/>
        <pt x="147" y="305" on="1"/>
        <pt x="93" y="24" on="1"/>
        <pt x="404" y="24" on="1"/>
        <pt x="399" y="0" on="1"/>
        <pt x="303" y="-44" on="0"/>
        <pt x="217" y="-117" on="0"/>
        <pt x="217" y="-146" on="1"/>
        <pt x="217" y="-162" on="0"/>
        <pt x="239" y="-183" on="0"/>
        <pt x="262" y="-183" on="1"/>
        <pt x="279" y="-183" on="0"/>
        <pt x="330" y="-168" on="0"/>
        <pt x="364" y="-152" on="1"/>
      </contour>
    </TTGlyph>
    <TTGlyph name="Eogonek.sc" xMin="52" yMin="-206" xMax="446" yMax="521">
      <contour>
        <pt x="315" y="-168" on="1"/>
        <pt x="280" y="-188" on="0"/>
        <pt x="223" y="-206" on="0"/>
        <pt x="201" y="-206" on="1"/>
        <pt x="169" y="-206" on="0"/>
        <pt x="136" y="-173" on="0"/>
        <pt x="136" y="-151" on="1"/>
        <pt x="136" y="-118" on="0"/>
        <pt x="216" y="-42" on="0"/>
        <pt x="303" y="0" on="1"/>
        <pt x="52" y="0" on="1"/>
        <pt x="154" y="521" on="1"/>
        <pt x="446" y="521" on="1"/>
        <pt x="442" y="497" on="1"/>
        <pt x="176" y="497" on="1"/>
        <pt x="133" y="276" on="1"/>
        <pt x="360" y="276" on="1"/>
        <pt x="356" y="254" on="1"/>
        <pt x="129" y="254" on="1"/>
        <pt x="84" y="24" on="1"/>
        <pt x="349" y="24" on="1"/>
        <pt x="344" y="0" on="1"/>
        <pt x="248" y="-44" on="0"/>
        <pt x="162" y="-117" on="0"/>
        <pt x="162" y="-146" on="1"/>
        <pt x="162" y="-162" on="0"/>
        <pt x="184" y="-183" on="0"/>
        <pt x="207" y="-183" on="1"/>
        <pt x="224" y="-183" on="0"/>
        <pt x="275" y="-168" on="0"/>
        <pt x="309" y="-152" on="1"/>
      </contour>
    </TTGlyph>
    <TTGlyph name="Eth" xMin="37" yMin="-6" xMax="553" yMax="628">
      <contour>
        <pt x="149" y="-6" on="1"/>
        <pt x="128" y="-6" on="0"/>
        <pt x="84" y="-3" on="0"/>
        <pt x="61" y="0" on="1"/>
        <pt x="120" y="306" on="1"/>
        <pt x="37" y="306" on="1"/>
        <pt x="41" y="327" on="1"/>
        <pt x="124" y="327" on="1"/>
        <pt x="181" y="620" on="1"/>
        <pt x="207" y="624" on="0"/>
        <pt x="257" y="628" on="0"/>
        <pt x="279" y="628" on="1"/>
        <pt x="406" y="628" on="0"/>
        <pt x="553" y="504" on="0"/>
        <pt x="553" y="380" on="1"/>
        <pt x="553" y="302" on="0"/>
        <pt x="504" y="162" on="0"/>
        <pt x="404" y="56" on="0"/>
        <pt x="252" y="-6" on="0"/>
      </contour>
      <contour>
        <pt x="152" y="18" on="1"/>
        <pt x="249" y="18" on="0"/>
        <pt x="391" y="76" on="0"/>
        <pt x="482" y="174" on="0"/>
        <pt x="526" y="305" on="0"/>
        <pt x="526" y="377" on="1"/>
        <pt x="526" y="495" on="0"/>
        <pt x="390" y="604" on="0"/>
        <pt x="276" y="604" on="1"/>
        <pt x="259" y="604" on="0"/>
        <pt x="222" y="602" on="0"/>
        <pt x="203" y="600" on="1"/>
        <pt x="150" y="327" on="1"/>
        <pt x="327" y="327" on="1"/>
        <pt x="322" y="306" on="1"/>
        <pt x="146" y="306" on="1"/>
        <pt x="91" y="21" on="1"/>
        <pt x="107" y="20" on="0"/>
        <pt x="138" y="18" on="0"/>
      </contour>
    </TTGlyph>
    <TTGlyph name="Eth.sc" xMin="30" yMin="-5" xMax="476" yMax="528">
      <contour>
        <pt x="128" y="-5" on="1"/>
        <pt x="110" y="-5" on="0"/>
        <pt x="72" y="-2" on="0"/>
        <pt x="52" y="0" on="1"/>
        <pt x="102" y="257" on="1"/>
        <pt x="30" y="257" on="1"/>
        <pt x="34" y="278" on="1"/>
        <pt x="106" y="278" on="1"/>
        <pt x="154" y="521" on="1"/>
        <pt x="176" y="524" on="0"/>
        <pt x="219" y="528" on="0"/>
        <pt x="239" y="528" on="1"/>
        <pt x="349" y="528" on="0"/>
        <pt x="476" y="423" on="0"/>
        <pt x="476" y="319" on="1"/>
        <pt x="476" y="253" on="0"/>
        <pt x="433" y="134" on="0"/>
        <pt x="348" y="46" on="0"/>
        <pt x="216" y="-5" on="0"/>
      </contour>
      <contour>
        <pt x="134" y="19" on="1"/>
        <pt x="215" y="19" on="0"/>
        <pt x="335" y="67" on="0"/>
        <pt x="412" y="148" on="0"/>
        <pt x="449" y="256" on="0"/>
        <pt x="449" y="316" on="1"/>
        <pt x="449" y="413" on="0"/>
        <pt x="334" y="504" on="0"/>
        <pt x="236" y="504" on="1"/>
        <pt x="222" y="504" on="0"/>
        <pt x="193" y="502" on="0"/>
        <pt x="177" y="500" on="1"/>
        <pt x="133" y="278" on="1"/>
        <pt x="280" y="278" on="1"/>
        <pt x="275" y="257" on="1"/>
        <pt x="129" y="257" on="1"/>
        <pt x="83" y="21" on="1"/>
        <pt x="96" y="20" on="0"/>
        <pt x="122" y="19" on="0"/>
      </contour>
    </TTGlyph>
    <TTGlyph name="Euro" xMin="20" yMin="-12" xMax="535" yMax="633">
      <contour>
        <pt x="455" y="28" on="1"/>
        <pt x="409" y="8" on="0"/>
        <pt x="325" y="-12" on="0"/>
        <pt x="289" y="-12" on="1"/>
        <pt x="199" y="-12" on="0"/>
        <pt x="99" y="106" on="0"/>
        <pt x="99" y="214" on="1"/>
        <pt x="20" y="214" on="1"/>
        <pt x="24" y="236" on="1"/>
        <pt x="99" y="236" on="1"/>
        <pt x="100" y="270" on="0"/>
        <pt x="113" y="339" on="0"/>
        <pt x="123" y="371" on="1"/>
        <pt x="50" y="371" on="1"/>
        <pt x="54" y="393" on="1"/>
        <pt x="131" y="393" on="1"/>
        <pt x="149" y="443" on="0"/>
        <pt x="205" y="531" on="0"/>
        <pt x="274" y="596" on="0"/>
        <pt x="356" y="633" on="0"/>
        <pt x="401" y="633" on="1"/>
        <pt x="476" y="633" on="0"/>
        <pt x="535" y="540" on="0"/>
        <pt x="535" y="454" on="1"/>
        <pt x="535" y="449" on="1"/>
        <pt x="507" y="448" on="1"/>
        <pt x="507" y="455" on="1"/>
        <pt x="507" y="527" on="0"/>
        <pt x="464" y="610" on="0"/>
        <pt x="398" y="610" on="1"/>
        <pt x="358" y="610" on="0"/>
        <pt x="286" y="576" on="0"/>
        <pt x="224" y="518" on="0"/>
        <pt x="175" y="438" on="0"/>
        <pt x="158" y="393" on="1"/>
        <pt x="401" y="393" on="1"/>
        <pt x="396" y="371" on="1"/>
        <pt x="150" y="371" on="1"/>
        <pt x="140" y="339" on="0"/>
        <pt x="127" y="270" on="0"/>
        <pt x="126" y="236" on="1"/>
        <pt x="371" y="236" on="1"/>
        <pt x="366" y="214" on="1"/>
        <pt x="126" y="214" on="1"/>
        <pt x="127" y="112" on="0"/>
        <pt x="216" y="12" on="0"/>
        <pt x="293" y="12" on="1"/>
        <pt x="327" y="12" on="0"/>
        <pt x="406" y="31" on="0"/>
        <pt x="450" y="49" on="1"/>
      </contour>
    </TTGlyph>
    <TTGlyph name="F" xMin="61" yMin="0" xMax="525" yMax="620">
      <contour>
        <pt x="414" y="291" on="1"/>
        <pt x="144" y="291" on="1"/>
        <pt x="88" y="0" on="1"/>
        <pt x="61" y="0" on="1"/>
        <pt x="181" y="620" on="1"/>
        <pt x="525" y="620" on="1"/>
        <pt x="521" y="596" on="1"/>
        <pt x="203" y="596" on="1"/>
        <pt x="148" y="313" on="1"/>
        <pt x="418" y="313" on="1"/>
      </contour>
    </TTGlyph>
    <TTGlyph name="F.sc" xMin="53" yMin="0" xMax="451" yMax="521">
      <contour>
        <pt x="356" y="243" on="1"/>
        <pt x="127" y="243" on="1"/>
        <pt x="80" y="0" on="1"/>
        <pt x="53" y="0" on="1"/>
        <pt x="154" y="521" on="1"/>
        <pt x="451" y="521" on="1"/>
        <pt x="447" y="497" on="1"/>
        <pt x="176" y="497" on="1"/>
        <pt x="131" y="265" on="1"/>
        <pt x="360" y="265" on="1"/>
      </contour>
    </TTGlyph>
    <TTGlyph name="G" xMin="75" yMin="-111" xMax="536" yMax="633">
      <contour>
        <pt x="430" y="-110" on="1"/>
        <pt x="406" y="-111" on="1"/>
        <pt x="434" y="14" on="1"/>
        <pt x="394" y="1" on="0"/>
        <pt x="320" y="-13" on="0"/>
        <pt x="287" y="-13" on="1"/>
        <pt x="188" y="-13" on="0"/>
        <pt x="75" y="105" on="0"/>
        <pt x="75" y="216" on="1"/>
        <pt x="75" y="296" on="0"/>
        <pt x="124" y="447" on="0"/>
        <pt x="209" y="563" on="0"/>
        <pt x="327" y="633" on="0"/>
        <pt x="395" y="633" on="1"/>
        <pt x="471" y="633" on="0"/>
        <pt x="536" y="542" on="0"/>
        <pt x="536" y="450" on="1"/>
        <pt x="536" y="443" on="0"/>
        <pt x="535" y="428" on="0"/>
        <pt x="535" y="421" on="1"/>
        <pt x="509" y="421" on="1"/>
        <pt x="509" y="445" on="1"/>
        <pt x="509" y="522" on="0"/>
        <pt x="464" y="610" on="0"/>
        <pt x="392" y="610" on="1"/>
        <pt x="330" y="610" on="0"/>
        <pt x="223" y="543" on="0"/>
        <pt x="146" y="434" on="0"/>
        <pt x="102" y="294" on="0"/>
        <pt x="102" y="222" on="1"/>
        <pt x="102" y="116" on="0"/>
        <pt x="203" y="10" on="0"/>
        <pt x="290" y="10" on="1"/>
        <pt x="323" y="10" on="0"/>
        <pt x="399" y="25" on="0"/>
        <pt x="440" y="40" on="1"/>
        <pt x="484" y="236" on="1"/>
        <pt x="511" y="237" on="1"/>
      </contour>
    </TTGlyph>
    <TTGlyph name="G.sc" xMin="59" yMin="-93" xMax="457" yMax="532">
      <contour>
        <pt x="367" y="-92" on="1"/>
        <pt x="343" y="-93" on="1"/>
        <pt x="367" y="11" on="1"/>
        <pt x="333" y="1" on="0"/>
        <pt x="269" y="-10" on="0"/>
        <pt x="241" y="-10" on="1"/>
        <pt x="157" y="-10" on="0"/>
        <pt x="59" y="89" on="0"/>
        <pt x="59" y="182" on="1"/>
        <pt x="59" y="249" on="0"/>
        <pt x="101" y="376" on="0"/>
        <pt x="175" y="473" on="0"/>
        <pt x="276" y="532" on="0"/>
        <pt x="335" y="532" on="1"/>
        <pt x="401" y="532" on="0"/>
        <pt x="457" y="456" on="0"/>
        <pt x="457" y="379" on="1"/>
        <pt x="457" y="373" on="0"/>
        <pt x="456" y="359" on="0"/>
        <pt x="456" y="352" on="1"/>
        <pt x="430" y="352" on="1"/>
        <pt x="430" y="374" on="1"/>
        <pt x="430" y="437" on="0"/>
        <pt x="391" y="509" on="0"/>
        <pt x="331" y="509" on="1"/>
        <pt x="278" y="509" on="0"/>
        <pt x="188" y="453" on="0"/>
        <pt x="123" y="364" on="0"/>
        <pt x="86" y="248" on="0"/>
        <pt x="86" y="188" on="1"/>
        <pt x="86" y="100" on="0"/>
        <pt x="172" y="12" on="0"/>
        <pt x="246" y="12" on="1"/>
        <pt x="274" y="12" on="0"/>
        <pt x="338" y="24" on="0"/>
        <pt x="372" y="36" on="1"/>
        <pt x="409" y="199" on="1"/>
        <pt x="435" y="199" on="1"/>
      </contour>
    </TTGlyph>
    <TTGlyph name="Gbreve" xMin="75" yMin="-111" xMax="595" yMax="871">
      <contour>
        <pt x="579" y="870" on="1"/>
        <pt x="595" y="858" on="1"/>
        <pt x="549" y="792" on="0"/>
        <pt x="462" y="718" on="0"/>
        <pt x="416" y="718" on="1"/>
        <pt x="373" y="718" on="0"/>
        <pt x="310" y="788" on="0"/>
        <pt x="285" y="863" on="1"/>
        <pt x="307" y="871" on="1"/>
        <pt x="332" y="800" on="0"/>
        <pt x="383" y="741" on="0"/>
        <pt x="420" y="741" on="1"/>
        <pt x="461" y="741" on="0"/>
        <pt x="535" y="809" on="0"/>
      </contour>
      <contour>
        <pt x="430" y="-110" on="1"/>
        <pt x="406" y="-111" on="1"/>
        <pt x="434" y="14" on="1"/>
        <pt x="394" y="1" on="0"/>
        <pt x="320" y="-13" on="0"/>
        <pt x="287" y="-13" on="1"/>
        <pt x="188" y="-13" on="0"/>
        <pt x="75" y="105" on="0"/>
        <pt x="75" y="216" on="1"/>
        <pt x="75" y="296" on="0"/>
        <pt x="124" y="447" on="0"/>
        <pt x="209" y="563" on="0"/>
        <pt x="327" y="633" on="0"/>
        <pt x="395" y="633" on="1"/>
        <pt x="471" y="633" on="0"/>
        <pt x="536" y="542" on="0"/>
        <pt x="536" y="450" on="1"/>
        <pt x="536" y="443" on="0"/>
        <pt x="535" y="428" on="0"/>
        <pt x="535" y="421" on="1"/>
        <pt x="509" y="421" on="1"/>
        <pt x="509" y="445" on="1"/>
        <pt x="509" y="522" on="0"/>
        <pt x="464" y="610" on="0"/>
        <pt x="392" y="610" on="1"/>
        <pt x="330" y="610" on="0"/>
        <pt x="223" y="543" on="0"/>
        <pt x="146" y="434" on="0"/>
        <pt x="102" y="294" on="0"/>
        <pt x="102" y="222" on="1"/>
        <pt x="102" y="116" on="0"/>
        <pt x="203" y="10" on="0"/>
        <pt x="290" y="10" on="1"/>
        <pt x="323" y="10" on="0"/>
        <pt x="399" y="25" on="0"/>
        <pt x="440" y="40" on="1"/>
        <pt x="484" y="236" on="1"/>
        <pt x="511" y="237" on="1"/>
      </contour>
    </TTGlyph>
    <TTGlyph name="Gbreve.sc" xMin="59" yMin="-93" xMax="538" yMax="775">
      <contour>
        <pt x="522" y="774" on="1"/>
        <pt x="538" y="762" on="1"/>
        <pt x="492" y="696" on="0"/>
        <pt x="405" y="622" on="0"/>
        <pt x="359" y="622" on="1"/>
        <pt x="316" y="622" on="0"/>
        <pt x="253" y="692" on="0"/>
        <pt x="228" y="767" on="1"/>
        <pt x="250" y="775" on="1"/>
        <pt x="275" y="704" on="0"/>
        <pt x="326" y="645" on="0"/>
        <pt x="363" y="645" on="1"/>
        <pt x="404" y="645" on="0"/>
        <pt x="478" y="713" on="0"/>
      </contour>
      <contour>
        <pt x="367" y="-92" on="1"/>
        <pt x="343" y="-93" on="1"/>
        <pt x="367" y="11" on="1"/>
        <pt x="333" y="1" on="0"/>
        <pt x="269" y="-10" on="0"/>
        <pt x="241" y="-10" on="1"/>
        <pt x="157" y="-10" on="0"/>
        <pt x="59" y="89" on="0"/>
        <pt x="59" y="182" on="1"/>
        <pt x="59" y="249" on="0"/>
        <pt x="101" y="376" on="0"/>
        <pt x="175" y="473" on="0"/>
        <pt x="276" y="532" on="0"/>
        <pt x="335" y="532" on="1"/>
        <pt x="401" y="532" on="0"/>
        <pt x="457" y="456" on="0"/>
        <pt x="457" y="379" on="1"/>
        <pt x="457" y="373" on="0"/>
        <pt x="456" y="359" on="0"/>
        <pt x="456" y="352" on="1"/>
        <pt x="430" y="352" on="1"/>
        <pt x="430" y="374" on="1"/>
        <pt x="430" y="437" on="0"/>
        <pt x="391" y="509" on="0"/>
        <pt x="331" y="509" on="1"/>
        <pt x="278" y="509" on="0"/>
        <pt x="188" y="453" on="0"/>
        <pt x="123" y="364" on="0"/>
        <pt x="86" y="248" on="0"/>
        <pt x="86" y="188" on="1"/>
        <pt x="86" y="100" on="0"/>
        <pt x="172" y="12" on="0"/>
        <pt x="246" y="12" on="1"/>
        <pt x="274" y="12" on="0"/>
        <pt x="338" y="24" on="0"/>
        <pt x="372" y="36" on="1"/>
        <pt x="409" y="199" on="1"/>
        <pt x="435" y="199" on="1"/>
      </contour>
    </TTGlyph>
    <TTGlyph name="Gcommaaccent" xMin="75" yMin="-335" xMax="536" yMax="633">
      <contour>
        <pt x="430" y="-110" on="1"/>
        <pt x="406" y="-111" on="1"/>
        <pt x="434" y="14" on="1"/>
        <pt x="394" y="1" on="0"/>
        <pt x="320" y="-13" on="0"/>
        <pt x="287" y="-13" on="1"/>
        <pt x="188" y="-13" on="0"/>
        <pt x="75" y="105" on="0"/>
        <pt x="75" y="216" on="1"/>
        <pt x="75" y="296" on="0"/>
        <pt x="124" y="447" on="0"/>
        <pt x="209" y="563" on="0"/>
        <pt x="327" y="633" on="0"/>
        <pt x="395" y="633" on="1"/>
        <pt x="471" y="633" on="0"/>
        <pt x="536" y="542" on="0"/>
        <pt x="536" y="450" on="1"/>
        <pt x="536" y="443" on="0"/>
        <pt x="535" y="428" on="0"/>
        <pt x="535" y="421" on="1"/>
        <pt x="509" y="421" on="1"/>
        <pt x="509" y="445" on="1"/>
        <pt x="509" y="522" on="0"/>
        <pt x="464" y="610" on="0"/>
        <pt x="392" y="610" on="1"/>
        <pt x="330" y="610" on="0"/>
        <pt x="223" y="543" on="0"/>
        <pt x="146" y="434" on="0"/>
        <pt x="102" y="294" on="0"/>
        <pt x="102" y="222" on="1"/>
        <pt x="102" y="116" on="0"/>
        <pt x="203" y="10" on="0"/>
        <pt x="290" y="10" on="1"/>
        <pt x="323" y="10" on="0"/>
        <pt x="399" y="25" on="0"/>
        <pt x="440" y="40" on="1"/>
        <pt x="484" y="236" on="1"/>
        <pt x="511" y="237" on="1"/>
      </contour>
      <contour>
        <pt x="178" y="-328" on="1"/>
        <pt x="208" y="-288" on="0"/>
        <pt x="230" y="-225" on="0"/>
        <pt x="230" y="-197" on="1"/>
        <pt x="230" y="-184" on="0"/>
        <pt x="226" y="-156" on="0"/>
        <pt x="223" y="-143" on="1"/>
        <pt x="262" y="-140" on="1"/>
        <pt x="263" y="-145" on="0"/>
        <pt x="263" y="-157" on="0"/>
        <pt x="263" y="-162" on="1"/>
        <pt x="263" y="-199" on="0"/>
        <pt x="229" y="-286" on="0"/>
        <pt x="188" y="-335" on="1"/>
      </contour>
    </TTGlyph>
    <TTGlyph name="Gcommaaccent.sc" xMin="59" yMin="-358" xMax="457" yMax="532">
      <contour>
        <pt x="367" y="-92" on="1"/>
        <pt x="343" y="-93" on="1"/>
        <pt x="367" y="11" on="1"/>
        <pt x="333" y="1" on="0"/>
        <pt x="269" y="-10" on="0"/>
        <pt x="241" y="-10" on="1"/>
        <pt x="157" y="-10" on="0"/>
        <pt x="59" y="89" on="0"/>
        <pt x="59" y="182" on="1"/>
        <pt x="59" y="249" on="0"/>
        <pt x="101" y="376" on="0"/>
        <pt x="175" y="473" on="0"/>
        <pt x="276" y="532" on="0"/>
        <pt x="335" y="532" on="1"/>
        <pt x="401" y="532" on="0"/>
        <pt x="457" y="456" on="0"/>
        <pt x="457" y="379" on="1"/>
        <pt x="457" y="373" on="0"/>
        <pt x="456" y="359" on="0"/>
        <pt x="456" y="352" on="1"/>
        <pt x="430" y="352" on="1"/>
        <pt x="430" y="374" on="1"/>
        <pt x="430" y="437" on="0"/>
        <pt x="391" y="509" on="0"/>
        <pt x="331" y="509" on="1"/>
        <pt x="278" y="509" on="0"/>
        <pt x="188" y="453" on="0"/>
        <pt x="123" y="364" on="0"/>
        <pt x="86" y="248" on="0"/>
        <pt x="86" y="188" on="1"/>
        <pt x="86" y="100" on="0"/>
        <pt x="172" y="12" on="0"/>
        <pt x="246" y="12" on="1"/>
        <pt x="274" y="12" on="0"/>
        <pt x="338" y="24" on="0"/>
        <pt x="372" y="36" on="1"/>
        <pt x="409" y="199" on="1"/>
        <pt x="435" y="199" on="1"/>
      </contour>
      <contour>
        <pt x="136" y="-351" on="1"/>
        <pt x="166" y="-311" on="0"/>
        <pt x="188" y="-248" on="0"/>
        <pt x="188" y="-220" on="1"/>
        <pt x="188" y="-207" on="0"/>
        <pt x="184" y="-179" on="0"/>
        <pt x="181" y="-166" on="1"/>
        <pt x="220" y="-163" on="1"/>
        <pt x="221" y="-168" on="0"/>
        <pt x="221" y="-180" on="0"/>
        <pt x="221" y="-185" on="1"/>
        <pt x="221" y="-222" on="0"/>
        <pt x="187" y="-309" on="0"/>
        <pt x="146" y="-358" on="1"/>
      </contour>
    </TTGlyph>
    <TTGlyph name="Gdotaccent" xMin="75" yMin="-111" xMax="536" yMax="845">
      <contour>
        <pt x="417" y="716" on="1"/>
        <pt x="395" y="715" on="1"/>
        <pt x="425" y="844" on="1"/>
        <pt x="453" y="845" on="1"/>
      </contour>
      <contour>
        <pt x="430" y="-110" on="1"/>
        <pt x="406" y="-111" on="1"/>
        <pt x="434" y="14" on="1"/>
        <pt x="394" y="1" on="0"/>
        <pt x="320" y="-13" on="0"/>
        <pt x="287" y="-13" on="1"/>
        <pt x="188" y="-13" on="0"/>
        <pt x="75" y="105" on="0"/>
        <pt x="75" y="216" on="1"/>
        <pt x="75" y="296" on="0"/>
        <pt x="124" y="447" on="0"/>
        <pt x="209" y="563" on="0"/>
        <pt x="327" y="633" on="0"/>
        <pt x="395" y="633" on="1"/>
        <pt x="471" y="633" on="0"/>
        <pt x="536" y="542" on="0"/>
        <pt x="536" y="450" on="1"/>
        <pt x="536" y="443" on="0"/>
        <pt x="535" y="428" on="0"/>
        <pt x="535" y="421" on="1"/>
        <pt x="509" y="421" on="1"/>
        <pt x="509" y="445" on="1"/>
        <pt x="509" y="522" on="0"/>
        <pt x="464" y="610" on="0"/>
        <pt x="392" y="610" on="1"/>
        <pt x="330" y="610" on="0"/>
        <pt x="223" y="543" on="0"/>
        <pt x="146" y="434" on="0"/>
        <pt x="102" y="294" on="0"/>
        <pt x="102" y="222" on="1"/>
        <pt x="102" y="116" on="0"/>
        <pt x="203" y="10" on="0"/>
        <pt x="290" y="10" on="1"/>
        <pt x="323" y="10" on="0"/>
        <pt x="399" y="25" on="0"/>
        <pt x="440" y="40" on="1"/>
        <pt x="484" y="236" on="1"/>
        <pt x="511" y="237" on="1"/>
      </contour>
    </TTGlyph>
    <TTGlyph name="Gdotaccent.sc" xMin="59" yMin="-93" xMax="457" yMax="749">
      <contour>
        <pt x="360" y="620" on="1"/>
        <pt x="338" y="619" on="1"/>
        <pt x="368" y="748" on="1"/>
        <pt x="396" y="749" on="1"/>
      </contour>
      <contour>
        <pt x="367" y="-92" on="1"/>
        <pt x="343" y="-93" on="1"/>
        <pt x="367" y="11" on="1"/>
        <pt x="333" y="1" on="0"/>
        <pt x="269" y="-10" on="0"/>
        <pt x="241" y="-10" on="1"/>
        <pt x="157" y="-10" on="0"/>
        <pt x="59" y="89" on="0"/>
        <pt x="59" y="182" on="1"/>
        <pt x="59" y="249" on="0"/>
        <pt x="101" y="376" on="0"/>
        <pt x="175" y="473" on="0"/>
        <pt x="276" y="532" on="0"/>
        <pt x="335" y="532" on="1"/>
        <pt x="401" y="532" on="0"/>
        <pt x="457" y="456" on="0"/>
        <pt x="457" y="379" on="1"/>
        <pt x="457" y="373" on="0"/>
        <pt x="456" y="359" on="0"/>
        <pt x="456" y="352" on="1"/>
        <pt x="430" y="352" on="1"/>
        <pt x="430" y="374" on="1"/>
        <pt x="430" y="437" on="0"/>
        <pt x="391" y="509" on="0"/>
        <pt x="331" y="509" on="1"/>
        <pt x="278" y="509" on="0"/>
        <pt x="188" y="453" on="0"/>
        <pt x="123" y="364" on="0"/>
        <pt x="86" y="248" on="0"/>
        <pt x="86" y="188" on="1"/>
        <pt x="86" y="100" on="0"/>
        <pt x="172" y="12" on="0"/>
        <pt x="246" y="12" on="1"/>
        <pt x="274" y="12" on="0"/>
        <pt x="338" y="24" on="0"/>
        <pt x="372" y="36" on="1"/>
        <pt x="409" y="199" on="1"/>
        <pt x="435" y="199" on="1"/>
      </contour>
    </TTGlyph>
    <TTGlyph name="H" xMin="61" yMin="0" xMax="598" yMax="620">
      <contour>
        <pt x="451" y="0" on="1"/>
        <pt x="510" y="305" on="1"/>
        <pt x="147" y="305" on="1"/>
        <pt x="88" y="0" on="1"/>
        <pt x="61" y="0" on="1"/>
        <pt x="181" y="620" on="1"/>
        <pt x="208" y="620" on="1"/>
        <pt x="151" y="327" on="1"/>
        <pt x="514" y="327" on="1"/>
        <pt x="571" y="620" on="1"/>
        <pt x="598" y="620" on="1"/>
        <pt x="478" y="0" on="1"/>
      </contour>
    </TTGlyph>
    <TTGlyph name="H.sc" xMin="52" yMin="0" xMax="515" yMax="521">
      <contour>
        <pt x="386" y="0" on="1"/>
        <pt x="436" y="254" on="1"/>
        <pt x="129" y="254" on="1"/>
        <pt x="79" y="0" on="1"/>
        <pt x="52" y="0" on="1"/>
        <pt x="154" y="521" on="1"/>
        <pt x="181" y="521" on="1"/>
        <pt x="133" y="276" on="1"/>
        <pt x="440" y="276" on="1"/>
        <pt x="488" y="521" on="1"/>
        <pt x="515" y="521" on="1"/>
        <pt x="413" y="0" on="1"/>
      </contour>
    </TTGlyph>
    <TTGlyph name="Hbar" xMin="61" yMin="0" xMax="654" yMax="620">
      <contour>
        <pt x="513" y="319" on="1"/>
        <pt x="540" y="459" on="1"/>
        <pt x="177" y="459" on="1"/>
        <pt x="150" y="319" on="1"/>
      </contour>
      <contour>
        <pt x="451" y="0" on="1"/>
        <pt x="508" y="297" on="1"/>
        <pt x="145" y="297" on="1"/>
        <pt x="88" y="0" on="1"/>
        <pt x="61" y="0" on="1"/>
        <pt x="150" y="459" on="1"/>
        <pt x="67" y="459" on="1"/>
        <pt x="71" y="480" on="1"/>
        <pt x="154" y="480" on="1"/>
        <pt x="181" y="620" on="1"/>
        <pt x="208" y="620" on="1"/>
        <pt x="181" y="480" on="1"/>
        <pt x="544" y="480" on="1"/>
        <pt x="571" y="620" on="1"/>
        <pt x="598" y="620" on="1"/>
        <pt x="571" y="480" on="1"/>
        <pt x="654" y="480" on="1"/>
        <pt x="650" y="459" on="1"/>
        <pt x="567" y="459" on="1"/>
        <pt x="478" y="0" on="1"/>
      </contour>
    </TTGlyph>
    <TTGlyph name="Hbar.sc" xMin="52" yMin="0" xMax="565" yMax="521">
      <contour>
        <pt x="440" y="276" on="1"/>
        <pt x="461" y="384" on="1"/>
        <pt x="154" y="384" on="1"/>
        <pt x="133" y="276" on="1"/>
      </contour>
      <contour>
        <pt x="386" y="0" on="1"/>
        <pt x="436" y="254" on="1"/>
        <pt x="129" y="254" on="1"/>
        <pt x="79" y="0" on="1"/>
        <pt x="52" y="0" on="1"/>
        <pt x="127" y="384" on="1"/>
        <pt x="55" y="384" on="1"/>
        <pt x="59" y="406" on="1"/>
        <pt x="131" y="406" on="1"/>
        <pt x="154" y="521" on="1"/>
        <pt x="181" y="521" on="1"/>
        <pt x="158" y="405" on="1"/>
        <pt x="465" y="405" on="1"/>
        <pt x="488" y="521" on="1"/>
        <pt x="515" y="521" on="1"/>
        <pt x="492" y="406" on="1"/>
        <pt x="565" y="406" on="1"/>
        <pt x="561" y="384" on="1"/>
        <pt x="488" y="384" on="1"/>
        <pt x="413" y="0" on="1"/>
      </contour>
    </TTGlyph>
    <TTGlyph name="I" xMin="26" yMin="0" xMax="460" yMax="620">
      <contour>
        <pt x="201" y="21" on="1"/>
        <pt x="348" y="21" on="1"/>
        <pt x="344" y="0" on="1"/>
        <pt x="26" y="0" on="1"/>
        <pt x="30" y="21" on="1"/>
        <pt x="174" y="21" on="1"/>
        <pt x="286" y="599" on="1"/>
        <pt x="138" y="599" on="1"/>
        <pt x="142" y="620" on="1"/>
        <pt x="460" y="620" on="1"/>
        <pt x="456" y="599" on="1"/>
        <pt x="313" y="599" on="1"/>
      </contour>
    </TTGlyph>
    <TTGlyph name="I.sc" xMin="19" yMin="0" xMax="392" yMax="521">
      <contour>
        <pt x="173" y="21" on="1"/>
        <pt x="299" y="21" on="1"/>
        <pt x="294" y="0" on="1"/>
        <pt x="19" y="0" on="1"/>
        <pt x="23" y="21" on="1"/>
        <pt x="146" y="21" on="1"/>
        <pt x="239" y="500" on="1"/>
        <pt x="113" y="500" on="1"/>
        <pt x="117" y="521" on="1"/>
        <pt x="392" y="521" on="1"/>
        <pt x="388" y="500" on="1"/>
        <pt x="266" y="500" on="1"/>
      </contour>
    </TTGlyph>
    <TTGlyph name="Iacute" xMin="26" yMin="0" xMax="460" yMax="884">
      <contour>
        <pt x="237" y="712" on="1"/>
        <pt x="284" y="746" on="0"/>
        <pt x="387" y="844" on="0"/>
        <pt x="422" y="884" on="1"/>
        <pt x="448" y="860" on="1"/>
        <pt x="407" y="821" on="0"/>
        <pt x="296" y="734" on="0"/>
        <pt x="246" y="700" on="1"/>
      </contour>
      <contour>
        <pt x="201" y="21" on="1"/>
        <pt x="348" y="21" on="1"/>
        <pt x="344" y="0" on="1"/>
        <pt x="26" y="0" on="1"/>
        <pt x="30" y="21" on="1"/>
        <pt x="174" y="21" on="1"/>
        <pt x="286" y="599" on="1"/>
        <pt x="138" y="599" on="1"/>
        <pt x="142" y="620" on="1"/>
        <pt x="460" y="620" on="1"/>
        <pt x="456" y="599" on="1"/>
        <pt x="313" y="599" on="1"/>
      </contour>
    </TTGlyph>
    <TTGlyph name="Iacute.sc" xMin="19" yMin="0" xMax="401" yMax="785">
      <contour>
        <pt x="190" y="613" on="1"/>
        <pt x="237" y="647" on="0"/>
        <pt x="340" y="745" on="0"/>
        <pt x="375" y="785" on="1"/>
        <pt x="401" y="761" on="1"/>
        <pt x="360" y="722" on="0"/>
        <pt x="249" y="635" on="0"/>
        <pt x="199" y="601" on="1"/>
      </contour>
      <contour>
        <pt x="173" y="21" on="1"/>
        <pt x="299" y="21" on="1"/>
        <pt x="294" y="0" on="1"/>
        <pt x="19" y="0" on="1"/>
        <pt x="23" y="21" on="1"/>
        <pt x="146" y="21" on="1"/>
        <pt x="239" y="500" on="1"/>
        <pt x="113" y="500" on="1"/>
        <pt x="117" y="521" on="1"/>
        <pt x="392" y="521" on="1"/>
        <pt x="388" y="500" on="1"/>
        <pt x="266" y="500" on="1"/>
      </contour>
    </TTGlyph>
    <TTGlyph name="Ibreve" xMin="26" yMin="0" xMax="504" yMax="863">
      <contour>
        <pt x="488" y="862" on="1"/>
        <pt x="504" y="850" on="1"/>
        <pt x="458" y="784" on="0"/>
        <pt x="371" y="710" on="0"/>
        <pt x="325" y="710" on="1"/>
        <pt x="282" y="710" on="0"/>
        <pt x="219" y="780" on="0"/>
        <pt x="194" y="855" on="1"/>
        <pt x="216" y="863" on="1"/>
        <pt x="241" y="792" on="0"/>
        <pt x="292" y="733" on="0"/>
        <pt x="329" y="733" on="1"/>
        <pt x="370" y="733" on="0"/>
        <pt x="444" y="801" on="0"/>
      </contour>
      <contour>
        <pt x="201" y="21" on="1"/>
        <pt x="348" y="21" on="1"/>
        <pt x="344" y="0" on="1"/>
        <pt x="26" y="0" on="1"/>
        <pt x="30" y="21" on="1"/>
        <pt x="174" y="21" on="1"/>
        <pt x="286" y="599" on="1"/>
        <pt x="138" y="599" on="1"/>
        <pt x="142" y="620" on="1"/>
        <pt x="460" y="620" on="1"/>
        <pt x="456" y="599" on="1"/>
        <pt x="313" y="599" on="1"/>
      </contour>
    </TTGlyph>
    <TTGlyph name="Ibreve.sc" xMin="19" yMin="0" xMax="457" yMax="764">
      <contour>
        <pt x="441" y="763" on="1"/>
        <pt x="457" y="751" on="1"/>
        <pt x="411" y="685" on="0"/>
        <pt x="324" y="611" on="0"/>
        <pt x="278" y="611" on="1"/>
        <pt x="235" y="611" on="0"/>
        <pt x="172" y="681" on="0"/>
        <pt x="147" y="756" on="1"/>
        <pt x="169" y="764" on="1"/>
        <pt x="194" y="693" on="0"/>
        <pt x="245" y="634" on="0"/>
        <pt x="282" y="634" on="1"/>
        <pt x="323" y="634" on="0"/>
        <pt x="397" y="702" on="0"/>
      </contour>
      <contour>
        <pt x="173" y="21" on="1"/>
        <pt x="299" y="21" on="1"/>
        <pt x="294" y="0" on="1"/>
        <pt x="19" y="0" on="1"/>
        <pt x="23" y="21" on="1"/>
        <pt x="146" y="21" on="1"/>
        <pt x="239" y="500" on="1"/>
        <pt x="113" y="500" on="1"/>
        <pt x="117" y="521" on="1"/>
        <pt x="392" y="521" on="1"/>
        <pt x="388" y="500" on="1"/>
        <pt x="266" y="500" on="1"/>
      </contour>
    </TTGlyph>
    <TTGlyph name="Icircumflex" xMin="26" yMin="0" xMax="468" yMax="871">
      <contour>
        <pt x="449" y="703" on="1"/>
        <pt x="351" y="839" on="1"/>
        <pt x="191" y="707" on="1"/>
        <pt x="177" y="724" on="1"/>
        <pt x="355" y="871" on="1"/>
        <pt x="356" y="871" on="1"/>
        <pt x="468" y="718" on="1"/>
      </contour>
      <contour>
        <pt x="201" y="21" on="1"/>
        <pt x="348" y="21" on="1"/>
        <pt x="344" y="0" on="1"/>
        <pt x="26" y="0" on="1"/>
        <pt x="30" y="21" on="1"/>
        <pt x="174" y="21" on="1"/>
        <pt x="286" y="599" on="1"/>
        <pt x="138" y="599" on="1"/>
        <pt x="142" y="620" on="1"/>
        <pt x="460" y="620" on="1"/>
        <pt x="456" y="599" on="1"/>
        <pt x="313" y="599" on="1"/>
      </contour>
    </TTGlyph>
    <TTGlyph name="Icircumflex.sc" xMin="19" yMin="0" xMax="421" yMax="772">
      <contour>
        <pt x="402" y="604" on="1"/>
        <pt x="304" y="740" on="1"/>
        <pt x="144" y="608" on="1"/>
        <pt x="130" y="625" on="1"/>
        <pt x="308" y="772" on="1"/>
        <pt x="309" y="772" on="1"/>
        <pt x="421" y="619" on="1"/>
      </contour>
      <contour>
        <pt x="173" y="21" on="1"/>
        <pt x="299" y="21" on="1"/>
        <pt x="294" y="0" on="1"/>
        <pt x="19" y="0" on="1"/>
        <pt x="23" y="21" on="1"/>
        <pt x="146" y="21" on="1"/>
        <pt x="239" y="500" on="1"/>
        <pt x="113" y="500" on="1"/>
        <pt x="117" y="521" on="1"/>
        <pt x="392" y="521" on="1"/>
        <pt x="388" y="500" on="1"/>
        <pt x="266" y="500" on="1"/>
      </contour>
    </TTGlyph>
    <TTGlyph name="Idieresis" xMin="26" yMin="0" xMax="460" yMax="839">
      <contour>
        <pt x="422" y="710" on="1"/>
        <pt x="400" y="709" on="1"/>
        <pt x="430" y="838" on="1"/>
        <pt x="458" y="839" on="1"/>
      </contour>
      <contour>
        <pt x="230" y="707" on="1"/>
        <pt x="208" y="706" on="1"/>
        <pt x="238" y="835" on="1"/>
        <pt x="266" y="836" on="1"/>
      </contour>
      <contour>
        <pt x="201" y="21" on="1"/>
        <pt x="348" y="21" on="1"/>
        <pt x="344" y="0" on="1"/>
        <pt x="26" y="0" on="1"/>
        <pt x="30" y="21" on="1"/>
        <pt x="174" y="21" on="1"/>
        <pt x="286" y="599" on="1"/>
        <pt x="138" y="599" on="1"/>
        <pt x="142" y="620" on="1"/>
        <pt x="460" y="620" on="1"/>
        <pt x="456" y="599" on="1"/>
        <pt x="313" y="599" on="1"/>
      </contour>
    </TTGlyph>
    <TTGlyph name="Idieresis.sc" xMin="19" yMin="0" xMax="411" yMax="740">
      <contour>
        <pt x="375" y="611" on="1"/>
        <pt x="353" y="610" on="1"/>
        <pt x="383" y="739" on="1"/>
        <pt x="411" y="740" on="1"/>
      </contour>
      <contour>
        <pt x="183" y="608" on="1"/>
        <pt x="161" y="607" on="1"/>
        <pt x="191" y="736" on="1"/>
        <pt x="219" y="737" on="1"/>
      </contour>
      <contour>
        <pt x="173" y="21" on="1"/>
        <pt x="299" y="21" on="1"/>
        <pt x="294" y="0" on="1"/>
        <pt x="19" y="0" on="1"/>
        <pt x="23" y="21" on="1"/>
        <pt x="146" y="21" on="1"/>
        <pt x="239" y="500" on="1"/>
        <pt x="113" y="500" on="1"/>
        <pt x="117" y="521" on="1"/>
        <pt x="392" y="521" on="1"/>
        <pt x="388" y="500" on="1"/>
        <pt x="266" y="500" on="1"/>
      </contour>
    </TTGlyph>
    <TTGlyph name="Idotaccent" xMin="26" yMin="0" xMax="460" yMax="837">
      <contour>
        <pt x="326" y="708" on="1"/>
        <pt x="304" y="707" on="1"/>
        <pt x="334" y="836" on="1"/>
        <pt x="362" y="837" on="1"/>
      </contour>
      <contour>
        <pt x="201" y="21" on="1"/>
        <pt x="348" y="21" on="1"/>
        <pt x="344" y="0" on="1"/>
        <pt x="26" y="0" on="1"/>
        <pt x="30" y="21" on="1"/>
        <pt x="174" y="21" on="1"/>
        <pt x="286" y="599" on="1"/>
        <pt x="138" y="599" on="1"/>
        <pt x="142" y="620" on="1"/>
        <pt x="460" y="620" on="1"/>
        <pt x="456" y="599" on="1"/>
        <pt x="313" y="599" on="1"/>
      </contour>
    </TTGlyph>
    <TTGlyph name="Idotaccent.sc" xMin="19" yMin="0" xMax="392" yMax="738">
      <contour>
        <pt x="279" y="609" on="1"/>
        <pt x="257" y="608" on="1"/>
        <pt x="287" y="737" on="1"/>
        <pt x="315" y="738" on="1"/>
      </contour>
      <contour>
        <pt x="173" y="21" on="1"/>
        <pt x="299" y="21" on="1"/>
        <pt x="294" y="0" on="1"/>
        <pt x="19" y="0" on="1"/>
        <pt x="23" y="21" on="1"/>
        <pt x="146" y="21" on="1"/>
        <pt x="239" y="500" on="1"/>
        <pt x="113" y="500" on="1"/>
        <pt x="117" y="521" on="1"/>
        <pt x="392" y="521" on="1"/>
        <pt x="388" y="500" on="1"/>
        <pt x="266" y="500" on="1"/>
      </contour>
    </TTGlyph>
    <TTGlyph name="Igrave" xMin="26" yMin="0" xMax="460" yMax="891">
      <contour>
        <pt x="392" y="702" on="1"/>
        <pt x="381" y="690" on="1"/>
        <pt x="344" y="724" on="0"/>
        <pt x="258" y="825" on="0"/>
        <pt x="228" y="871" on="1"/>
        <pt x="258" y="891" on="1"/>
        <pt x="282" y="847" on="0"/>
        <pt x="358" y="738" on="0"/>
      </contour>
      <contour>
        <pt x="201" y="21" on="1"/>
        <pt x="348" y="21" on="1"/>
        <pt x="344" y="0" on="1"/>
        <pt x="26" y="0" on="1"/>
        <pt x="30" y="21" on="1"/>
        <pt x="174" y="21" on="1"/>
        <pt x="286" y="599" on="1"/>
        <pt x="138" y="599" on="1"/>
        <pt x="142" y="620" on="1"/>
        <pt x="460" y="620" on="1"/>
        <pt x="456" y="599" on="1"/>
        <pt x="313" y="599" on="1"/>
      </contour>
    </TTGlyph>
    <TTGlyph name="Igrave.sc" xMin="19" yMin="0" xMax="392" yMax="792">
      <contour>
        <pt x="345" y="603" on="1"/>
        <pt x="334" y="591" on="1"/>
        <pt x="297" y="625" on="0"/>
        <pt x="211" y="726" on="0"/>
        <pt x="181" y="772" on="1"/>
        <pt x="211" y="792" on="1"/>
        <pt x="235" y="748" on="0"/>
        <pt x="311" y="639" on="0"/>
      </contour>
      <contour>
        <pt x="173" y="21" on="1"/>
        <pt x="299" y="21" on="1"/>
        <pt x="294" y="0" on="1"/>
        <pt x="19" y="0" on="1"/>
        <pt x="23" y="21" on="1"/>
        <pt x="146" y="21" on="1"/>
        <pt x="239" y="500" on="1"/>
        <pt x="113" y="500" on="1"/>
        <pt x="117" y="521" on="1"/>
        <pt x="392" y="521" on="1"/>
        <pt x="388" y="500" on="1"/>
        <pt x="266" y="500" on="1"/>
      </contour>
    </TTGlyph>
    <TTGlyph name="Imacron" xMin="26" yMin="0" xMax="478" yMax="787">
      <contour>
        <pt x="478" y="787" on="1"/>
        <pt x="474" y="765" on="1"/>
        <pt x="191" y="765" on="1"/>
        <pt x="195" y="787" on="1"/>
      </contour>
      <contour>
        <pt x="201" y="21" on="1"/>
        <pt x="348" y="21" on="1"/>
        <pt x="344" y="0" on="1"/>
        <pt x="26" y="0" on="1"/>
        <pt x="30" y="21" on="1"/>
        <pt x="174" y="21" on="1"/>
        <pt x="286" y="599" on="1"/>
        <pt x="138" y="599" on="1"/>
        <pt x="142" y="620" on="1"/>
        <pt x="460" y="620" on="1"/>
        <pt x="456" y="599" on="1"/>
        <pt x="313" y="599" on="1"/>
      </contour>
    </TTGlyph>
    <TTGlyph name="Imacron.sc" xMin="19" yMin="0" xMax="430" yMax="688">
      <contour>
        <pt x="430" y="688" on="1"/>
        <pt x="426" y="666" on="1"/>
        <pt x="143" y="666" on="1"/>
        <pt x="147" y="688" on="1"/>
      </contour>
      <contour>
        <pt x="173" y="21" on="1"/>
        <pt x="299" y="21" on="1"/>
        <pt x="294" y="0" on="1"/>
        <pt x="19" y="0" on="1"/>
        <pt x="23" y="21" on="1"/>
        <pt x="146" y="21" on="1"/>
        <pt x="239" y="500" on="1"/>
        <pt x="113" y="500" on="1"/>
        <pt x="117" y="521" on="1"/>
        <pt x="392" y="521" on="1"/>
        <pt x="388" y="500" on="1"/>
        <pt x="266" y="500" on="1"/>
      </contour>
    </TTGlyph>
    <TTGlyph name="Iogonek" xMin="26" yMin="-205" xMax="460" yMax="620">
      <contour>
        <pt x="244" y="-167" on="1"/>
        <pt x="210" y="-186" on="0"/>
        <pt x="153" y="-205" on="0"/>
        <pt x="131" y="-205" on="1"/>
        <pt x="100" y="-205" on="0"/>
        <pt x="65" y="-173" on="0"/>
        <pt x="65" y="-148" on="1"/>
        <pt x="65" y="-117" on="0"/>
        <pt x="119" y="-37" on="0"/>
        <pt x="167" y="0" on="1"/>
        <pt x="26" y="0" on="1"/>
        <pt x="30" y="21" on="1"/>
        <pt x="174" y="21" on="1"/>
        <pt x="286" y="599" on="1"/>
        <pt x="138" y="599" on="1"/>
        <pt x="142" y="620" on="1"/>
        <pt x="460" y="620" on="1"/>
        <pt x="456" y="599" on="1"/>
        <pt x="313" y="599" on="1"/>
        <pt x="201" y="21" on="1"/>
        <pt x="348" y="21" on="1"/>
        <pt x="344" y="0" on="1"/>
        <pt x="197" y="0" on="1"/>
        <pt x="146" y="-38" on="0"/>
        <pt x="91" y="-115" on="0"/>
        <pt x="91" y="-145" on="1"/>
        <pt x="91" y="-162" on="0"/>
        <pt x="114" y="-182" on="0"/>
        <pt x="136" y="-182" on="1"/>
        <pt x="155" y="-182" on="0"/>
        <pt x="206" y="-167" on="0"/>
        <pt x="238" y="-151" on="1"/>
      </contour>
    </TTGlyph>
    <TTGlyph name="Iogonek.sc" xMin="19" yMin="-205" xMax="392" yMax="521">
      <contour>
        <pt x="215" y="-167" on="1"/>
        <pt x="181" y="-186" on="0"/>
        <pt x="124" y="-205" on="0"/>
        <pt x="102" y="-205" on="1"/>
        <pt x="71" y="-205" on="0"/>
        <pt x="36" y="-173" on="0"/>
        <pt x="36" y="-148" on="1"/>
        <pt x="36" y="-117" on="0"/>
        <pt x="90" y="-37" on="0"/>
        <pt x="138" y="0" on="1"/>
        <pt x="19" y="0" on="1"/>
        <pt x="23" y="21" on="1"/>
        <pt x="146" y="21" on="1"/>
        <pt x="239" y="500" on="1"/>
        <pt x="113" y="500" on="1"/>
        <pt x="117" y="521" on="1"/>
        <pt x="392" y="521" on="1"/>
        <pt x="388" y="500" on="1"/>
        <pt x="266" y="500" on="1"/>
        <pt x="173" y="21" on="1"/>
        <pt x="299" y="21" on="1"/>
        <pt x="294" y="0" on="1"/>
        <pt x="168" y="0" on="1"/>
        <pt x="117" y="-38" on="0"/>
        <pt x="62" y="-115" on="0"/>
        <pt x="62" y="-145" on="1"/>
        <pt x="62" y="-162" on="0"/>
        <pt x="85" y="-182" on="0"/>
        <pt x="107" y="-182" on="1"/>
        <pt x="126" y="-182" on="0"/>
        <pt x="177" y="-167" on="0"/>
        <pt x="209" y="-151" on="1"/>
      </contour>
    </TTGlyph>
    <TTGlyph name="J" xMin="12" yMin="-12" xMax="400" yMax="620">
      <contour>
        <pt x="12" y="-12" on="1"/>
        <pt x="17" y="13" on="1"/>
        <pt x="109" y="13" on="0"/>
        <pt x="217" y="28" on="0"/>
        <pt x="242" y="53" on="1"/>
        <pt x="251" y="62" on="0"/>
        <pt x="265" y="88" on="0"/>
        <pt x="278" y="134" on="0"/>
        <pt x="293" y="204" on="0"/>
        <pt x="303" y="255" on="1"/>
        <pt x="369" y="599" on="1"/>
        <pt x="169" y="599" on="1"/>
        <pt x="174" y="620" on="1"/>
        <pt x="400" y="620" on="1"/>
        <pt x="331" y="260" on="1"/>
        <pt x="320" y="202" on="0"/>
        <pt x="303" y="126" on="0"/>
        <pt x="287" y="79" on="0"/>
        <pt x="272" y="52" on="0"/>
        <pt x="262" y="42" on="1"/>
        <pt x="233" y="13" on="0"/>
        <pt x="116" y="-12" on="0"/>
      </contour>
    </TTGlyph>
    <TTGlyph name="J.sc" xMin="6" yMin="-10" xMax="342" yMax="521">
      <contour>
        <pt x="6" y="-10" on="1"/>
        <pt x="11" y="15" on="1"/>
        <pt x="92" y="15" on="0"/>
        <pt x="184" y="27" on="0"/>
        <pt x="205" y="48" on="1"/>
        <pt x="219" y="62" on="0"/>
        <pt x="239" y="131" on="0"/>
        <pt x="256" y="216" on="1"/>
        <pt x="311" y="500" on="1"/>
        <pt x="140" y="500" on="1"/>
        <pt x="145" y="521" on="1"/>
        <pt x="342" y="521" on="1"/>
        <pt x="284" y="220" on="1"/>
        <pt x="274" y="171" on="0"/>
        <pt x="259" y="107" on="0"/>
        <pt x="246" y="67" on="0"/>
        <pt x="232" y="44" on="0"/>
        <pt x="224" y="36" on="1"/>
        <pt x="199" y="11" on="0"/>
        <pt x="97" y="-10" on="0"/>
      </contour>
    </TTGlyph>
    <TTGlyph name="K" xMin="61" yMin="-2" xMax="556" yMax="620">
      <contour>
        <pt x="422" y="-2" on="1"/>
        <pt x="206" y="314" on="1"/>
        <pt x="524" y="620" on="1"/>
        <pt x="556" y="620" on="1"/>
        <pt x="239" y="312" on="1"/>
        <pt x="452" y="1" on="1"/>
      </contour>
      <contour>
        <pt x="181" y="620" on="1"/>
        <pt x="208" y="620" on="1"/>
        <pt x="88" y="0" on="1"/>
        <pt x="61" y="0" on="1"/>
      </contour>
    </TTGlyph>
    <TTGlyph name="K.sc" xMin="52" yMin="-2" xMax="481" yMax="521">
      <contour>
        <pt x="359" y="-2" on="1"/>
        <pt x="167" y="263" on="1"/>
        <pt x="449" y="521" on="1"/>
        <pt x="481" y="521" on="1"/>
        <pt x="200" y="262" on="1"/>
        <pt x="389" y="1" on="1"/>
      </contour>
      <contour>
        <pt x="154" y="521" on="1"/>
        <pt x="181" y="521" on="1"/>
        <pt x="79" y="0" on="1"/>
        <pt x="52" y="0" on="1"/>
      </contour>
    </TTGlyph>
    <TTGlyph name="Kcommaaccent" xMin="61" yMin="-267" xMax="556" yMax="620">
      <contour>
        <pt x="422" y="-2" on="1"/>
        <pt x="206" y="314" on="1"/>
        <pt x="524" y="620" on="1"/>
        <pt x="556" y="620" on="1"/>
        <pt x="239" y="312" on="1"/>
        <pt x="452" y="1" on="1"/>
      </contour>
      <contour>
        <pt x="181" y="620" on="1"/>
        <pt x="208" y="620" on="1"/>
        <pt x="88" y="0" on="1"/>
        <pt x="61" y="0" on="1"/>
      </contour>
      <contour>
        <pt x="169" y="-260" on="1"/>
        <pt x="199" y="-220" on="0"/>
        <pt x="221" y="-157" on="0"/>
        <pt x="221" y="-129" on="1"/>
        <pt x="221" y="-116" on="0"/>
        <pt x="217" y="-88" on="0"/>
        <pt x="214" y="-75" on="1"/>
        <pt x="253" y="-72" on="1"/>
        <pt x="254" y="-77" on="0"/>
        <pt x="254" y="-89" on="0"/>
        <pt x="254" y="-94" on="1"/>
        <pt x="254" y="-131" on="0"/>
        <pt x="220" y="-218" on="0"/>
        <pt x="179" y="-267" on="1"/>
      </contour>
    </TTGlyph>
    <TTGlyph name="Kcommaaccent.sc" xMin="52" yMin="-267" xMax="481" yMax="521">
      <contour>
        <pt x="359" y="-2" on="1"/>
        <pt x="167" y="263" on="1"/>
        <pt x="449" y="521" on="1"/>
        <pt x="481" y="521" on="1"/>
        <pt x="200" y="262" on="1"/>
        <pt x="389" y="1" on="1"/>
      </contour>
      <contour>
        <pt x="154" y="521" on="1"/>
        <pt x="181" y="521" on="1"/>
        <pt x="79" y="0" on="1"/>
        <pt x="52" y="0" on="1"/>
      </contour>
      <contour>
        <pt x="124" y="-260" on="1"/>
        <pt x="154" y="-220" on="0"/>
        <pt x="176" y="-157" on="0"/>
        <pt x="176" y="-129" on="1"/>
        <pt x="176" y="-116" on="0"/>
        <pt x="172" y="-88" on="0"/>
        <pt x="169" y="-75" on="1"/>
        <pt x="208" y="-72" on="1"/>
        <pt x="209" y="-77" on="0"/>
        <pt x="209" y="-89" on="0"/>
        <pt x="209" y="-94" on="1"/>
        <pt x="209" y="-131" on="0"/>
        <pt x="175" y="-218" on="0"/>
        <pt x="134" y="-267" on="1"/>
      </contour>
    </TTGlyph>
    <TTGlyph name="L" xMin="61" yMin="0" xMax="411" yMax="620">
      <contour>
        <pt x="404" y="0" on="1"/>
        <pt x="61" y="0" on="1"/>
        <pt x="181" y="620" on="1"/>
        <pt x="208" y="620" on="1"/>
        <pt x="93" y="24" on="1"/>
        <pt x="411" y="24" on="1"/>
      </contour>
    </TTGlyph>
    <TTGlyph name="L.sc" xMin="53" yMin="0" xMax="355" yMax="521">
      <contour>
        <pt x="348" y="0" on="1"/>
        <pt x="53" y="0" on="1"/>
        <pt x="154" y="521" on="1"/>
        <pt x="181" y="521" on="1"/>
        <pt x="85" y="24" on="1"/>
        <pt x="355" y="24" on="1"/>
      </contour>
    </TTGlyph>
    <TTGlyph name="Lacute" xMin="61" yMin="0" xMax="498" yMax="884">
      <contour>
        <pt x="287" y="712" on="1"/>
        <pt x="334" y="746" on="0"/>
        <pt x="437" y="844" on="0"/>
        <pt x="472" y="884" on="1"/>
        <pt x="498" y="860" on="1"/>
        <pt x="457" y="821" on="0"/>
        <pt x="346" y="734" on="0"/>
        <pt x="296" y="700" on="1"/>
      </contour>
      <contour>
        <pt x="404" y="0" on="1"/>
        <pt x="61" y="0" on="1"/>
        <pt x="181" y="620" on="1"/>
        <pt x="208" y="620" on="1"/>
        <pt x="93" y="24" on="1"/>
        <pt x="411" y="24" on="1"/>
      </contour>
    </TTGlyph>
    <TTGlyph name="Lacute.sc" xMin="53" yMin="0" xMax="423" yMax="785">
      <contour>
        <pt x="212" y="613" on="1"/>
        <pt x="259" y="647" on="0"/>
        <pt x="362" y="745" on="0"/>
        <pt x="397" y="785" on="1"/>
        <pt x="423" y="761" on="1"/>
        <pt x="382" y="722" on="0"/>
        <pt x="271" y="635" on="0"/>
        <pt x="221" y="601" on="1"/>
      </contour>
      <contour>
        <pt x="348" y="0" on="1"/>
        <pt x="53" y="0" on="1"/>
        <pt x="154" y="521" on="1"/>
        <pt x="181" y="521" on="1"/>
        <pt x="85" y="24" on="1"/>
        <pt x="355" y="24" on="1"/>
      </contour>
    </TTGlyph>
    <TTGlyph name="Lcaron" xMin="61" yMin="0" xMax="494" yMax="697">
      <contour>
        <pt x="453" y="693" on="1"/>
        <pt x="493" y="697" on="1"/>
        <pt x="493" y="693" on="0"/>
        <pt x="494" y="683" on="0"/>
        <pt x="494" y="679" on="1"/>
        <pt x="494" y="632" on="0"/>
        <pt x="456" y="515" on="0"/>
        <pt x="402" y="450" on="1"/>
        <pt x="389" y="460" on="1"/>
        <pt x="430" y="514" on="0"/>
        <pt x="457" y="600" on="0"/>
        <pt x="457" y="639" on="1"/>
        <pt x="457" y="652" on="0"/>
        <pt x="454" y="680" on="0"/>
      </contour>
      <contour>
        <pt x="404" y="0" on="1"/>
        <pt x="61" y="0" on="1"/>
        <pt x="181" y="620" on="1"/>
        <pt x="208" y="620" on="1"/>
        <pt x="93" y="24" on="1"/>
        <pt x="411" y="24" on="1"/>
      </contour>
    </TTGlyph>
    <TTGlyph name="Lcaron.sc" xMin="53" yMin="0" xMax="433" yMax="647">
      <contour>
        <pt x="392" y="643" on="1"/>
        <pt x="432" y="647" on="1"/>
        <pt x="432" y="643" on="0"/>
        <pt x="433" y="633" on="0"/>
        <pt x="433" y="629" on="1"/>
        <pt x="433" y="582" on="0"/>
        <pt x="395" y="465" on="0"/>
        <pt x="341" y="400" on="1"/>
        <pt x="328" y="410" on="1"/>
        <pt x="369" y="464" on="0"/>
        <pt x="396" y="550" on="0"/>
        <pt x="396" y="589" on="1"/>
        <pt x="396" y="602" on="0"/>
        <pt x="393" y="630" on="0"/>
      </contour>
      <contour>
        <pt x="348" y="0" on="1"/>
        <pt x="53" y="0" on="1"/>
        <pt x="154" y="521" on="1"/>
        <pt x="181" y="521" on="1"/>
        <pt x="85" y="24" on="1"/>
        <pt x="355" y="24" on="1"/>
      </contour>
    </TTGlyph>
    <TTGlyph name="Lcommaaccent" xMin="61" yMin="-265" xMax="411" yMax="620">
      <contour>
        <pt x="404" y="0" on="1"/>
        <pt x="61" y="0" on="1"/>
        <pt x="181" y="620" on="1"/>
        <pt x="208" y="620" on="1"/>
        <pt x="93" y="24" on="1"/>
        <pt x="411" y="24" on="1"/>
      </contour>
      <contour>
        <pt x="152" y="-258" on="1"/>
        <pt x="182" y="-218" on="0"/>
        <pt x="204" y="-155" on="0"/>
        <pt x="204" y="-127" on="1"/>
        <pt x="204" y="-114" on="0"/>
        <pt x="200" y="-86" on="0"/>
        <pt x="197" y="-73" on="1"/>
        <pt x="236" y="-70" on="1"/>
        <pt x="237" y="-75" on="0"/>
        <pt x="237" y="-87" on="0"/>
        <pt x="237" y="-92" on="1"/>
        <pt x="237" y="-129" on="0"/>
        <pt x="203" y="-216" on="0"/>
        <pt x="162" y="-265" on="1"/>
      </contour>
    </TTGlyph>
    <TTGlyph name="Lcommaaccent.sc" xMin="53" yMin="-265" xMax="355" yMax="521">
      <contour>
        <pt x="348" y="0" on="1"/>
        <pt x="53" y="0" on="1"/>
        <pt x="154" y="521" on="1"/>
        <pt x="181" y="521" on="1"/>
        <pt x="85" y="24" on="1"/>
        <pt x="355" y="24" on="1"/>
      </contour>
      <contour>
        <pt x="113" y="-258" on="1"/>
        <pt x="143" y="-218" on="0"/>
        <pt x="165" y="-155" on="0"/>
        <pt x="165" y="-127" on="1"/>
        <pt x="165" y="-114" on="0"/>
        <pt x="161" y="-86" on="0"/>
        <pt x="158" y="-73" on="1"/>
        <pt x="197" y="-70" on="1"/>
        <pt x="198" y="-75" on="0"/>
        <pt x="198" y="-87" on="0"/>
        <pt x="198" y="-92" on="1"/>
        <pt x="198" y="-129" on="0"/>
        <pt x="164" y="-216" on="0"/>
        <pt x="123" y="-265" on="1"/>
      </contour>
    </TTGlyph>
    <TTGlyph name="Ldot" xMin="61" yMin="0" xMax="422" yMax="620">
      <contour>
        <pt x="404" y="0" on="1"/>
        <pt x="61" y="0" on="1"/>
        <pt x="181" y="620" on="1"/>
        <pt x="208" y="620" on="1"/>
        <pt x="93" y="24" on="1"/>
        <pt x="411" y="24" on="1"/>
      </contour>
      <contour>
        <pt x="409" y="280" on="1"/>
        <pt x="358" y="280" on="1"/>
        <pt x="371" y="347" on="1"/>
        <pt x="422" y="347" on="1"/>
      </contour>
    </TTGlyph>
    <TTGlyph name="Ldot.sc" xMin="53" yMin="0" xMax="368" yMax="521">
      <contour>
        <pt x="348" y="0" on="1"/>
        <pt x="53" y="0" on="1"/>
        <pt x="154" y="521" on="1"/>
        <pt x="181" y="521" on="1"/>
        <pt x="85" y="24" on="1"/>
        <pt x="355" y="24" on="1"/>
      </contour>
      <contour>
        <pt x="355" y="230" on="1"/>
        <pt x="304" y="230" on="1"/>
        <pt x="317" y="297" on="1"/>
        <pt x="368" y="297" on="1"/>
      </contour>
    </TTGlyph>
    <TTGlyph name="Lslash" xMin="35" yMin="0" xMax="411" yMax="620">
      <contour>
        <pt x="404" y="0" on="1"/>
        <pt x="61" y="0" on="1"/>
        <pt x="123" y="322" on="1"/>
        <pt x="36" y="280" on="1"/>
        <pt x="35" y="304" on="1"/>
        <pt x="129" y="349" on="1"/>
        <pt x="181" y="620" on="1"/>
        <pt x="208" y="620" on="1"/>
        <pt x="159" y="364" on="1"/>
        <pt x="323" y="443" on="1"/>
        <pt x="324" y="419" on="1"/>
        <pt x="153" y="337" on="1"/>
        <pt x="93" y="24" on="1"/>
        <pt x="411" y="24" on="1"/>
      </contour>
    </TTGlyph>
    <TTGlyph name="Lslash.sc" xMin="14" yMin="0" xMax="355" yMax="521">
      <contour>
        <pt x="348" y="0" on="1"/>
        <pt x="53" y="0" on="1"/>
        <pt x="102" y="251" on="1"/>
        <pt x="15" y="209" on="1"/>
        <pt x="14" y="233" on="1"/>
        <pt x="107" y="278" on="1"/>
        <pt x="154" y="521" on="1"/>
        <pt x="181" y="521" on="1"/>
        <pt x="137" y="292" on="1"/>
        <pt x="302" y="372" on="1"/>
        <pt x="303" y="348" on="1"/>
        <pt x="132" y="265" on="1"/>
        <pt x="85" y="24" on="1"/>
        <pt x="355" y="24" on="1"/>
      </contour>
    </TTGlyph>
    <TTGlyph name="M" xMin="61" yMin="0" xMax="664" yMax="621">
      <contour>
        <pt x="225" y="621" on="1"/>
        <pt x="317" y="97" on="1"/>
        <pt x="319" y="97" on="1"/>
        <pt x="616" y="620" on="1"/>
        <pt x="664" y="620" on="1"/>
        <pt x="544" y="0" on="1"/>
        <pt x="517" y="0" on="1"/>
        <pt x="633" y="595" on="1"/>
        <pt x="630" y="595" on="1"/>
        <pt x="332" y="70" on="1"/>
        <pt x="297" y="70" on="1"/>
        <pt x="204" y="595" on="1"/>
        <pt x="201" y="595" on="1"/>
        <pt x="87" y="0" on="1"/>
        <pt x="61" y="0" on="1"/>
        <pt x="181" y="619" on="1"/>
      </contour>
    </TTGlyph>
    <TTGlyph name="M.sc" xMin="53" yMin="0" xMax="573" yMax="522">
      <contour>
        <pt x="198" y="522" on="1"/>
        <pt x="276" y="89" on="1"/>
        <pt x="277" y="89" on="1"/>
        <pt x="526" y="521" on="1"/>
        <pt x="573" y="521" on="1"/>
        <pt x="472" y="0" on="1"/>
        <pt x="445" y="0" on="1"/>
        <pt x="542" y="495" on="1"/>
        <pt x="539" y="495" on="1"/>
        <pt x="291" y="63" on="1"/>
        <pt x="256" y="63" on="1"/>
        <pt x="177" y="494" on="1"/>
        <pt x="174" y="494" on="1"/>
        <pt x="79" y="0" on="1"/>
        <pt x="53" y="0" on="1"/>
        <pt x="154" y="520" on="1"/>
      </contour>
    </TTGlyph>
    <TTGlyph name="N" xMin="61" yMin="0" xMax="603" yMax="620">
      <contour>
        <pt x="447" y="0" on="1"/>
        <pt x="206" y="591" on="1"/>
        <pt x="201" y="591" on="1"/>
        <pt x="88" y="0" on="1"/>
        <pt x="61" y="0" on="1"/>
        <pt x="181" y="620" on="1"/>
        <pt x="221" y="620" on="1"/>
        <pt x="459" y="37" on="1"/>
        <pt x="464" y="37" on="1"/>
        <pt x="576" y="620" on="1"/>
        <pt x="603" y="620" on="1"/>
        <pt x="483" y="0" on="1"/>
      </contour>
    </TTGlyph>
    <TTGlyph name="N.sc" xMin="53" yMin="0" xMax="519" yMax="521">
      <contour>
        <pt x="382" y="0" on="1"/>
        <pt x="179" y="492" on="1"/>
        <pt x="174" y="492" on="1"/>
        <pt x="80" y="0" on="1"/>
        <pt x="53" y="0" on="1"/>
        <pt x="154" y="521" on="1"/>
        <pt x="194" y="521" on="1"/>
        <pt x="394" y="37" on="1"/>
        <pt x="399" y="37" on="1"/>
        <pt x="492" y="521" on="1"/>
        <pt x="519" y="521" on="1"/>
        <pt x="418" y="0" on="1"/>
      </contour>
    </TTGlyph>
    <TTGlyph name="Nacute" xMin="61" yMin="0" xMax="603" yMax="884">
      <contour>
        <pt x="324" y="712" on="1"/>
        <pt x="371" y="746" on="0"/>
        <pt x="474" y="844" on="0"/>
        <pt x="509" y="884" on="1"/>
        <pt x="535" y="860" on="1"/>
        <pt x="494" y="821" on="0"/>
        <pt x="383" y="734" on="0"/>
        <pt x="333" y="700" on="1"/>
      </contour>
      <contour>
        <pt x="447" y="0" on="1"/>
        <pt x="206" y="591" on="1"/>
        <pt x="201" y="591" on="1"/>
        <pt x="88" y="0" on="1"/>
        <pt x="61" y="0" on="1"/>
        <pt x="181" y="620" on="1"/>
        <pt x="221" y="620" on="1"/>
        <pt x="459" y="37" on="1"/>
        <pt x="464" y="37" on="1"/>
        <pt x="576" y="620" on="1"/>
        <pt x="603" y="620" on="1"/>
        <pt x="483" y="0" on="1"/>
      </contour>
    </TTGlyph>
    <TTGlyph name="Nacute.sc" xMin="53" yMin="0" xMax="519" yMax="785">
      <contour>
        <pt x="270" y="613" on="1"/>
        <pt x="317" y="647" on="0"/>
        <pt x="420" y="745" on="0"/>
        <pt x="455" y="785" on="1"/>
        <pt x="481" y="761" on="1"/>
        <pt x="440" y="722" on="0"/>
        <pt x="329" y="635" on="0"/>
        <pt x="279" y="601" on="1"/>
      </contour>
      <contour>
        <pt x="382" y="0" on="1"/>
        <pt x="179" y="492" on="1"/>
        <pt x="174" y="492" on="1"/>
        <pt x="80" y="0" on="1"/>
        <pt x="53" y="0" on="1"/>
        <pt x="154" y="521" on="1"/>
        <pt x="194" y="521" on="1"/>
        <pt x="394" y="37" on="1"/>
        <pt x="399" y="37" on="1"/>
        <pt x="492" y="521" on="1"/>
        <pt x="519" y="521" on="1"/>
        <pt x="418" y="0" on="1"/>
      </contour>
    </TTGlyph>
    <TTGlyph name="Ncaron" xMin="61" yMin="0" xMax="603" yMax="868">
      <contour>
        <pt x="403" y="700" on="1"/>
        <pt x="402" y="700" on="1"/>
        <pt x="290" y="853" on="1"/>
        <pt x="309" y="868" on="1"/>
        <pt x="407" y="732" on="1"/>
        <pt x="567" y="864" on="1"/>
        <pt x="581" y="847" on="1"/>
      </contour>
      <contour>
        <pt x="447" y="0" on="1"/>
        <pt x="206" y="591" on="1"/>
        <pt x="201" y="591" on="1"/>
        <pt x="88" y="0" on="1"/>
        <pt x="61" y="0" on="1"/>
        <pt x="181" y="620" on="1"/>
        <pt x="221" y="620" on="1"/>
        <pt x="459" y="37" on="1"/>
        <pt x="464" y="37" on="1"/>
        <pt x="576" y="620" on="1"/>
        <pt x="603" y="620" on="1"/>
        <pt x="483" y="0" on="1"/>
      </contour>
    </TTGlyph>
    <TTGlyph name="Ncaron.sc" xMin="53" yMin="0" xMax="527" yMax="769">
      <contour>
        <pt x="349" y="601" on="1"/>
        <pt x="348" y="601" on="1"/>
        <pt x="236" y="754" on="1"/>
        <pt x="255" y="769" on="1"/>
        <pt x="353" y="633" on="1"/>
        <pt x="513" y="765" on="1"/>
        <pt x="527" y="748" on="1"/>
      </contour>
      <contour>
        <pt x="382" y="0" on="1"/>
        <pt x="179" y="492" on="1"/>
        <pt x="174" y="492" on="1"/>
        <pt x="80" y="0" on="1"/>
        <pt x="53" y="0" on="1"/>
        <pt x="154" y="521" on="1"/>
        <pt x="194" y="521" on="1"/>
        <pt x="394" y="37" on="1"/>
        <pt x="399" y="37" on="1"/>
        <pt x="492" y="521" on="1"/>
        <pt x="519" y="521" on="1"/>
        <pt x="418" y="0" on="1"/>
      </contour>
    </TTGlyph>
    <TTGlyph name="Ncommaaccent" xMin="61" yMin="-265" xMax="603" yMax="620">
      <contour>
        <pt x="447" y="0" on="1"/>
        <pt x="206" y="591" on="1"/>
        <pt x="201" y="591" on="1"/>
        <pt x="88" y="0" on="1"/>
        <pt x="61" y="0" on="1"/>
        <pt x="181" y="620" on="1"/>
        <pt x="221" y="620" on="1"/>
        <pt x="459" y="37" on="1"/>
        <pt x="464" y="37" on="1"/>
        <pt x="576" y="620" on="1"/>
        <pt x="603" y="620" on="1"/>
        <pt x="483" y="0" on="1"/>
      </contour>
      <contour>
        <pt x="189" y="-258" on="1"/>
        <pt x="219" y="-218" on="0"/>
        <pt x="241" y="-155" on="0"/>
        <pt x="241" y="-127" on="1"/>
        <pt x="241" y="-114" on="0"/>
        <pt x="237" y="-86" on="0"/>
        <pt x="234" y="-73" on="1"/>
        <pt x="273" y="-70" on="1"/>
        <pt x="274" y="-75" on="0"/>
        <pt x="274" y="-87" on="0"/>
        <pt x="274" y="-92" on="1"/>
        <pt x="274" y="-129" on="0"/>
        <pt x="240" y="-216" on="0"/>
        <pt x="199" y="-265" on="1"/>
      </contour>
    </TTGlyph>
    <TTGlyph name="Ncommaaccent.sc" xMin="53" yMin="-265" xMax="519" yMax="521">
      <contour>
        <pt x="382" y="0" on="1"/>
        <pt x="179" y="492" on="1"/>
        <pt x="174" y="492" on="1"/>
        <pt x="80" y="0" on="1"/>
        <pt x="53" y="0" on="1"/>
        <pt x="154" y="521" on="1"/>
        <pt x="194" y="521" on="1"/>
        <pt x="394" y="37" on="1"/>
        <pt x="399" y="37" on="1"/>
        <pt x="492" y="521" on="1"/>
        <pt x="519" y="521" on="1"/>
        <pt x="418" y="0" on="1"/>
      </contour>
      <contour>
        <pt x="154" y="-258" on="1"/>
        <pt x="184" y="-218" on="0"/>
        <pt x="206" y="-155" on="0"/>
        <pt x="206" y="-127" on="1"/>
        <pt x="206" y="-114" on="0"/>
        <pt x="202" y="-86" on="0"/>
        <pt x="199" y="-73" on="1"/>
        <pt x="238" y="-70" on="1"/>
        <pt x="239" y="-75" on="0"/>
        <pt x="239" y="-87" on="0"/>
        <pt x="239" y="-92" on="1"/>
        <pt x="239" y="-129" on="0"/>
        <pt x="205" y="-216" on="0"/>
        <pt x="164" y="-265" on="1"/>
      </contour>
    </TTGlyph>
    <TTGlyph name="Ntilde" xMin="61" yMin="0" xMax="608" yMax="857">
      <contour>
        <pt x="484" y="733" on="1"/>
        <pt x="509" y="733" on="0"/>
        <pt x="562" y="807" on="0"/>
        <pt x="590" y="857" on="1"/>
        <pt x="608" y="847" on="1"/>
        <pt x="571" y="780" on="0"/>
        <pt x="511" y="712" on="0"/>
        <pt x="479" y="712" on="1"/>
        <pt x="455" y="712" on="0"/>
        <pt x="426" y="750" on="0"/>
        <pt x="404" y="796" on="0"/>
        <pt x="380" y="834" on="0"/>
        <pt x="361" y="834" on="1"/>
        <pt x="336" y="834" on="0"/>
        <pt x="282" y="768" on="0"/>
        <pt x="254" y="718" on="1"/>
        <pt x="237" y="728" on="1"/>
        <pt x="274" y="795" on="0"/>
        <pt x="334" y="856" on="0"/>
        <pt x="366" y="856" on="1"/>
        <pt x="390" y="856" on="0"/>
        <pt x="419" y="817" on="0"/>
        <pt x="441" y="772" on="0"/>
        <pt x="465" y="733" on="0"/>
      </contour>
      <contour>
        <pt x="447" y="0" on="1"/>
        <pt x="206" y="591" on="1"/>
        <pt x="201" y="591" on="1"/>
        <pt x="88" y="0" on="1"/>
        <pt x="61" y="0" on="1"/>
        <pt x="181" y="620" on="1"/>
        <pt x="221" y="620" on="1"/>
        <pt x="459" y="37" on="1"/>
        <pt x="464" y="37" on="1"/>
        <pt x="576" y="620" on="1"/>
        <pt x="603" y="620" on="1"/>
        <pt x="483" y="0" on="1"/>
      </contour>
    </TTGlyph>
    <TTGlyph name="Ntilde.sc" xMin="53" yMin="0" xMax="554" yMax="758">
      <contour>
        <pt x="430" y="634" on="1"/>
        <pt x="455" y="634" on="0"/>
        <pt x="508" y="708" on="0"/>
        <pt x="536" y="758" on="1"/>
        <pt x="554" y="748" on="1"/>
        <pt x="517" y="681" on="0"/>
        <pt x="457" y="613" on="0"/>
        <pt x="425" y="613" on="1"/>
        <pt x="401" y="613" on="0"/>
        <pt x="372" y="651" on="0"/>
        <pt x="350" y="697" on="0"/>
        <pt x="326" y="735" on="0"/>
        <pt x="307" y="735" on="1"/>
        <pt x="282" y="735" on="0"/>
        <pt x="228" y="669" on="0"/>
        <pt x="200" y="619" on="1"/>
        <pt x="183" y="629" on="1"/>
        <pt x="220" y="696" on="0"/>
        <pt x="280" y="757" on="0"/>
        <pt x="312" y="757" on="1"/>
        <pt x="336" y="757" on="0"/>
        <pt x="365" y="718" on="0"/>
        <pt x="387" y="673" on="0"/>
        <pt x="411" y="634" on="0"/>
      </contour>
      <contour>
        <pt x="382" y="0" on="1"/>
        <pt x="179" y="492" on="1"/>
        <pt x="174" y="492" on="1"/>
        <pt x="80" y="0" on="1"/>
        <pt x="53" y="0" on="1"/>
        <pt x="154" y="521" on="1"/>
        <pt x="194" y="521" on="1"/>
        <pt x="394" y="37" on="1"/>
        <pt x="399" y="37" on="1"/>
        <pt x="492" y="521" on="1"/>
        <pt x="519" y="521" on="1"/>
        <pt x="418" y="0" on="1"/>
      </contour>
    </TTGlyph>
    <TTGlyph name="O" xMin="75" yMin="-13" xMax="594" yMax="633">
      <contour>
        <pt x="387" y="633" on="1"/>
        <pt x="477" y="633" on="0"/>
        <pt x="594" y="500" on="0"/>
        <pt x="594" y="387" on="1"/>
        <pt x="594" y="304" on="0"/>
        <pt x="544" y="157" on="0"/>
        <pt x="459" y="50" on="0"/>
        <pt x="345" y="-13" on="0"/>
        <pt x="282" y="-13" on="1"/>
        <pt x="191" y="-13" on="0"/>
        <pt x="75" y="121" on="0"/>
        <pt x="75" y="234" on="1"/>
        <pt x="75" y="317" on="0"/>
        <pt x="125" y="463" on="0"/>
        <pt x="210" y="570" on="0"/>
        <pt x="324" y="633" on="0"/>
      </contour>
      <contour>
        <pt x="284" y="10" on="1"/>
        <pt x="341" y="10" on="0"/>
        <pt x="445" y="68" on="0"/>
        <pt x="522" y="168" on="0"/>
        <pt x="567" y="306" on="0"/>
        <pt x="567" y="384" on="1"/>
        <pt x="567" y="487" on="0"/>
        <pt x="465" y="610" on="0"/>
        <pt x="385" y="610" on="1"/>
        <pt x="327" y="610" on="0"/>
        <pt x="224" y="552" on="0"/>
        <pt x="147" y="452" on="0"/>
        <pt x="102" y="315" on="0"/>
        <pt x="102" y="237" on="1"/>
        <pt x="102" y="135" on="0"/>
        <pt x="203" y="10" on="0"/>
      </contour>
    </TTGlyph>
    <TTGlyph name="O.sc" xMin="59" yMin="-11" xMax="506" yMax="532">
      <contour>
        <pt x="326" y="532" on="1"/>
        <pt x="404" y="532" on="0"/>
        <pt x="506" y="421" on="0"/>
        <pt x="506" y="325" on="1"/>
        <pt x="506" y="256" on="0"/>
        <pt x="464" y="134" on="0"/>
        <pt x="392" y="42" on="0"/>
        <pt x="294" y="-11" on="0"/>
        <pt x="239" y="-11" on="1"/>
        <pt x="159" y="-11" on="0"/>
        <pt x="59" y="101" on="0"/>
        <pt x="59" y="197" on="1"/>
        <pt x="59" y="266" on="0"/>
        <pt x="102" y="389" on="0"/>
        <pt x="174" y="479" on="0"/>
        <pt x="272" y="532" on="0"/>
      </contour>
      <contour>
        <pt x="242" y="12" on="1"/>
        <pt x="290" y="12" on="0"/>
        <pt x="376" y="60" on="0"/>
        <pt x="441" y="143" on="0"/>
        <pt x="479" y="257" on="0"/>
        <pt x="479" y="322" on="1"/>
        <pt x="479" y="407" on="0"/>
        <pt x="392" y="509" on="0"/>
        <pt x="323" y="509" on="1"/>
        <pt x="275" y="509" on="0"/>
        <pt x="188" y="461" on="0"/>
        <pt x="124" y="377" on="0"/>
        <pt x="86" y="264" on="0"/>
        <pt x="86" y="200" on="1"/>
        <pt x="86" y="115" on="0"/>
        <pt x="173" y="12" on="0"/>
      </contour>
    </TTGlyph>
    <TTGlyph name="OE" xMin="75" yMin="0" xMax="881" yMax="620">
      <contour>
        <pt x="102" y="243" on="1"/>
        <pt x="102" y="175" on="0"/>
        <pt x="155" y="89" on="0"/>
        <pt x="244" y="42" on="0"/>
        <pt x="362" y="24" on="0"/>
        <pt x="427" y="24" on="1"/>
        <pt x="538" y="596" on="1"/>
        <pt x="426" y="595" on="0"/>
        <pt x="260" y="540" on="0"/>
        <pt x="154" y="446" on="0"/>
        <pt x="102" y="318" on="0"/>
      </contour>
      <contour>
        <pt x="765" y="24" on="1"/>
        <pt x="760" y="0" on="1"/>
        <pt x="434" y="0" on="1"/>
        <pt x="363" y="0" on="0"/>
        <pt x="233" y="18" on="0"/>
        <pt x="134" y="70" on="0"/>
        <pt x="75" y="165" on="0"/>
        <pt x="75" y="240" on="1"/>
        <pt x="75" y="321" on="0"/>
        <pt x="133" y="461" on="0"/>
        <pt x="251" y="562" on="0"/>
        <pt x="434" y="620" on="0"/>
        <pt x="559" y="620" on="1"/>
        <pt x="881" y="620" on="1"/>
        <pt x="877" y="596" on="1"/>
        <pt x="564" y="596" on="1"/>
        <pt x="512" y="327" on="1"/>
        <pt x="778" y="327" on="1"/>
        <pt x="774" y="305" on="1"/>
        <pt x="507" y="305" on="1"/>
        <pt x="453" y="24" on="1"/>
      </contour>
    </TTGlyph>
    <TTGlyph name="OE.sc" xMin="61" yMin="0" xMax="751" yMax="521">
      <contour>
        <pt x="654" y="24" on="1"/>
        <pt x="649" y="0" on="1"/>
        <pt x="362" y="0" on="1"/>
        <pt x="203" y="0" on="0"/>
        <pt x="61" y="102" on="0"/>
        <pt x="61" y="206" on="1"/>
        <pt x="61" y="270" on="0"/>
        <pt x="102" y="385" on="0"/>
        <pt x="196" y="471" on="0"/>
        <pt x="350" y="521" on="0"/>
        <pt x="462" y="521" on="1"/>
        <pt x="751" y="521" on="1"/>
        <pt x="747" y="497" on="1"/>
        <pt x="481" y="497" on="1"/>
        <pt x="438" y="276" on="1"/>
        <pt x="665" y="276" on="1"/>
        <pt x="661" y="254" on="1"/>
        <pt x="434" y="254" on="1"/>
        <pt x="389" y="24" on="1"/>
      </contour>
      <contour>
        <pt x="88" y="209" on="1"/>
        <pt x="88" y="112" on="0"/>
        <pt x="218" y="24" on="0"/>
        <pt x="361" y="24" on="1"/>
        <pt x="454" y="497" on="1"/>
        <pt x="351" y="497" on="0"/>
        <pt x="210" y="452" on="0"/>
        <pt x="125" y="375" on="0"/>
        <pt x="88" y="269" on="0"/>
      </contour>
    </TTGlyph>
    <TTGlyph name="Oacute" xMin="75" yMin="-13" xMax="594" yMax="892">
      <contour>
        <pt x="329" y="720" on="1"/>
        <pt x="376" y="754" on="0"/>
        <pt x="479" y="852" on="0"/>
        <pt x="514" y="892" on="1"/>
        <pt x="540" y="868" on="1"/>
        <pt x="499" y="829" on="0"/>
        <pt x="388" y="742" on="0"/>
        <pt x="338" y="708" on="1"/>
      </contour>
      <contour>
        <pt x="387" y="633" on="1"/>
        <pt x="477" y="633" on="0"/>
        <pt x="594" y="500" on="0"/>
        <pt x="594" y="387" on="1"/>
        <pt x="594" y="304" on="0"/>
        <pt x="544" y="157" on="0"/>
        <pt x="459" y="50" on="0"/>
        <pt x="345" y="-13" on="0"/>
        <pt x="282" y="-13" on="1"/>
        <pt x="191" y="-13" on="0"/>
        <pt x="75" y="121" on="0"/>
        <pt x="75" y="234" on="1"/>
        <pt x="75" y="317" on="0"/>
        <pt x="125" y="463" on="0"/>
        <pt x="210" y="570" on="0"/>
        <pt x="324" y="633" on="0"/>
      </contour>
      <contour>
        <pt x="284" y="10" on="1"/>
        <pt x="341" y="10" on="0"/>
        <pt x="445" y="68" on="0"/>
        <pt x="522" y="168" on="0"/>
        <pt x="567" y="306" on="0"/>
        <pt x="567" y="384" on="1"/>
        <pt x="567" y="487" on="0"/>
        <pt x="465" y="610" on="0"/>
        <pt x="385" y="610" on="1"/>
        <pt x="327" y="610" on="0"/>
        <pt x="224" y="552" on="0"/>
        <pt x="147" y="452" on="0"/>
        <pt x="102" y="315" on="0"/>
        <pt x="102" y="237" on="1"/>
        <pt x="102" y="135" on="0"/>
        <pt x="203" y="10" on="0"/>
      </contour>
    </TTGlyph>
    <TTGlyph name="Oacute.sc" xMin="59" yMin="-11" xMax="506" yMax="796">
      <contour>
        <pt x="272" y="624" on="1"/>
        <pt x="319" y="658" on="0"/>
        <pt x="422" y="756" on="0"/>
        <pt x="457" y="796" on="1"/>
        <pt x="483" y="772" on="1"/>
        <pt x="442" y="733" on="0"/>
        <pt x="331" y="646" on="0"/>
        <pt x="281" y="612" on="1"/>
      </contour>
      <contour>
        <pt x="326" y="532" on="1"/>
        <pt x="404" y="532" on="0"/>
        <pt x="506" y="421" on="0"/>
        <pt x="506" y="325" on="1"/>
        <pt x="506" y="256" on="0"/>
        <pt x="464" y="134" on="0"/>
        <pt x="392" y="42" on="0"/>
        <pt x="294" y="-11" on="0"/>
        <pt x="239" y="-11" on="1"/>
        <pt x="159" y="-11" on="0"/>
        <pt x="59" y="101" on="0"/>
        <pt x="59" y="197" on="1"/>
        <pt x="59" y="266" on="0"/>
        <pt x="102" y="389" on="0"/>
        <pt x="174" y="479" on="0"/>
        <pt x="272" y="532" on="0"/>
      </contour>
      <contour>
        <pt x="242" y="12" on="1"/>
        <pt x="290" y="12" on="0"/>
        <pt x="376" y="60" on="0"/>
        <pt x="441" y="143" on="0"/>
        <pt x="479" y="257" on="0"/>
        <pt x="479" y="322" on="1"/>
        <pt x="479" y="407" on="0"/>
        <pt x="392" y="509" on="0"/>
        <pt x="323" y="509" on="1"/>
        <pt x="275" y="509" on="0"/>
        <pt x="188" y="461" on="0"/>
        <pt x="124" y="377" on="0"/>
        <pt x="86" y="264" on="0"/>
        <pt x="86" y="200" on="1"/>
        <pt x="86" y="115" on="0"/>
        <pt x="173" y="12" on="0"/>
      </contour>
    </TTGlyph>
    <TTGlyph name="Obreve" xMin="75" yMin="-13" xMax="596" yMax="871">
      <contour>
        <pt x="580" y="870" on="1"/>
        <pt x="596" y="858" on="1"/>
        <pt x="550" y="792" on="0"/>
        <pt x="463" y="718" on="0"/>
        <pt x="417" y="718" on="1"/>
        <pt x="374" y="718" on="0"/>
        <pt x="311" y="788" on="0"/>
        <pt x="286" y="863" on="1"/>
        <pt x="308" y="871" on="1"/>
        <pt x="333" y="800" on="0"/>
        <pt x="384" y="741" on="0"/>
        <pt x="421" y="741" on="1"/>
        <pt x="462" y="741" on="0"/>
        <pt x="536" y="809" on="0"/>
      </contour>
      <contour>
        <pt x="387" y="633" on="1"/>
        <pt x="477" y="633" on="0"/>
        <pt x="594" y="500" on="0"/>
        <pt x="594" y="387" on="1"/>
        <pt x="594" y="304" on="0"/>
        <pt x="544" y="157" on="0"/>
        <pt x="459" y="50" on="0"/>
        <pt x="345" y="-13" on="0"/>
        <pt x="282" y="-13" on="1"/>
        <pt x="191" y="-13" on="0"/>
        <pt x="75" y="121" on="0"/>
        <pt x="75" y="234" on="1"/>
        <pt x="75" y="317" on="0"/>
        <pt x="125" y="463" on="0"/>
        <pt x="210" y="570" on="0"/>
        <pt x="324" y="633" on="0"/>
      </contour>
      <contour>
        <pt x="284" y="10" on="1"/>
        <pt x="341" y="10" on="0"/>
        <pt x="445" y="68" on="0"/>
        <pt x="522" y="168" on="0"/>
        <pt x="567" y="306" on="0"/>
        <pt x="567" y="384" on="1"/>
        <pt x="567" y="487" on="0"/>
        <pt x="465" y="610" on="0"/>
        <pt x="385" y="610" on="1"/>
        <pt x="327" y="610" on="0"/>
        <pt x="224" y="552" on="0"/>
        <pt x="147" y="452" on="0"/>
        <pt x="102" y="315" on="0"/>
        <pt x="102" y="237" on="1"/>
        <pt x="102" y="135" on="0"/>
        <pt x="203" y="10" on="0"/>
      </contour>
    </TTGlyph>
    <TTGlyph name="Obreve.sc" xMin="59" yMin="-11" xMax="539" yMax="775">
      <contour>
        <pt x="523" y="774" on="1"/>
        <pt x="539" y="762" on="1"/>
        <pt x="493" y="696" on="0"/>
        <pt x="406" y="622" on="0"/>
        <pt x="360" y="622" on="1"/>
        <pt x="317" y="622" on="0"/>
        <pt x="254" y="692" on="0"/>
        <pt x="229" y="767" on="1"/>
        <pt x="251" y="775" on="1"/>
        <pt x="276" y="704" on="0"/>
        <pt x="327" y="645" on="0"/>
        <pt x="364" y="645" on="1"/>
        <pt x="405" y="645" on="0"/>
        <pt x="479" y="713" on="0"/>
      </contour>
      <contour>
        <pt x="326" y="532" on="1"/>
        <pt x="404" y="532" on="0"/>
        <pt x="506" y="421" on="0"/>
        <pt x="506" y="325" on="1"/>
        <pt x="506" y="256" on="0"/>
        <pt x="464" y="134" on="0"/>
        <pt x="392" y="42" on="0"/>
        <pt x="294" y="-11" on="0"/>
        <pt x="239" y="-11" on="1"/>
        <pt x="159" y="-11" on="0"/>
        <pt x="59" y="101" on="0"/>
        <pt x="59" y="197" on="1"/>
        <pt x="59" y="266" on="0"/>
        <pt x="102" y="389" on="0"/>
        <pt x="174" y="479" on="0"/>
        <pt x="272" y="532" on="0"/>
      </contour>
      <contour>
        <pt x="242" y="12" on="1"/>
        <pt x="290" y="12" on="0"/>
        <pt x="376" y="60" on="0"/>
        <pt x="441" y="143" on="0"/>
        <pt x="479" y="257" on="0"/>
        <pt x="479" y="322" on="1"/>
        <pt x="479" y="407" on="0"/>
        <pt x="392" y="509" on="0"/>
        <pt x="323" y="509" on="1"/>
        <pt x="275" y="509" on="0"/>
        <pt x="188" y="461" on="0"/>
        <pt x="124" y="377" on="0"/>
        <pt x="86" y="264" on="0"/>
        <pt x="86" y="200" on="1"/>
        <pt x="86" y="115" on="0"/>
        <pt x="173" y="12" on="0"/>
      </contour>
    </TTGlyph>
    <TTGlyph name="Ocircumflex" xMin="75" yMin="-13" xMax="594" yMax="879">
      <contour>
        <pt x="541" y="711" on="1"/>
        <pt x="443" y="847" on="1"/>
        <pt x="283" y="715" on="1"/>
        <pt x="269" y="732" on="1"/>
        <pt x="447" y="879" on="1"/>
        <pt x="448" y="879" on="1"/>
        <pt x="560" y="726" on="1"/>
      </contour>
      <contour>
        <pt x="387" y="633" on="1"/>
        <pt x="477" y="633" on="0"/>
        <pt x="594" y="500" on="0"/>
        <pt x="594" y="387" on="1"/>
        <pt x="594" y="304" on="0"/>
        <pt x="544" y="157" on="0"/>
        <pt x="459" y="50" on="0"/>
        <pt x="345" y="-13" on="0"/>
        <pt x="282" y="-13" on="1"/>
        <pt x="191" y="-13" on="0"/>
        <pt x="75" y="121" on="0"/>
        <pt x="75" y="234" on="1"/>
        <pt x="75" y="317" on="0"/>
        <pt x="125" y="463" on="0"/>
        <pt x="210" y="570" on="0"/>
        <pt x="324" y="633" on="0"/>
      </contour>
      <contour>
        <pt x="284" y="10" on="1"/>
        <pt x="341" y="10" on="0"/>
        <pt x="445" y="68" on="0"/>
        <pt x="522" y="168" on="0"/>
        <pt x="567" y="306" on="0"/>
        <pt x="567" y="384" on="1"/>
        <pt x="567" y="487" on="0"/>
        <pt x="465" y="610" on="0"/>
        <pt x="385" y="610" on="1"/>
        <pt x="327" y="610" on="0"/>
        <pt x="224" y="552" on="0"/>
        <pt x="147" y="452" on="0"/>
        <pt x="102" y="315" on="0"/>
        <pt x="102" y="237" on="1"/>
        <pt x="102" y="135" on="0"/>
        <pt x="203" y="10" on="0"/>
      </contour>
    </TTGlyph>
    <TTGlyph name="Ocircumflex.sc" xMin="59" yMin="-11" xMax="506" yMax="783">
      <contour>
        <pt x="484" y="615" on="1"/>
        <pt x="386" y="751" on="1"/>
        <pt x="226" y="619" on="1"/>
        <pt x="212" y="636" on="1"/>
        <pt x="390" y="783" on="1"/>
        <pt x="391" y="783" on="1"/>
        <pt x="503" y="630" on="1"/>
      </contour>
      <contour>
        <pt x="326" y="532" on="1"/>
        <pt x="404" y="532" on="0"/>
        <pt x="506" y="421" on="0"/>
        <pt x="506" y="325" on="1"/>
        <pt x="506" y="256" on="0"/>
        <pt x="464" y="134" on="0"/>
        <pt x="392" y="42" on="0"/>
        <pt x="294" y="-11" on="0"/>
        <pt x="239" y="-11" on="1"/>
        <pt x="159" y="-11" on="0"/>
        <pt x="59" y="101" on="0"/>
        <pt x="59" y="197" on="1"/>
        <pt x="59" y="266" on="0"/>
        <pt x="102" y="389" on="0"/>
        <pt x="174" y="479" on="0"/>
        <pt x="272" y="532" on="0"/>
      </contour>
      <contour>
        <pt x="242" y="12" on="1"/>
        <pt x="290" y="12" on="0"/>
        <pt x="376" y="60" on="0"/>
        <pt x="441" y="143" on="0"/>
        <pt x="479" y="257" on="0"/>
        <pt x="479" y="322" on="1"/>
        <pt x="479" y="407" on="0"/>
        <pt x="392" y="509" on="0"/>
        <pt x="323" y="509" on="1"/>
        <pt x="275" y="509" on="0"/>
        <pt x="188" y="461" on="0"/>
        <pt x="124" y="377" on="0"/>
        <pt x="86" y="264" on="0"/>
        <pt x="86" y="200" on="1"/>
        <pt x="86" y="115" on="0"/>
        <pt x="173" y="12" on="0"/>
      </contour>
    </TTGlyph>
    <TTGlyph name="Odieresis" xMin="75" yMin="-13" xMax="594" yMax="847">
      <contour>
        <pt x="515" y="718" on="1"/>
        <pt x="493" y="717" on="1"/>
        <pt x="523" y="846" on="1"/>
        <pt x="551" y="847" on="1"/>
      </contour>
      <contour>
        <pt x="323" y="715" on="1"/>
        <pt x="301" y="714" on="1"/>
        <pt x="331" y="843" on="1"/>
        <pt x="359" y="844" on="1"/>
      </contour>
      <contour>
        <pt x="387" y="633" on="1"/>
        <pt x="477" y="633" on="0"/>
        <pt x="594" y="500" on="0"/>
        <pt x="594" y="387" on="1"/>
        <pt x="594" y="304" on="0"/>
        <pt x="544" y="157" on="0"/>
        <pt x="459" y="50" on="0"/>
        <pt x="345" y="-13" on="0"/>
        <pt x="282" y="-13" on="1"/>
        <pt x="191" y="-13" on="0"/>
        <pt x="75" y="121" on="0"/>
        <pt x="75" y="234" on="1"/>
        <pt x="75" y="317" on="0"/>
        <pt x="125" y="463" on="0"/>
        <pt x="210" y="570" on="0"/>
        <pt x="324" y="633" on="0"/>
      </contour>
      <contour>
        <pt x="284" y="10" on="1"/>
        <pt x="341" y="10" on="0"/>
        <pt x="445" y="68" on="0"/>
        <pt x="522" y="168" on="0"/>
        <pt x="567" y="306" on="0"/>
        <pt x="567" y="384" on="1"/>
        <pt x="567" y="487" on="0"/>
        <pt x="465" y="610" on="0"/>
        <pt x="385" y="610" on="1"/>
        <pt x="327" y="610" on="0"/>
        <pt x="224" y="552" on="0"/>
        <pt x="147" y="452" on="0"/>
        <pt x="102" y="315" on="0"/>
        <pt x="102" y="237" on="1"/>
        <pt x="102" y="135" on="0"/>
        <pt x="203" y="10" on="0"/>
      </contour>
    </TTGlyph>
    <TTGlyph name="Odieresis.sc" xMin="59" yMin="-11" xMax="506" yMax="751">
      <contour>
        <pt x="457" y="622" on="1"/>
        <pt x="435" y="621" on="1"/>
        <pt x="465" y="750" on="1"/>
        <pt x="493" y="751" on="1"/>
      </contour>
      <contour>
        <pt x="265" y="619" on="1"/>
        <pt x="243" y="618" on="1"/>
        <pt x="273" y="747" on="1"/>
        <pt x="301" y="748" on="1"/>
      </contour>
      <contour>
        <pt x="326" y="532" on="1"/>
        <pt x="404" y="532" on="0"/>
        <pt x="506" y="421" on="0"/>
        <pt x="506" y="325" on="1"/>
        <pt x="506" y="256" on="0"/>
        <pt x="464" y="134" on="0"/>
        <pt x="392" y="42" on="0"/>
        <pt x="294" y="-11" on="0"/>
        <pt x="239" y="-11" on="1"/>
        <pt x="159" y="-11" on="0"/>
        <pt x="59" y="101" on="0"/>
        <pt x="59" y="197" on="1"/>
        <pt x="59" y="266" on="0"/>
        <pt x="102" y="389" on="0"/>
        <pt x="174" y="479" on="0"/>
        <pt x="272" y="532" on="0"/>
      </contour>
      <contour>
        <pt x="242" y="12" on="1"/>
        <pt x="290" y="12" on="0"/>
        <pt x="376" y="60" on="0"/>
        <pt x="441" y="143" on="0"/>
        <pt x="479" y="257" on="0"/>
        <pt x="479" y="322" on="1"/>
        <pt x="479" y="407" on="0"/>
        <pt x="392" y="509" on="0"/>
        <pt x="323" y="509" on="1"/>
        <pt x="275" y="509" on="0"/>
        <pt x="188" y="461" on="0"/>
        <pt x="124" y="377" on="0"/>
        <pt x="86" y="264" on="0"/>
        <pt x="86" y="200" on="1"/>
        <pt x="86" y="115" on="0"/>
        <pt x="173" y="12" on="0"/>
      </contour>
    </TTGlyph>
    <TTGlyph name="Ograve" xMin="75" yMin="-13" xMax="594" yMax="899">
      <contour>
        <pt x="484" y="710" on="1"/>
        <pt x="473" y="698" on="1"/>
        <pt x="436" y="732" on="0"/>
        <pt x="350" y="833" on="0"/>
        <pt x="320" y="879" on="1"/>
        <pt x="350" y="899" on="1"/>
        <pt x="374" y="855" on="0"/>
        <pt x="450" y="746" on="0"/>
      </contour>
      <contour>
        <pt x="387" y="633" on="1"/>
        <pt x="477" y="633" on="0"/>
        <pt x="594" y="500" on="0"/>
        <pt x="594" y="387" on="1"/>
        <pt x="594" y="304" on="0"/>
        <pt x="544" y="157" on="0"/>
        <pt x="459" y="50" on="0"/>
        <pt x="345" y="-13" on="0"/>
        <pt x="282" y="-13" on="1"/>
        <pt x="191" y="-13" on="0"/>
        <pt x="75" y="121" on="0"/>
        <pt x="75" y="234" on="1"/>
        <pt x="75" y="317" on="0"/>
        <pt x="125" y="463" on="0"/>
        <pt x="210" y="570" on="0"/>
        <pt x="324" y="633" on="0"/>
      </contour>
      <contour>
        <pt x="284" y="10" on="1"/>
        <pt x="341" y="10" on="0"/>
        <pt x="445" y="68" on="0"/>
        <pt x="522" y="168" on="0"/>
        <pt x="567" y="306" on="0"/>
        <pt x="567" y="384" on="1"/>
        <pt x="567" y="487" on="0"/>
        <pt x="465" y="610" on="0"/>
        <pt x="385" y="610" on="1"/>
        <pt x="327" y="610" on="0"/>
        <pt x="224" y="552" on="0"/>
        <pt x="147" y="452" on="0"/>
        <pt x="102" y="315" on="0"/>
        <pt x="102" y="237" on="1"/>
        <pt x="102" y="135" on="0"/>
        <pt x="203" y="10" on="0"/>
      </contour>
    </TTGlyph>
    <TTGlyph name="Ograve.sc" xMin="59" yMin="-11" xMax="506" yMax="803">
      <contour>
        <pt x="427" y="614" on="1"/>
        <pt x="416" y="602" on="1"/>
        <pt x="379" y="636" on="0"/>
        <pt x="293" y="737" on="0"/>
        <pt x="263" y="783" on="1"/>
        <pt x="293" y="803" on="1"/>
        <pt x="317" y="759" on="0"/>
        <pt x="393" y="650" on="0"/>
      </contour>
      <contour>
        <pt x="326" y="532" on="1"/>
        <pt x="404" y="532" on="0"/>
        <pt x="506" y="421" on="0"/>
        <pt x="506" y="325" on="1"/>
        <pt x="506" y="256" on="0"/>
        <pt x="464" y="134" on="0"/>
        <pt x="392" y="42" on="0"/>
        <pt x="294" y="-11" on="0"/>
        <pt x="239" y="-11" on="1"/>
        <pt x="159" y="-11" on="0"/>
        <pt x="59" y="101" on="0"/>
        <pt x="59" y="197" on="1"/>
        <pt x="59" y="266" on="0"/>
        <pt x="102" y="389" on="0"/>
        <pt x="174" y="479" on="0"/>
        <pt x="272" y="532" on="0"/>
      </contour>
      <contour>
        <pt x="242" y="12" on="1"/>
        <pt x="290" y="12" on="0"/>
        <pt x="376" y="60" on="0"/>
        <pt x="441" y="143" on="0"/>
        <pt x="479" y="257" on="0"/>
        <pt x="479" y="322" on="1"/>
        <pt x="479" y="407" on="0"/>
        <pt x="392" y="509" on="0"/>
        <pt x="323" y="509" on="1"/>
        <pt x="275" y="509" on="0"/>
        <pt x="188" y="461" on="0"/>
        <pt x="124" y="377" on="0"/>
        <pt x="86" y="264" on="0"/>
        <pt x="86" y="200" on="1"/>
        <pt x="86" y="115" on="0"/>
        <pt x="173" y="12" on="0"/>
      </contour>
    </TTGlyph>
    <TTGlyph name="Ohungarumlaut" xMin="75" yMin="-13" xMax="641" yMax="904">
      <contour>
        <pt x="485" y="706" on="1"/>
        <pt x="474" y="715" on="1"/>
        <pt x="510" y="755" on="0"/>
        <pt x="585" y="862" on="0"/>
        <pt x="610" y="904" on="1"/>
        <pt x="641" y="887" on="1"/>
        <pt x="613" y="847" on="0"/>
        <pt x="525" y="746" on="0"/>
      </contour>
      <contour>
        <pt x="295" y="706" on="1"/>
        <pt x="284" y="715" on="1"/>
        <pt x="320" y="755" on="0"/>
        <pt x="395" y="862" on="0"/>
        <pt x="420" y="904" on="1"/>
        <pt x="451" y="887" on="1"/>
        <pt x="423" y="847" on="0"/>
        <pt x="335" y="746" on="0"/>
      </contour>
      <contour>
        <pt x="387" y="633" on="1"/>
        <pt x="477" y="633" on="0"/>
        <pt x="594" y="500" on="0"/>
        <pt x="594" y="387" on="1"/>
        <pt x="594" y="304" on="0"/>
        <pt x="544" y="157" on="0"/>
        <pt x="459" y="50" on="0"/>
        <pt x="345" y="-13" on="0"/>
        <pt x="282" y="-13" on="1"/>
        <pt x="191" y="-13" on="0"/>
        <pt x="75" y="121" on="0"/>
        <pt x="75" y="234" on="1"/>
        <pt x="75" y="317" on="0"/>
        <pt x="125" y="463" on="0"/>
        <pt x="210" y="570" on="0"/>
        <pt x="324" y="633" on="0"/>
      </contour>
      <contour>
        <pt x="284" y="10" on="1"/>
        <pt x="341" y="10" on="0"/>
        <pt x="445" y="68" on="0"/>
        <pt x="522" y="168" on="0"/>
        <pt x="567" y="306" on="0"/>
        <pt x="567" y="384" on="1"/>
        <pt x="567" y="487" on="0"/>
        <pt x="465" y="610" on="0"/>
        <pt x="385" y="610" on="1"/>
        <pt x="327" y="610" on="0"/>
        <pt x="224" y="552" on="0"/>
        <pt x="147" y="452" on="0"/>
        <pt x="102" y="315" on="0"/>
        <pt x="102" y="237" on="1"/>
        <pt x="102" y="135" on="0"/>
        <pt x="203" y="10" on="0"/>
      </contour>
    </TTGlyph>
    <TTGlyph name="Ohungarumlaut.sc" xMin="59" yMin="-11" xMax="584" yMax="808">
      <contour>
        <pt x="428" y="610" on="1"/>
        <pt x="417" y="619" on="1"/>
        <pt x="453" y="659" on="0"/>
        <pt x="528" y="766" on="0"/>
        <pt x="553" y="808" on="1"/>
        <pt x="584" y="791" on="1"/>
        <pt x="556" y="751" on="0"/>
        <pt x="468" y="650" on="0"/>
      </contour>
      <contour>
        <pt x="238" y="610" on="1"/>
        <pt x="227" y="619" on="1"/>
        <pt x="263" y="659" on="0"/>
        <pt x="338" y="766" on="0"/>
        <pt x="363" y="808" on="1"/>
        <pt x="394" y="791" on="1"/>
        <pt x="366" y="751" on="0"/>
        <pt x="278" y="650" on="0"/>
      </contour>
      <contour>
        <pt x="326" y="532" on="1"/>
        <pt x="404" y="532" on="0"/>
        <pt x="506" y="421" on="0"/>
        <pt x="506" y="325" on="1"/>
        <pt x="506" y="256" on="0"/>
        <pt x="464" y="134" on="0"/>
        <pt x="392" y="42" on="0"/>
        <pt x="294" y="-11" on="0"/>
        <pt x="239" y="-11" on="1"/>
        <pt x="159" y="-11" on="0"/>
        <pt x="59" y="101" on="0"/>
        <pt x="59" y="197" on="1"/>
        <pt x="59" y="266" on="0"/>
        <pt x="102" y="389" on="0"/>
        <pt x="174" y="479" on="0"/>
        <pt x="272" y="532" on="0"/>
      </contour>
      <contour>
        <pt x="242" y="12" on="1"/>
        <pt x="290" y="12" on="0"/>
        <pt x="376" y="60" on="0"/>
        <pt x="441" y="143" on="0"/>
        <pt x="479" y="257" on="0"/>
        <pt x="479" y="322" on="1"/>
        <pt x="479" y="407" on="0"/>
        <pt x="392" y="509" on="0"/>
        <pt x="323" y="509" on="1"/>
        <pt x="275" y="509" on="0"/>
        <pt x="188" y="461" on="0"/>
        <pt x="124" y="377" on="0"/>
        <pt x="86" y="264" on="0"/>
        <pt x="86" y="200" on="1"/>
        <pt x="86" y="115" on="0"/>
        <pt x="173" y="12" on="0"/>
      </contour>
    </TTGlyph>
    <TTGlyph name="Omacron" xMin="75" yMin="-13" xMax="594" yMax="795">
      <contour>
        <pt x="570" y="795" on="1"/>
        <pt x="566" y="773" on="1"/>
        <pt x="283" y="773" on="1"/>
        <pt x="287" y="795" on="1"/>
      </contour>
      <contour>
        <pt x="387" y="633" on="1"/>
        <pt x="477" y="633" on="0"/>
        <pt x="594" y="500" on="0"/>
        <pt x="594" y="387" on="1"/>
        <pt x="594" y="304" on="0"/>
        <pt x="544" y="157" on="0"/>
        <pt x="459" y="50" on="0"/>
        <pt x="345" y="-13" on="0"/>
        <pt x="282" y="-13" on="1"/>
        <pt x="191" y="-13" on="0"/>
        <pt x="75" y="121" on="0"/>
        <pt x="75" y="234" on="1"/>
        <pt x="75" y="317" on="0"/>
        <pt x="125" y="463" on="0"/>
        <pt x="210" y="570" on="0"/>
        <pt x="324" y="633" on="0"/>
      </contour>
      <contour>
        <pt x="284" y="10" on="1"/>
        <pt x="341" y="10" on="0"/>
        <pt x="445" y="68" on="0"/>
        <pt x="522" y="168" on="0"/>
        <pt x="567" y="306" on="0"/>
        <pt x="567" y="384" on="1"/>
        <pt x="567" y="487" on="0"/>
        <pt x="465" y="610" on="0"/>
        <pt x="385" y="610" on="1"/>
        <pt x="327" y="610" on="0"/>
        <pt x="224" y="552" on="0"/>
        <pt x="147" y="452" on="0"/>
        <pt x="102" y="315" on="0"/>
        <pt x="102" y="237" on="1"/>
        <pt x="102" y="135" on="0"/>
        <pt x="203" y="10" on="0"/>
      </contour>
    </TTGlyph>
    <TTGlyph name="Omacron.sc" xMin="59" yMin="-11" xMax="513" yMax="699">
      <contour>
        <pt x="513" y="699" on="1"/>
        <pt x="509" y="677" on="1"/>
        <pt x="226" y="677" on="1"/>
        <pt x="230" y="699" on="1"/>
      </contour>
      <contour>
        <pt x="326" y="532" on="1"/>
        <pt x="404" y="532" on="0"/>
        <pt x="506" y="421" on="0"/>
        <pt x="506" y="325" on="1"/>
        <pt x="506" y="256" on="0"/>
        <pt x="464" y="134" on="0"/>
        <pt x="392" y="42" on="0"/>
        <pt x="294" y="-11" on="0"/>
        <pt x="239" y="-11" on="1"/>
        <pt x="159" y="-11" on="0"/>
        <pt x="59" y="101" on="0"/>
        <pt x="59" y="197" on="1"/>
        <pt x="59" y="266" on="0"/>
        <pt x="102" y="389" on="0"/>
        <pt x="174" y="479" on="0"/>
        <pt x="272" y="532" on="0"/>
      </contour>
      <contour>
        <pt x="242" y="12" on="1"/>
        <pt x="290" y="12" on="0"/>
        <pt x="376" y="60" on="0"/>
        <pt x="441" y="143" on="0"/>
        <pt x="479" y="257" on="0"/>
        <pt x="479" y="322" on="1"/>
        <pt x="479" y="407" on="0"/>
        <pt x="392" y="509" on="0"/>
        <pt x="323" y="509" on="1"/>
        <pt x="275" y="509" on="0"/>
        <pt x="188" y="461" on="0"/>
        <pt x="124" y="377" on="0"/>
        <pt x="86" y="264" on="0"/>
        <pt x="86" y="200" on="1"/>
        <pt x="86" y="115" on="0"/>
        <pt x="173" y="12" on="0"/>
      </contour>
    </TTGlyph>
    <TTGlyph name="Omega" xMin="32" yMin="0" xMax="566" yMax="631">
      <contour>
        <pt x="208" y="4" on="1"/>
        <pt x="206" y="0" on="1"/>
        <pt x="32" y="0" on="1"/>
        <pt x="36" y="24" on="1"/>
        <pt x="180" y="24" on="1"/>
        <pt x="155" y="102" on="0"/>
        <pt x="126" y="260" on="0"/>
        <pt x="126" y="327" on="1"/>
        <pt x="126" y="402" on="0"/>
        <pt x="167" y="517" on="0"/>
        <pt x="236" y="593" on="0"/>
        <pt x="327" y="631" on="0"/>
        <pt x="377" y="631" on="1"/>
        <pt x="461" y="631" on="0"/>
        <pt x="566" y="528" on="0"/>
        <pt x="566" y="437" on="1"/>
        <pt x="566" y="348" on="0"/>
        <pt x="457" y="138" on="0"/>
        <pt x="362" y="24" on="1"/>
        <pt x="520" y="24" on="1"/>
        <pt x="516" y="0" on="1"/>
        <pt x="321" y="0" on="1"/>
        <pt x="319" y="4" on="1"/>
        <pt x="426" y="127" on="0"/>
        <pt x="542" y="345" on="0"/>
        <pt x="542" y="429" on="1"/>
        <pt x="542" y="511" on="0"/>
        <pt x="449" y="607" on="0"/>
        <pt x="374" y="607" on="1"/>
        <pt x="331" y="607" on="0"/>
        <pt x="249" y="572" on="0"/>
        <pt x="188" y="501" on="0"/>
        <pt x="150" y="392" on="0"/>
        <pt x="150" y="319" on="1"/>
        <pt x="150" y="253" on="0"/>
        <pt x="179" y="91" on="0"/>
      </contour>
    </TTGlyph>
    <TTGlyph name="Oslash" xMin="14" yMin="-16" xMax="654" yMax="636">
      <contour>
        <pt x="102" y="237" on="1"/>
        <pt x="102" y="202" on="0"/>
        <pt x="115" y="139" on="0"/>
        <pt x="127" y="114" on="1"/>
        <pt x="531" y="527" on="1"/>
        <pt x="507" y="567" on="0"/>
        <pt x="432" y="610" on="0"/>
        <pt x="385" y="610" on="1"/>
        <pt x="327" y="610" on="0"/>
        <pt x="224" y="552" on="0"/>
        <pt x="147" y="452" on="0"/>
        <pt x="102" y="315" on="0"/>
      </contour>
      <contour>
        <pt x="284" y="10" on="1"/>
        <pt x="341" y="10" on="0"/>
        <pt x="445" y="68" on="0"/>
        <pt x="522" y="168" on="0"/>
        <pt x="567" y="306" on="0"/>
        <pt x="567" y="384" on="1"/>
        <pt x="567" y="419" on="0"/>
        <pt x="554" y="481" on="0"/>
        <pt x="542" y="506" on="1"/>
        <pt x="137" y="93" on="1"/>
        <pt x="161" y="54" on="0"/>
        <pt x="236" y="10" on="0"/>
      </contour>
      <contour>
        <pt x="282" y="-13" on="1"/>
        <pt x="230" y="-13" on="0"/>
        <pt x="145" y="32" on="0"/>
        <pt x="118" y="74" on="1"/>
        <pt x="30" y="-16" on="1"/>
        <pt x="14" y="0" on="1"/>
        <pt x="106" y="93" on="1"/>
        <pt x="91" y="122" on="0"/>
        <pt x="75" y="193" on="0"/>
        <pt x="75" y="234" on="1"/>
        <pt x="75" y="317" on="0"/>
        <pt x="125" y="463" on="0"/>
        <pt x="210" y="570" on="0"/>
        <pt x="324" y="633" on="0"/>
        <pt x="387" y="633" on="1"/>
        <pt x="438" y="633" on="0"/>
        <pt x="522" y="588" on="0"/>
        <pt x="550" y="547" on="1"/>
        <pt x="638" y="636" on="1"/>
        <pt x="654" y="620" on="1"/>
        <pt x="562" y="527" on="1"/>
        <pt x="578" y="499" on="0"/>
        <pt x="594" y="428" on="0"/>
        <pt x="594" y="387" on="1"/>
        <pt x="594" y="304" on="0"/>
        <pt x="544" y="157" on="0"/>
        <pt x="459" y="50" on="0"/>
        <pt x="345" y="-13" on="0"/>
      </contour>
    </TTGlyph>
    <TTGlyph name="Oslash.sc" xMin="4" yMin="-14" xMax="558" yMax="536">
      <contour>
        <pt x="86" y="200" on="1"/>
        <pt x="86" y="172" on="0"/>
        <pt x="96" y="123" on="0"/>
        <pt x="105" y="102" on="1"/>
        <pt x="447" y="442" on="1"/>
        <pt x="427" y="474" on="0"/>
        <pt x="363" y="509" on="0"/>
        <pt x="323" y="509" on="1"/>
        <pt x="275" y="509" on="0"/>
        <pt x="188" y="461" on="0"/>
        <pt x="124" y="377" on="0"/>
        <pt x="86" y="264" on="0"/>
      </contour>
      <contour>
        <pt x="242" y="12" on="1"/>
        <pt x="290" y="12" on="0"/>
        <pt x="376" y="60" on="0"/>
        <pt x="441" y="143" on="0"/>
        <pt x="479" y="257" on="0"/>
        <pt x="479" y="322" on="1"/>
        <pt x="479" y="350" on="0"/>
        <pt x="469" y="400" on="0"/>
        <pt x="459" y="421" on="1"/>
        <pt x="116" y="81" on="1"/>
        <pt x="136" y="48" on="0"/>
        <pt x="202" y="12" on="0"/>
      </contour>
      <contour>
        <pt x="239" y="-11" on="1"/>
        <pt x="193" y="-11" on="0"/>
        <pt x="120" y="27" on="0"/>
        <pt x="96" y="61" on="1"/>
        <pt x="20" y="-14" on="1"/>
        <pt x="4" y="2" on="1"/>
        <pt x="85" y="81" on="1"/>
        <pt x="72" y="105" on="0"/>
        <pt x="59" y="163" on="0"/>
        <pt x="59" y="197" on="1"/>
        <pt x="59" y="266" on="0"/>
        <pt x="102" y="389" on="0"/>
        <pt x="174" y="479" on="0"/>
        <pt x="272" y="532" on="0"/>
        <pt x="326" y="532" on="1"/>
        <pt x="370" y="532" on="0"/>
        <pt x="443" y="496" on="0"/>
        <pt x="467" y="462" on="1"/>
        <pt x="542" y="536" on="1"/>
        <pt x="558" y="520" on="1"/>
        <pt x="479" y="443" on="1"/>
        <pt x="492" y="419" on="0"/>
        <pt x="506" y="359" on="0"/>
        <pt x="506" y="325" on="1"/>
        <pt x="506" y="256" on="0"/>
        <pt x="464" y="134" on="0"/>
        <pt x="392" y="42" on="0"/>
        <pt x="294" y="-11" on="0"/>
      </contour>
    </TTGlyph>
    <TTGlyph name="Oslashacute" xMin="14" yMin="-16" xMax="654" yMax="900">
      <contour>
        <pt x="331" y="728" on="1"/>
        <pt x="378" y="762" on="0"/>
        <pt x="481" y="860" on="0"/>
        <pt x="516" y="900" on="1"/>
        <pt x="542" y="876" on="1"/>
        <pt x="501" y="837" on="0"/>
        <pt x="390" y="750" on="0"/>
        <pt x="340" y="716" on="1"/>
      </contour>
      <contour>
        <pt x="102" y="237" on="1"/>
        <pt x="102" y="202" on="0"/>
        <pt x="115" y="139" on="0"/>
        <pt x="127" y="114" on="1"/>
        <pt x="531" y="527" on="1"/>
        <pt x="507" y="567" on="0"/>
        <pt x="432" y="610" on="0"/>
        <pt x="385" y="610" on="1"/>
        <pt x="327" y="610" on="0"/>
        <pt x="224" y="552" on="0"/>
        <pt x="147" y="452" on="0"/>
        <pt x="102" y="315" on="0"/>
      </contour>
      <contour>
        <pt x="284" y="10" on="1"/>
        <pt x="341" y="10" on="0"/>
        <pt x="445" y="68" on="0"/>
        <pt x="522" y="168" on="0"/>
        <pt x="567" y="306" on="0"/>
        <pt x="567" y="384" on="1"/>
        <pt x="567" y="419" on="0"/>
        <pt x="554" y="481" on="0"/>
        <pt x="542" y="506" on="1"/>
        <pt x="137" y="93" on="1"/>
        <pt x="161" y="54" on="0"/>
        <pt x="236" y="10" on="0"/>
      </contour>
      <contour>
        <pt x="282" y="-13" on="1"/>
        <pt x="230" y="-13" on="0"/>
        <pt x="145" y="32" on="0"/>
        <pt x="118" y="74" on="1"/>
        <pt x="30" y="-16" on="1"/>
        <pt x="14" y="0" on="1"/>
        <pt x="106" y="93" on="1"/>
        <pt x="91" y="122" on="0"/>
        <pt x="75" y="193" on="0"/>
        <pt x="75" y="234" on="1"/>
        <pt x="75" y="317" on="0"/>
        <pt x="125" y="463" on="0"/>
        <pt x="210" y="570" on="0"/>
        <pt x="324" y="633" on="0"/>
        <pt x="387" y="633" on="1"/>
        <pt x="438" y="633" on="0"/>
        <pt x="522" y="588" on="0"/>
        <pt x="550" y="547" on="1"/>
        <pt x="638" y="636" on="1"/>
        <pt x="654" y="620" on="1"/>
        <pt x="562" y="527" on="1"/>
        <pt x="578" y="499" on="0"/>
        <pt x="594" y="428" on="0"/>
        <pt x="594" y="387" on="1"/>
        <pt x="594" y="304" on="0"/>
        <pt x="544" y="157" on="0"/>
        <pt x="459" y="50" on="0"/>
        <pt x="345" y="-13" on="0"/>
      </contour>
    </TTGlyph>
    <TTGlyph name="Oslashacute.sc" xMin="4" yMin="-14" xMax="558" yMax="800">
      <contour>
        <pt x="268" y="628" on="1"/>
        <pt x="315" y="662" on="0"/>
        <pt x="418" y="760" on="0"/>
        <pt x="453" y="800" on="1"/>
        <pt x="479" y="776" on="1"/>
        <pt x="438" y="737" on="0"/>
        <pt x="327" y="650" on="0"/>
        <pt x="277" y="616" on="1"/>
      </contour>
      <contour>
        <pt x="86" y="200" on="1"/>
        <pt x="86" y="172" on="0"/>
        <pt x="96" y="123" on="0"/>
        <pt x="105" y="102" on="1"/>
        <pt x="447" y="442" on="1"/>
        <pt x="427" y="474" on="0"/>
        <pt x="363" y="509" on="0"/>
        <pt x="323" y="509" on="1"/>
        <pt x="275" y="509" on="0"/>
        <pt x="188" y="461" on="0"/>
        <pt x="124" y="377" on="0"/>
        <pt x="86" y="264" on="0"/>
      </contour>
      <contour>
        <pt x="242" y="12" on="1"/>
        <pt x="290" y="12" on="0"/>
        <pt x="376" y="60" on="0"/>
        <pt x="441" y="143" on="0"/>
        <pt x="479" y="257" on="0"/>
        <pt x="479" y="322" on="1"/>
        <pt x="479" y="350" on="0"/>
        <pt x="469" y="400" on="0"/>
        <pt x="459" y="421" on="1"/>
        <pt x="116" y="81" on="1"/>
        <pt x="136" y="48" on="0"/>
        <pt x="202" y="12" on="0"/>
      </contour>
      <contour>
        <pt x="239" y="-11" on="1"/>
        <pt x="193" y="-11" on="0"/>
        <pt x="120" y="27" on="0"/>
        <pt x="96" y="61" on="1"/>
        <pt x="20" y="-14" on="1"/>
        <pt x="4" y="2" on="1"/>
        <pt x="85" y="81" on="1"/>
        <pt x="72" y="105" on="0"/>
        <pt x="59" y="163" on="0"/>
        <pt x="59" y="197" on="1"/>
        <pt x="59" y="266" on="0"/>
        <pt x="102" y="389" on="0"/>
        <pt x="174" y="479" on="0"/>
        <pt x="272" y="532" on="0"/>
        <pt x="326" y="532" on="1"/>
        <pt x="370" y="532" on="0"/>
        <pt x="443" y="496" on="0"/>
        <pt x="467" y="462" on="1"/>
        <pt x="542" y="536" on="1"/>
        <pt x="558" y="520" on="1"/>
        <pt x="479" y="443" on="1"/>
        <pt x="492" y="419" on="0"/>
        <pt x="506" y="359" on="0"/>
        <pt x="506" y="325" on="1"/>
        <pt x="506" y="256" on="0"/>
        <pt x="464" y="134" on="0"/>
        <pt x="392" y="42" on="0"/>
        <pt x="294" y="-11" on="0"/>
      </contour>
    </TTGlyph>
    <TTGlyph name="Otilde" xMin="75" yMin="-13" xMax="614" yMax="865">
      <contour>
        <pt x="490" y="741" on="1"/>
        <pt x="515" y="741" on="0"/>
        <pt x="568" y="815" on="0"/>
        <pt x="596" y="865" on="1"/>
        <pt x="614" y="855" on="1"/>
        <pt x="577" y="788" on="0"/>
        <pt x="517" y="720" on="0"/>
        <pt x="485" y="720" on="1"/>
        <pt x="461" y="720" on="0"/>
        <pt x="432" y="758" on="0"/>
        <pt x="410" y="804" on="0"/>
        <pt x="386" y="842" on="0"/>
        <pt x="367" y="842" on="1"/>
        <pt x="342" y="842" on="0"/>
        <pt x="288" y="776" on="0"/>
        <pt x="260" y="726" on="1"/>
        <pt x="243" y="736" on="1"/>
        <pt x="280" y="803" on="0"/>
        <pt x="340" y="864" on="0"/>
        <pt x="372" y="864" on="1"/>
        <pt x="396" y="864" on="0"/>
        <pt x="425" y="825" on="0"/>
        <pt x="447" y="780" on="0"/>
        <pt x="471" y="741" on="0"/>
      </contour>
      <contour>
        <pt x="387" y="633" on="1"/>
        <pt x="477" y="633" on="0"/>
        <pt x="594" y="500" on="0"/>
        <pt x="594" y="387" on="1"/>
        <pt x="594" y="304" on="0"/>
        <pt x="544" y="157" on="0"/>
        <pt x="459" y="50" on="0"/>
        <pt x="345" y="-13" on="0"/>
        <pt x="282" y="-13" on="1"/>
        <pt x="191" y="-13" on="0"/>
        <pt x="75" y="121" on="0"/>
        <pt x="75" y="234" on="1"/>
        <pt x="75" y="317" on="0"/>
        <pt x="125" y="463" on="0"/>
        <pt x="210" y="570" on="0"/>
        <pt x="324" y="633" on="0"/>
      </contour>
      <contour>
        <pt x="284" y="10" on="1"/>
        <pt x="341" y="10" on="0"/>
        <pt x="445" y="68" on="0"/>
        <pt x="522" y="168" on="0"/>
        <pt x="567" y="306" on="0"/>
        <pt x="567" y="384" on="1"/>
        <pt x="567" y="487" on="0"/>
        <pt x="465" y="610" on="0"/>
        <pt x="385" y="610" on="1"/>
        <pt x="327" y="610" on="0"/>
        <pt x="224" y="552" on="0"/>
        <pt x="147" y="452" on="0"/>
        <pt x="102" y="315" on="0"/>
        <pt x="102" y="237" on="1"/>
        <pt x="102" y="135" on="0"/>
        <pt x="203" y="10" on="0"/>
      </contour>
    </TTGlyph>
    <TTGlyph name="Otilde.sc" xMin="59" yMin="-11" xMax="556" yMax="769">
      <contour>
        <pt x="432" y="645" on="1"/>
        <pt x="457" y="645" on="0"/>
        <pt x="510" y="719" on="0"/>
        <pt x="538" y="769" on="1"/>
        <pt x="556" y="759" on="1"/>
        <pt x="519" y="692" on="0"/>
        <pt x="459" y="624" on="0"/>
        <pt x="427" y="624" on="1"/>
        <pt x="403" y="624" on="0"/>
        <pt x="374" y="662" on="0"/>
        <pt x="352" y="708" on="0"/>
        <pt x="328" y="746" on="0"/>
        <pt x="309" y="746" on="1"/>
        <pt x="284" y="746" on="0"/>
        <pt x="230" y="680" on="0"/>
        <pt x="202" y="630" on="1"/>
        <pt x="185" y="640" on="1"/>
        <pt x="222" y="707" on="0"/>
        <pt x="282" y="768" on="0"/>
        <pt x="314" y="768" on="1"/>
        <pt x="338" y="768" on="0"/>
        <pt x="367" y="729" on="0"/>
        <pt x="389" y="684" on="0"/>
        <pt x="413" y="645" on="0"/>
      </contour>
      <contour>
        <pt x="326" y="532" on="1"/>
        <pt x="404" y="532" on="0"/>
        <pt x="506" y="421" on="0"/>
        <pt x="506" y="325" on="1"/>
        <pt x="506" y="256" on="0"/>
        <pt x="464" y="134" on="0"/>
        <pt x="392" y="42" on="0"/>
        <pt x="294" y="-11" on="0"/>
        <pt x="239" y="-11" on="1"/>
        <pt x="159" y="-11" on="0"/>
        <pt x="59" y="101" on="0"/>
        <pt x="59" y="197" on="1"/>
        <pt x="59" y="266" on="0"/>
        <pt x="102" y="389" on="0"/>
        <pt x="174" y="479" on="0"/>
        <pt x="272" y="532" on="0"/>
      </contour>
      <contour>
        <pt x="242" y="12" on="1"/>
        <pt x="290" y="12" on="0"/>
        <pt x="376" y="60" on="0"/>
        <pt x="441" y="143" on="0"/>
        <pt x="479" y="257" on="0"/>
        <pt x="479" y="322" on="1"/>
        <pt x="479" y="407" on="0"/>
        <pt x="392" y="509" on="0"/>
        <pt x="323" y="509" on="1"/>
        <pt x="275" y="509" on="0"/>
        <pt x="188" y="461" on="0"/>
        <pt x="124" y="377" on="0"/>
        <pt x="86" y="264" on="0"/>
        <pt x="86" y="200" on="1"/>
        <pt x="86" y="115" on="0"/>
        <pt x="173" y="12" on="0"/>
      </contour>
    </TTGlyph>
    <TTGlyph name="P" xMin="61" yMin="0" xMax="508" yMax="624">
      <contour>
        <pt x="88" y="0" on="1"/>
        <pt x="61" y="0" on="1"/>
        <pt x="181" y="618" on="1"/>
        <pt x="207" y="621" on="0"/>
        <pt x="254" y="624" on="0"/>
        <pt x="276" y="624" on="1"/>
        <pt x="399" y="624" on="0"/>
        <pt x="508" y="534" on="0"/>
        <pt x="508" y="467" on="1"/>
        <pt x="508" y="365" on="0"/>
        <pt x="309" y="240" on="0"/>
        <pt x="132" y="228" on="1"/>
      </contour>
      <contour>
        <pt x="270" y="600" on="1"/>
        <pt x="254" y="600" on="0"/>
        <pt x="222" y="598" on="0"/>
        <pt x="204" y="597" on="1"/>
        <pt x="137" y="255" on="1"/>
        <pt x="303" y="263" on="0"/>
        <pt x="481" y="371" on="0"/>
        <pt x="481" y="464" on="1"/>
        <pt x="481" y="524" on="0"/>
        <pt x="383" y="600" on="0"/>
      </contour>
    </TTGlyph>
    <TTGlyph name="P.sc" xMin="53" yMin="0" xMax="439" yMax="525">
      <contour>
        <pt x="80" y="0" on="1"/>
        <pt x="53" y="0" on="1"/>
        <pt x="154" y="519" on="1"/>
        <pt x="177" y="522" on="0"/>
        <pt x="219" y="525" on="0"/>
        <pt x="238" y="525" on="1"/>
        <pt x="345" y="525" on="0"/>
        <pt x="439" y="446" on="0"/>
        <pt x="439" y="387" on="1"/>
        <pt x="439" y="303" on="0"/>
        <pt x="268" y="199" on="0"/>
        <pt x="116" y="189" on="1"/>
      </contour>
      <contour>
        <pt x="234" y="500" on="1"/>
        <pt x="221" y="500" on="0"/>
        <pt x="192" y="498" on="0"/>
        <pt x="176" y="497" on="1"/>
        <pt x="122" y="215" on="1"/>
        <pt x="262" y="221" on="0"/>
        <pt x="413" y="309" on="0"/>
        <pt x="413" y="384" on="1"/>
        <pt x="413" y="435" on="0"/>
        <pt x="329" y="500" on="0"/>
      </contour>
    </TTGlyph>
    <TTGlyph name="Q" xMin="86" yMin="-117" xMax="567" yMax="633">
      <contour>
        <pt x="472" y="-117" on="1"/>
        <pt x="173" y="-2" on="1"/>
        <pt x="178" y="14" on="1"/>
        <pt x="257" y="45" on="0"/>
        <pt x="392" y="136" on="0"/>
        <pt x="487" y="243" on="0"/>
        <pt x="541" y="365" on="0"/>
        <pt x="541" y="428" on="1"/>
        <pt x="541" y="512" on="0"/>
        <pt x="446" y="611" on="0"/>
        <pt x="359" y="611" on="1"/>
        <pt x="308" y="611" on="0"/>
        <pt x="217" y="568" on="0"/>
        <pt x="151" y="492" on="0"/>
        <pt x="113" y="385" on="0"/>
        <pt x="113" y="322" on="1"/>
        <pt x="113" y="274" on="0"/>
        <pt x="137" y="169" on="0"/>
        <pt x="162" y="113" on="1"/>
        <pt x="140" y="102" on="1"/>
        <pt x="112" y="160" on="0"/>
        <pt x="86" y="271" on="0"/>
        <pt x="86" y="321" on="1"/>
        <pt x="86" y="389" on="0"/>
        <pt x="129" y="504" on="0"/>
        <pt x="204" y="586" on="0"/>
        <pt x="308" y="633" on="0"/>
        <pt x="367" y="633" on="1"/>
        <pt x="461" y="633" on="0"/>
        <pt x="567" y="522" on="0"/>
        <pt x="567" y="432" on="1"/>
        <pt x="567" y="366" on="0"/>
        <pt x="514" y="240" on="0"/>
        <pt x="420" y="131" on="0"/>
        <pt x="291" y="39" on="0"/>
        <pt x="216" y="7" on="1"/>
        <pt x="480" y="-95" on="1"/>
      </contour>
    </TTGlyph>
</ttFont>
